<svg xmlns="http://www.w3.org/2000/svg" width="31.644" height="31.637" viewBox="0 0 31.644 31.637">
  <path id="instagram-orange" d="M15.751,39.532a8.111,8.111,0,1,0,8.111,8.111A8.1,8.1,0,0,0,15.751,39.532Zm0,13.385a5.273,5.273,0,1,1,5.273-5.273,5.283,5.283,0,0,1-5.273,5.273ZM26.086,39.2a1.892,1.892,0,1,1-1.892-1.892A1.888,1.888,0,0,1,26.086,39.2Zm5.372,1.92A9.363,9.363,0,0,0,28.9,34.492a9.424,9.424,0,0,0-6.629-2.556c-2.612-.148-10.441-.148-13.053,0a9.411,9.411,0,0,0-6.629,2.548A9.393,9.393,0,0,0,.036,41.114c-.148,2.612-.148,10.441,0,13.053A9.363,9.363,0,0,0,2.592,60.8a9.436,9.436,0,0,0,6.629,2.556c2.612.148,10.441.148,13.053,0A9.363,9.363,0,0,0,28.9,60.8a9.424,9.424,0,0,0,2.556-6.629c.148-2.612.148-10.434,0-13.046ZM28.084,56.969a5.339,5.339,0,0,1-3.007,3.007c-2.083.826-7.024.635-9.326.635s-7.25.184-9.326-.635a5.339,5.339,0,0,1-3.007-3.007c-.826-2.083-.635-7.024-.635-9.326s-.184-7.25.635-9.326a5.339,5.339,0,0,1,3.007-3.007c2.083-.826,7.024-.635,9.326-.635s7.25-.184,9.326.635a5.339,5.339,0,0,1,3.007,3.007c.826,2.083.635,7.024.635,9.326S28.91,54.894,28.084,56.969Z" transform="translate(0.075 -31.825)" fill="#fdeddf"/>
</svg>