<svg xmlns="http://www.w3.org/2000/svg" width="1200" height="112.444" viewBox="0 0 1200 112.444">
  <path id="Path_352" data-name="Path 352" d="M1733.63,1393.668c-5.138-.21-8.857,1.31-11.227,3.862a33.267,33.267,0,0,1-12.074,8.129,78,78,0,0,0-11.166,5.718q-1.687,1.044-3.277,2.141a96.086,96.086,0,0,0-11.464,9.377,15.441,15.441,0,0,0-1.482,1.61,10.944,10.944,0,0,0-2.719,6.849,18.119,18.119,0,0,0,.192,4.252,11.32,11.32,0,0,1,.13,1.184,3.3,3.3,0,0,1-1.729,2.8,20.958,20.958,0,0,1-3.129,1.142l-.013,0c-2.439.606-4.928,1.164-7.448,1.695-10.5-1-18.25-4.722-25.789-8.647-4.558-2.374-10.251-3.575-15.668-5.059-1.227-.336-1.65.379-2.3.732a21.7,21.7,0,0,1-20.091-.183c-3.425-1.974-7.831-3.1-11.963-4.412a84.761,84.761,0,0,1-16.248-6.878c-1.716-.978-3.381-1.988-4.979-3.029a11.007,11.007,0,0,0-8.168-1.291,6.569,6.569,0,0,0-4.234.52,20.722,20.722,0,0,0-3.348,1.849,21,21,0,0,0-2.4,1.435c-8.614,6.227-20.107,10.164-32.4,13.37a57.351,57.351,0,0,0-6.634,2.135,37.181,37.181,0,0,0-7.37,3.851c-.048.033-.094.07-.142.1-.5.346-.99.7-1.466,1.072-1.5,1.106-2.912,2.288-4.313,3.482-2.287,1.882-4.569,3.765-6.962,5.6-.344.239-.692.475-1.046.7a54.42,54.42,0,0,0-9.6-.406c-9.289.427-17.3-1.524-24.9-4.251-5.021-1.8-9.847-3.783-14.906-5.546-6.841-2.384-13.859-3.267-20.885-.168a5.561,5.561,0,0,1-3.1.258,16.941,16.941,0,0,1-3.768-.7c-8.483-3.6-19.032-5.071-27.141-9.191-4.893-2.486-9.893-5-15.244-7.21-.549-1.227-1.86-.866-3.173-.5a24.762,24.762,0,0,0-3.368.188c-.163.021-.32.05-.479.077l-.048.008a4.474,4.474,0,0,0-3.27,1.853c-.022.037-.042.073-.062.111a2.773,2.773,0,0,0-.153.333,3.264,3.264,0,0,0-.152.506h0a9.286,9.286,0,0,1-1.239,1.126c-.11.073-.219.144-.319.215-1.393.99-2.992,1.857-4.445,2.813a10.5,10.5,0,0,0-3.319,2.986c-.929,1.367-4.788,1.9-7.509,2.616l-8.876-1.382-10.134-2.127a44.769,44.769,0,0,0-5.494-1.292c-1.886-.347-3.8-.655-5.646-1.059q-.978-.215-1.938-.448c-2.56-.624-5.029-1.345-7.47-2.1-1.83-.566-3.645-1.151-5.469-1.726-.2-.064-.418-.139-.634-.21l-.216-.068c-.145-.044-.289-.084-.433-.115a2.633,2.633,0,0,0-.625-.068,1.245,1.245,0,0,0-.732.241,1.464,1.464,0,0,0-.424.545c-.2.007-.393.015-.588.025a1.639,1.639,0,0,0-1.978-.446c-2.524.934-5.565,1.6-7.486,2.836-4.606,2.972-10.111,5.577-12.787,9.438a5.462,5.462,0,0,1-2.336,2.066,1.442,1.442,0,0,1-.141-.139,1.012,1.012,0,0,0-.471-.356c-2.575-.673-5.009-1.489-7.41-2.338q-1.2-.426-2.4-.857c-2.391-.859-4.787-1.715-7.294-2.456q-1.254-.37-2.547-.7a38.891,38.891,0,0,0-18.766-4.068,20.338,20.338,0,0,1-11.318-2.727c-8.025-5.007-18.494-7.93-28.833-10.93-4.836-1.4-9.805-2.654-14.713-3.974a132.377,132.377,0,0,0-21.5-7.07c-.179-.042-.364-.095-.552-.143a2.824,2.824,0,0,0-1.167-.108,1.616,1.616,0,0,0-.3.079,1.634,1.634,0,0,0-.294.146,18.058,18.058,0,0,0-7.635,2.651,40.973,40.973,0,0,0-5.793,4.331c-1.4,1.092-2.784,2.193-4.084,3.324l0,0,0,0a14.7,14.7,0,0,1-3.215,2.1c-.081.038-.162.074-.243.11-.164.077-.336.149-.5.222a29.713,29.713,0,0,1-5.388,1.567c-.344.062-.683.127-1.038.18-1.509.226-2.993.52-4.52.691l-.016,0-.028,0q-4.3.482-8.338,1.271c-.234.045-.459.1-.692.147-1.07.216-2.136.437-3.181.684-.812.191-1.6.406-2.4.615-.448.119-.905.226-1.348.35-.973.272-1.927.567-2.878.867-.264.083-.535.158-.8.244-.876.284-1.735.591-2.592.9-.353.127-.713.246-1.063.377-.63.236-1.248.489-1.868.738s-1.232.488-1.837.746c-.281.121-.557.248-.836.372-.712.312-1.429.617-2.127.946-.233.109-.461.229-.691.349l-.016.007-.032.01q-7.512,2.154-14.776,4.738a136.3,136.3,0,0,0-18.84,7.687c-.962.469-1.912.949-2.837,1.452-11.977.525-23.735-19.3-32.328-17.559h0c-.132.026-.262.059-.391.1l-.041.011c-.119.035-.238.075-.356.119l-.075.028c-.109.043-.217.088-.324.138l-.109.053c-.1.048-.194.1-.291.152-.048.027-.095.057-.142.085-.086.052-.172.1-.257.162-.06.04-.119.084-.178.127s-.148.1-.221.163-.152.127-.229.192c-.056.048-.112.093-.168.144q-.2.177-.387.376l-.007.007v0c-.22.386-.437.746-.654,1.093-.047.075-.094.151-.142.225-.214.335-.427.657-.64.958-.024.033-.047.063-.07.1-.2.284-.405.551-.608.806-.033.042-.066.085-.1.126q-.329.408-.658.77c-.024.027-.049.052-.073.079-.223.241-.447.471-.67.685l-.009.009q-.352.336-.709.632l-.046.038a14.168,14.168,0,0,1-1.466,1.064,19.306,19.306,0,0,1-2.059,1.119h0c-1.05.5-2.167.947-3.372,1.46-.276.117-.556.237-.842.363l-.264.117c-.33.148-.668.3-1.013.464l-.189.092c-.37.176-.746.362-1.133.563l-.137.072c-.408.213-.824.439-1.254.685l-.078.046c-.451.26-.913.537-1.389.839-3.49-3.872-10.172-8.247-14.627-12.3-4.227-5.869-10.368-11.131-16.385-15.764.016.156.012.311.02.467-.078-.056-.143-.119-.23-.17-4.31,4.888-2.7,4.669-10.807,5.925-2.242.348-10.286,6.758-12.387,7.429-4,1.275-6.308,4.365-9.844,6.235-5.281,2.793-13.648,3.273-16.727,7.067a22.36,22.36,0,0,0-4.524.791c-2.144.578-4.267,1.369-6.349,2.073-7.595-4.1-15.971-13.187-22.156-12.052-2.427.959-2.624,3.678-4.979,4.726-4.384,1.689-7.786-2.228-11.232-3.583-10.288-.87-14.584-8.353-23.991-10.688-.105-.035-.212-.065-.319-.095l0,0c-.069-.082-.135-.164-.205-.245-6.779-7.881-16.952,24.925-23.077,28.258h0l0,0a8.143,8.143,0,0,0-1.746,1.041,6.056,6.056,0,0,0-.992.823c-.04.043-.072.089-.11.132a109.831,109.831,0,0,1-16.374,8.475,118.5,118.5,0,0,1-15.979-5.762c-1.768-2.326-4.676-2.471-8.016-2.188-7.24-1.669-17.457-7.707-24.448-13.463-3.022-2.488-5.622-2.355-8.121-4.1-.021,0-.035.005-.054.005-.02-.015-.037-.031-.058-.045-5.629,2.55-8.334,7.415-12.612,11.12a55.614,55.614,0,0,1-7.962,5.377l-6.93,4.128c-.487.29-.978.588-1.466.889l-17.332-16.47c-5.525-5.168-25.969-1.245-39.274-12.281-8.628-7.084-12.429-4.7-20.071-13.518-.011-.152-.023-.3-.033-.455-7.391.7-7.278,6.155-12.664,9.824-6.06,4.128-12.907,4.257-12.594,9.906-2.613-.721-5.32-1.344-8.16-1.847-9.366-1.661-17.671-4.5-24.514-8.6a37.647,37.647,0,0,0-11.379-4.291c-5.439-1.2-9.751-3.489-12.537-6.4-3.933-4.1-9.156-7.274-16.489-9.348-2.364-.668-4.439-1.676-6.654-2.522a5.876,5.876,0,0,0-3.113-.62v112.4h1200v-112.4C1734.185,1393.709,1733.915,1393.554,1733.63,1393.668Z" transform="translate(-534.448 -1393.624)" fill="#337582"/>
</svg>
