<svg xmlns="http://www.w3.org/2000/svg" width="1200" height="147.725" viewBox="0 0 1200 147.725">
  <path id="Path_348" data-name="Path 348" d="M1196.886.68c-2.215.845-4.289,1.853-6.654,2.522-7.332,2.073-12.555,5.243-16.489,9.347-2.785,2.907-7.1,5.191-12.537,6.4a37.626,37.626,0,0,0-11.378,4.291c-6.842,4.1-15.148,6.935-24.515,8.6-2.839.5-5.547,1.127-8.16,1.848.314-5.648-6.534-5.777-12.593-9.9-5.387-3.67-5.273-9.127-12.664-9.825-.011.152-.023.3-.033.455-7.643,8.817-11.443,6.434-20.071,13.518-13.3,11.037-33.75,7.113-39.275,12.281l-17.331,16.47c-.488-.3-.98-.6-1.467-.888l-6.93-4.129a55.7,55.7,0,0,1-7.962-5.376c-4.277-3.7-6.982-8.571-12.611-11.121l-.059.046a.306.306,0,0,0-.053-.005c-2.5,1.741-5.1,1.609-8.121,4.1-6.992,5.756-17.209,11.8-24.449,13.463-3.34-.284-6.247-.137-8.015,2.188a118.739,118.739,0,0,1-15.979,5.763,110.021,110.021,0,0,1-16.375-8.475c-.037-.044-.069-.09-.11-.133a6.2,6.2,0,0,0-.991-.823,8.21,8.21,0,0,0-1.747-1.041c-6.125-3.333-16.3-36.139-23.077-28.258-.07.082-.136.164-.205.245-.107.031-.213.06-.318.1-9.408,2.335-13.7,9.817-23.992,10.687-3.444,1.355-6.848,5.272-11.232,3.583-2.355-1.048-2.55-3.767-4.978-4.726-6.185-1.134-14.561,7.954-22.155,12.051-2.083-.7-4.2-1.494-6.349-2.072a22.414,22.414,0,0,0-4.524-.791c-3.08-3.793-11.446-4.273-16.728-7.066-3.536-1.87-5.847-4.96-9.843-6.236-2.1-.671-10.146-7.081-12.388-7.428-8.1-1.257-6.5-1.037-10.807-5.926-.087.051-.151.115-.231.17.009-.155,0-.311.021-.468-6.017,4.634-12.159,9.9-16.384,15.765-4.456,4.049-11.138,8.424-14.627,12.3-.477-.3-.938-.579-1.39-.839l-.078-.046c-.43-.246-.847-.472-1.254-.685-.045-.025-.091-.049-.137-.072-.387-.2-.764-.387-1.132-.565l-.19-.09c-.346-.164-.683-.317-1.014-.464l-.264-.118c-.285-.125-.566-.246-.841-.363-1.206-.513-2.321-.962-3.373-1.459a19.131,19.131,0,0,1-2.058-1.12A14.392,14.392,0,0,1,719.3,35.3l-.046-.039c-.237-.2-.474-.407-.708-.632l-.009-.008q-.336-.323-.67-.686l-.074-.079q-.33-.362-.659-.769l-.1-.126q-.3-.383-.608-.806c-.022-.033-.045-.064-.069-.1-.212-.3-.426-.622-.641-.958-.046-.074-.095-.149-.142-.225-.215-.347-.434-.706-.652-1.092l-.008-.008c-.128-.133-.257-.259-.387-.376-.057-.051-.112-.1-.168-.144-.077-.065-.151-.131-.229-.192s-.147-.109-.221-.163-.119-.087-.178-.127c-.085-.058-.171-.109-.258-.161-.047-.029-.094-.058-.142-.085-.1-.055-.194-.1-.291-.153-.036-.018-.072-.036-.108-.052-.109-.051-.216-.1-.324-.138l-.076-.029c-.118-.044-.236-.084-.356-.119l-.041-.011c-.128-.037-.259-.071-.39-.1C703.155,26.18,691.4,46.01,679.42,45.484c-.925-.5-1.875-.983-2.838-1.452a136.441,136.441,0,0,0-18.839-7.687q-7.26-2.579-14.777-4.737l-.031-.01-.017-.008c-.23-.12-.458-.24-.69-.349-.7-.328-1.415-.634-2.128-.946-.278-.123-.555-.251-.836-.372-.6-.257-1.222-.5-1.836-.745s-1.237-.5-1.869-.738c-.35-.131-.709-.251-1.063-.378-.857-.308-1.714-.615-2.591-.9-.264-.085-.534-.161-.8-.244-.95-.3-1.9-.6-2.877-.866-.444-.124-.9-.232-1.349-.35-.8-.21-1.588-.425-2.4-.615-1.045-.247-2.111-.469-3.182-.685-.232-.046-.458-.1-.691-.147q-4.044-.784-8.338-1.271h-.044c-1.527-.171-3.012-.465-4.521-.691-.354-.053-.694-.117-1.037-.179a29.6,29.6,0,0,1-5.388-1.568c-.169-.073-.34-.144-.5-.221l-.244-.11a14.75,14.75,0,0,1-3.214-2.1c-1.3-1.131-2.681-2.233-4.085-3.325a40.942,40.942,0,0,0-5.792-4.33,18.066,18.066,0,0,0-7.637-2.652,1.518,1.518,0,0,0-.294-.145,1.63,1.63,0,0,0-.3-.08,2.84,2.84,0,0,0-1.166.108c-.189.049-.373.1-.552.143a132.419,132.419,0,0,0-21.5,7.07c-4.909,1.32-9.878,2.571-14.714,3.974-10.339,3-20.807,5.924-28.833,10.931a20.343,20.343,0,0,1-11.318,2.727A38.862,38.862,0,0,0,482.365,36.6q-1.3.325-2.547.7c-2.507.742-4.9,1.6-7.295,2.457l-2.4.856c-2.4.848-4.836,1.665-7.41,2.338a1.022,1.022,0,0,0-.471.357,1.854,1.854,0,0,1-.141.139,5.468,5.468,0,0,1-2.337-2.066c-2.676-3.862-8.181-6.466-12.786-9.438-1.922-1.24-4.963-1.9-7.486-2.837a1.637,1.637,0,0,0-1.978.447c-.2-.01-.392-.019-.589-.026a1.457,1.457,0,0,0-.424-.544,1.237,1.237,0,0,0-.732-.241,2.532,2.532,0,0,0-.625.068c-.143.031-.288.071-.432.114-.073.022-.145.045-.217.069-.215.07-.429.145-.633.21-1.825.575-3.639,1.159-5.468,1.725-2.441.754-4.911,1.476-7.471,2.1q-.96.234-1.938.448c-1.849.4-3.76.713-5.645,1.06a44.635,44.635,0,0,0-5.495,1.292l-10.134,2.126L388.834,39.3c-2.722-.72-6.58-1.248-7.509-2.615a10.511,10.511,0,0,0-3.318-2.987c-1.454-.956-3.054-1.822-4.446-2.812-.1-.071-.208-.143-.319-.215A9.314,9.314,0,0,1,372,29.541a3.321,3.321,0,0,0-.152-.507,2.863,2.863,0,0,0-.153-.333q-.03-.056-.063-.111a4.476,4.476,0,0,0-3.27-1.853l-.047-.008c-.159-.027-.315-.056-.479-.076a24.64,24.64,0,0,0-3.369-.188c-1.312-.365-2.623-.726-3.172.5-5.351,2.213-10.351,4.723-15.244,7.209-8.108,4.121-18.659,5.6-27.141,9.192a17.048,17.048,0,0,1-3.768.7,5.56,5.56,0,0,1-3.1-.259c-7.027-3.1-14.045-2.217-20.886.168-5.058,1.764-9.884,3.746-14.906,5.546-7.6,2.727-15.615,4.678-24.9,4.25a54.53,54.53,0,0,0-9.6.407c-.355-.229-.7-.464-1.047-.7-2.392-1.838-4.675-3.721-6.962-5.6-1.4-1.194-2.815-2.377-4.313-3.483-.475-.371-.965-.726-1.464-1.072-.049-.033-.1-.07-.144-.1a37.154,37.154,0,0,0-7.369-3.851,57.17,57.17,0,0,0-6.633-2.135c-12.294-3.206-23.788-7.143-32.4-13.369a21.081,21.081,0,0,0-2.4-1.436,20.715,20.715,0,0,0-3.348-1.848,6.563,6.563,0,0,0-4.234-.521,11.008,11.008,0,0,0-8.168,1.291q-2.4,1.563-4.978,3.029a84.715,84.715,0,0,1-16.248,6.878c-4.132,1.315-8.538,2.438-11.964,4.413a21.7,21.7,0,0,1-20.091.183c-.651-.354-1.075-1.068-2.3-.732-5.418,1.483-11.11,2.684-15.669,5.058-7.538,3.925-15.288,7.65-25.788,8.647-2.52-.531-5.01-1.089-7.449-1.694h-.013a21.06,21.06,0,0,1-3.129-1.143,3.3,3.3,0,0,1-1.728-2.8,11.235,11.235,0,0,1,.129-1.185,18.125,18.125,0,0,0,.193-4.252,10.947,10.947,0,0,0-2.72-6.849A15.248,15.248,0,0,0,50.035,29.3a96.066,96.066,0,0,0-11.474-9.39q-1.59-1.1-3.277-2.141a77.949,77.949,0,0,0-11.165-5.718A33.266,33.266,0,0,1,12.044,3.92C9.674,1.368,5.956-.152.818.058.532-.056.263.1,0,.058v143.06H1200V.059a5.881,5.881,0,0,0-3.114.621" fill="#fdeddf"/>
  <path id="Path_349" data-name="Path 349" d="M326.981,138.167a.759.759,0,0,0,.089-.219c-.026.077-.06.145-.089.219m-13.354-33.058a.281.281,0,0,0,.057.316C313.707,105.068,313.723,104.881,313.627,105.109ZM300.09,111.2c-.056-.134-.047-.022-.035.18A.168.168,0,0,0,300.09,111.2Zm34.637,10.361c-.077-.181-.066-.039-.047.239A.224.224,0,0,0,334.727,121.558Zm23.818,6.075a.2.2,0,0,0,.041.209c.016-.242.024-.367-.041-.209m63.421-17.327c-.106-.254-.089-.045-.064.352a.312.312,0,0,0,.064-.352m-30.333.542c-.12-.286-.1-.051-.07.4a.352.352,0,0,0,.07-.4Zm-43.7,22.767a.194.194,0,0,0,.041.209c.018-.242.028-.366-.038-.209Zm-55.912-2.326c-.027-.063-.06-.115-.085-.181a.585.585,0,0,0,.088.181ZM227.586,93.945c-.118-.278-.1-.049-.07.386a.346.346,0,0,0,.07-.386M81.551,69a.336.336,0,0,0,.069.38c.028-.436.047-.659-.069-.384Zm-19.1-35.988a.467.467,0,0,0,.094.528c.042-.6.065-.913-.094-.532Zm73.259,85.535c-.051-.123-.1-.237-.153-.365a1.317,1.317,0,0,0,.154.362ZM22.587,11.281a.568.568,0,0,0,.115.632c.049-.713.079-1.088-.115-.632M49.271,77.37a1.566,1.566,0,0,0,.189-.455C49.4,77.074,49.333,77.217,49.271,77.37Zm236.771,24.209c-.1-.235-.083-.042-.059.323A.289.289,0,0,0,286.042,101.579ZM458.931,78.155a.472.472,0,0,0,.094.523C459.065,78.088,459.089,77.777,458.931,78.155ZM277.808,125.612a.372.372,0,0,0,.024.377.844.844,0,0,0-.024-.377M158,63.369c-.161-.381-.136-.068-.1.527a.474.474,0,0,0,.1-.527m39.871,30.8c-.106-.25-.089-.045-.063.347a.313.313,0,0,0,.063-.347M686.458,83.707a.393.393,0,0,0,.08.444c.028-.5.049-.764-.08-.444m279.58,22.4a.35.35,0,0,0,.07.391c.024-.443.043-.675-.076-.392Zm-27.807-.173c-.12-.282-.1-.05-.071.391a.351.351,0,0,0,.066-.392Zm72.277-31.1c-.2-.467-.166-.083-.117.646a.575.575,0,0,0,.112-.642ZM890.375,127.61c-.083-.2-.072-.042-.052.26a.243.243,0,0,0,.047-.256ZM1141.9,22.01c-.2-.472-.168-.084-.12.654a.587.587,0,0,0,.115-.648ZM856.958,116.37c-.082-.2-.072-.042-.051.26a.243.243,0,0,0,.051-.26M1195.905,6.315c-.2,3-.549,8.912,2.435,9.594,0,0-3.248,5.633-6.169-2.805,0,0-1.249,9.316,5.539,15.028,0,0-2.165,1.615-6.582-2.468,0,0,1.55,6.537,4.07,7.992a20.867,20.867,0,0,1-8.453,2.581s3.707,2.52,11.364-.571c0,0-6.544,8.208-11.935,8.478,0,0,.746,5.471,5.3,5.831,0,0-5.47,1.692-12.316-3.414,0,0,1.623,8.425,18.563,8,0,0-2.811,2.672-10.3,3.028l7.757,3.738s-8.531,2.005-15.064-.477c0,0,2.859,7.688,14.89,7.254,0,0,1.724,5.592-11.967,2.156,0,0-1.224,5.311,8.42,9.063l.159.221a1.052,1.052,0,0,0-.813,1.125,1.1,1.1,0,0,0-1.811.616,1.073,1.073,0,0,0,.047.439,15.56,15.56,0,0,1-4.463.82,8.5,8.5,0,0,0,3.749,2.285.885.885,0,0,0,.606.714c-.479-.155-.935.418-.874.916a1.935,1.935,0,0,0,.619,1.061c-3.839-.244-8.687-2.515-13.31-10.222,0,0-4.379,9.855,9.832,16.394,0,0-1.954,6.917-10.6,2.076a5.441,5.441,0,0,0,.051,1.256,1.7,1.7,0,0,0-1.051,1.687,1.524,1.524,0,0,0-1.524-.671,2.435,2.435,0,0,0,.114,1.451.983.983,0,0,1-1.463-.786l-1.445,1.2a2.638,2.638,0,0,1,1.878-3.222,2.582,2.582,0,0,1,.275-.057c-.3-.2.013-.779.342-.635l-1.5-1.651,1.655-.9a.687.687,0,0,1-.227-.946c.005-.008.009-.016.015-.024a2,2,0,0,1,.884-.671l2.716-1.345-4.333.209q-.216.906-.431,1.814a1.193,1.193,0,0,0-1.678-1.266,3.39,3.39,0,0,1-.033,2.894c.378-1.149-1.244-2.311-.768-3.424.314-.734,1.3-.84,2.1-.835l-.775-.835.733-.661c-.659-.639-.037-1.775.739-2.265s1.768-.809,2.145-1.645q-1.938.454-3.913.733l.754-1.2a4.836,4.836,0,0,0-2.112,1.217,5.185,5.185,0,0,1,3.572-5.613l-3.042.314a.917.917,0,0,1-.708-.13V78.9a8.221,8.221,0,0,1,1.121-1.3,1.476,1.476,0,0,0,.341-1.668l-1.462,1.791v-.246a15.1,15.1,0,0,1-.846,1.282l-.63.773-1.731-3.2c-.5.472-.457,1.251-.556,1.928s-.607,1.461-1.271,1.3a2.205,2.205,0,0,1,.957.892,3.474,3.474,0,0,1-1.233.391c.558-.062.957.675.716,1.181a1.345,1.345,0,0,1-1.435.63,3.753,3.753,0,0,1-1.5-.728q-.261,1.341-.523,2.683c-.32.158-.641.31-.957.451a19.16,19.16,0,0,1-.488-3.6c.019.5-.7,1.507-.908,1.99q-.456,1.053-.868,2.125c-.054.142-.106.282-.158.423a27.638,27.638,0,0,1-5.434,1.276l4.75-4.43c-6.857,1.8-7.906.945-7.906.945,11.091-4.6,9.692-10.115,9.692-10.115-11.167,5.225-11.536-.187-11.536-.187,7.148-2.309,6.641-6.413,6.641-6.413-4.29,2.4-5.261-1.031-5.261-1.031,7.056-3.245,4.881-8.137,4.881-8.137-4.881,8.137-10.267,4.069-10.267,4.069,4.191.452,5.7-1.465,5.7-1.465-3.146-.173-3.717-1.484-3.717-1.484,5.118-1.866,4.481-4.614,4.481-4.614-6.8,1.706-5.941-1.07-5.941-1.07,5.972.216,7.392-3.6,7.392-3.6-3.243,1.232-7.478.237-7.478.237l3.851-1.856c-3.717-.176-5.112-1.5-5.112-1.5,8.408.209,9.214-3.973,9.214-3.973-3.4,2.535-6.113,1.7-6.113,1.7,2.262-.179,2.631-2.894,2.631-2.894-2.677-.135-5.925-4.209-5.925-4.209,3.8,1.535,5.642.284,5.642.284a10.368,10.368,0,0,1-4.2-1.281c1.251-.723,2.021-3.968,2.021-3.968-2.193,2.027-3.267,1.225-3.267,1.225,3.369-2.835,2.748-7.459,2.748-7.459-1.45,4.188-3.061,1.392-3.061,1.392,1.481-.338,1.307-3.274,1.208-4.762-.759.871-3.852,1.086-3.852,1.086l.429-4.214-1.888,4.441-2.05-.259,3.1,4.424c-1.262,2.519-4.835-.839-4.835-.839a10.578,10.578,0,0,0,4.835,4.618c-1.05,2.728-6.1.839-6.1.839,1.472,2.309,4.843,2.2,4.843,2.2.848,2.408-4.633,4.1-4.633,4.1,2.312,1.05,5.106-.374,5.106-.374-.99,3.614-5.606,4.045-5.606,4.045A9.593,9.593,0,0,0,1135.4,46c-1.259,2.309-8.188-1.232-8.188-1.232,5.473,5.9,8.032,6.845,8.032,6.845.473,2.884-7.6.025-7.6.025,2.545,4.588,6.3,4.732,6.3,4.732-1.664,1.973-6.82-1.46-6.82-1.46a15.232,15.232,0,0,0,6.173,6.623c-2.523,0-10.462-4.557-10.462-4.557.68,2.16,7.121,7.2,7.121,7.2-1.029,2.228-4.033.217-4.033.217,1.457,4.126,6.322,6.58,6.322,6.58-.841,1.889-6.856-.684-6.856-.684,3.444,6.033,7.065,6.142,7.065,6.142-.63,3.988-7.985,1.586-7.985,1.586,1.894,3.475,8.406,4.711,8.406,4.711-1.891.839-8.42-1.26-8.42-1.26,1.669,3.989,8,5.038,8,5.038-3.362,2.729-10.8-2.848-10.8-2.848.555,3.869,5.186,6.039,5.186,6.039-4.141.672-9.041-3.172-9.041-3.172a19.418,19.418,0,0,0,5.3,7.477q-.4.456-.82.871c-4.09-1.213-6.142-2.518-7.17-3.486a4.306,4.306,0,0,0,.53-2.759c-9.688,4.533-10.007-.163-10.007-.163,6.2-2,5.762-5.564,5.762-5.564-3.723,2.085-4.565-.894-4.565-.894,6.121-2.816,4.235-7.061,4.235-7.061-4.235,7.061-8.909,3.531-8.909,3.531,3.637.392,4.941-1.271,4.941-1.271-2.729-.15-3.225-1.287-3.225-1.287,4.441-1.62,3.888-4,3.888-4-5.9,1.48-5.153-.928-5.153-.928,5.182.187,6.414-3.124,6.414-3.124a13.015,13.015,0,0,1-6.488.205l3.341-1.61c-3.225-.153-4.436-1.3-4.436-1.3,7.3.182,7.995-3.446,7.995-3.446-2.949,2.2-5.3,1.47-5.3,1.47,1.961-.155,2.283-2.511,2.283-2.511-2.323-.117-5.141-3.651-5.141-3.651,3.3,1.331,4.9.246,4.9.246a8.987,8.987,0,0,1-3.641-1.112c1.085-.627,1.753-3.442,1.753-3.442-1.9,1.758-2.835,1.063-2.835,1.063,2.924-2.46,2.385-6.472,2.385-6.472-1.258,3.633-2.656,1.208-2.656,1.208,1.286-.294,1.134-2.841,1.048-4.132-.66.755-3.342.942-3.342.942l.372-3.656-1.638,3.853-1.779-.224,2.687,3.838c-1.094,2.185-4.194-.728-4.194-.728a9.167,9.167,0,0,0,4.194,4.006c-.912,2.368-5.289.729-5.289.729,1.276,2,4.2,1.906,4.2,1.906.736,2.088-4.019,3.557-4.019,3.557,2.005.911,4.429-.325,4.429-.325-.859,3.136-4.864,3.51-4.864,3.51a8.333,8.333,0,0,0,3.718,2.825c-1.1,2-7.106-1.069-7.106-1.069,4.749,5.122,6.97,5.939,6.97,5.939.41,2.5-6.592.021-6.592.021,2.207,3.981,5.467,4.106,5.467,4.106-1.443,1.712-5.917-1.266-5.917-1.266a13.205,13.205,0,0,0,5.354,5.745c-2.188,0-9.077-3.953-9.077-3.953.59,1.874,6.179,6.251,6.179,6.251-.893,1.933-3.5.189-3.5.189,1.263,3.579,5.484,5.709,5.484,5.709-.73,1.639-5.949-.594-5.949-.594,2.988,5.235,6.131,5.329,6.131,5.329-.547,3.46-6.929,1.376-6.929,1.376,1.644,3.015,7.293,4.087,7.293,4.087-1.641.729-7.305-1.092-7.305-1.092,1.448,3.46,6.941,4.37,6.941,4.37-2.918,2.368-9.368-2.47-9.368-2.47a5.083,5.083,0,0,0,.607,1.752c-1.361.35-3.2.637-3.027-.433,0,0,1.491-.548,4.68-3.987,0,0-4.036,2.063-4.771.718a5.6,5.6,0,0,0,2.5-1.9s-2.689-.251-3.266-2.356a3.9,3.9,0,0,0,2.974.218s-3.193-.986-2.7-2.389a3.489,3.489,0,0,0,2.821-1.279s-2.939,1.1-3.55-.49a6.147,6.147,0,0,0,2.815-2.69s-2.081,1.957-2.815.49l1.8-2.577-1.195.15-1.1-2.587.25,2.455s-1.8-.126-2.244-.633c-.058.867-.159,2.577.7,2.774,0,0-.938,1.629-1.783-.811a5.2,5.2,0,0,0,1.6,4.346s-.626.467-1.9-.714c0,0,.45,1.89,1.179,2.311a6.04,6.04,0,0,1-2.445.746s1.072.729,3.286-.165c0,0-1.892,2.373-3.451,2.452a2.569,2.569,0,0,0,.463,1.1l-2.16-.621c-5.1,3.336-7.974-.645-7.974-.645,3.44-3.518,4.454-12.114,4.454-12.114a6.557,6.557,0,0,1-8.106.444l2.139-2.729c-2.435-.311-4.989-6.822-4.989-6.822,2.227.185,3.062-2.132,3.062-2.132-2.32-.185-3.711-3.613-3.711-3.613.835.556,1.65-1.413,1.65-1.413a4.721,4.721,0,0,1-2.3-4.332l-.928,3.706-1.884-1.173,1.141,4.509c.186,2.131-2.428-1.494-2.428-1.494.078,2.86-1.654-.266-1.654-.266,1.021,4.447-1.485,2.687-1.485,2.687.464,1.112,3.8,3.521,3.8,3.521L1052.048,74a32.738,32.738,0,0,0,2.268,2.785c-2.558.191-5.423-2.6-5.423-2.6,1.392,4.262,4.7,4.818,4.7,4.818l-2.006.649a4.665,4.665,0,0,1-1.183,2.615c1.417.206,4.764-1.537,4.764-1.537-.779,1.912-4.509,3.462-4.509,3.462a22.96,22.96,0,0,0,2.464.36c-2.083,1.473-4.376-.1-4.376-.1,1.893,2.853,3.953,2.15,3.953,2.15-2.134,3.243-8.581.049-8.581.049,2.925,3.941,9.045,6.437,9.045,6.437-1.763.556-4.278-.866-4.278-.866.362,1.359,2.516,2.163,2.516,2.163-3.434.648-6.96-1.761-6.96-1.761,1.763,3.8,7.25,5.224,7.25,5.224-5.091,1.889-7.474-1.457-7.474-1.457.706,3.3,4.585,6.148,4.585,6.148-3.711.092-8.233-3.868-8.233-3.868,1.324,4.471,7.676,7.945,7.676,7.945-1.855,1.575-5.293-.792-5.293-.792.644,3.286,6.407,7.463,6.407,7.463a6,6,0,0,1-7.056-1.2c.554,2.694,7.149,5.83,7.149,5.83-1.3,3.429-8.074,1.668-8.074,1.668a10.761,10.761,0,0,0,5.661,3.8c-2.784,1.39-5.842-1.3-5.842-1.3,1.489,4.075,5.927,4.887,5.927,4.887-6.6.715-8.832-2.311-8.832-2.311,1.088,4.15,5.407,5.765,5.407,5.765-5.475,1.761-9.653-3.632-9.653-3.632a18.461,18.461,0,0,0,1.72,3.111c-5.053,8.336-16.561,9.5-16.561,9.5l4.7-4.381c-6.783,1.781-7.82.934-7.82.934,10.972-4.552,9.586-10,9.586-10-11.045,5.168-11.41-.186-11.41-.186,7.07-2.283,6.568-6.343,6.568-6.343-4.244,2.377-5.2-1.02-5.2-1.02,6.978-3.21,4.827-8.049,4.827-8.049-4.827,8.049-10.156,4.025-10.156,4.025,4.147.447,5.634-1.449,5.634-1.449-3.112-.172-3.677-1.468-3.677-1.468,5.064-1.846,4.433-4.564,4.433-4.564-6.723,1.687-5.875-1.059-5.875-1.059,5.907.213,7.312-3.562,7.312-3.562-3.208,1.219-7.4.235-7.4.235l3.809-1.836c-3.677-.175-5.057-1.487-5.057-1.487,8.317.208,9.115-3.929,9.115-3.929-3.362,2.507-6.047,1.676-6.047,1.676,2.236-.176,2.6-2.863,2.6-2.863-2.648-.133-5.86-4.163-5.86-4.163,3.759,1.518,5.58.281,5.58.281a10.248,10.248,0,0,1-4.151-1.267c1.237-.715,2-3.925,2-3.925-2.169,2-3.232,1.212-3.232,1.212,3.332-2.8,2.72-7.379,2.72-7.379-1.434,4.143-3.029,1.377-3.029,1.377,1.466-.334,1.294-3.239,1.2-4.711-.752.862-3.811,1.075-3.811,1.075l.424-4.168-1.867,4.392-2.028-.255,3.063,4.376c-1.247,2.491-4.782-.831-4.782-.831a10.447,10.447,0,0,0,4.782,4.568c-1.039,2.7-6.03.831-6.03.831,1.456,2.284,4.791,2.173,4.791,2.173.839,2.381-4.583,4.056-4.583,4.056,2.287,1.038,5.051-.371,5.051-.371-.98,3.575-5.546,4-5.546,4a9.5,9.5,0,0,0,4.238,3.221c-1.247,2.284-8.1-1.22-8.1-1.22,5.414,5.841,7.944,6.772,7.944,6.772.468,2.853-7.516.024-7.516.024,2.517,4.539,6.234,4.681,6.234,4.681-1.646,1.952-6.746-1.443-6.746-1.443a15.066,15.066,0,0,0,6.1,6.55c-2.495,0-10.349-4.507-10.349-4.507.673,2.137,7.044,7.127,7.044,7.127-1.017,2.2-3.988.215-3.988.215,1.44,4.081,6.253,6.509,6.253,6.509-.832,1.869-6.782-.677-6.782-.677,3.407,5.968,6.99,6.075,6.99,6.075-.624,3.945-7.9,1.569-7.9,1.569,1.873,3.438,8.316,4.66,8.316,4.66-1.872.831-8.33-1.245-8.33-1.245,1.652,3.945,7.914,4.983,7.914,4.983-2.9,2.356-8.877-1.548-10.346-2.577l.172-.122q-.447-.848-.928-1.679c.71.666,1.952-.407,1.706-1.348a2.584,2.584,0,0,0-2.257-1.584,8.038,8.038,0,0,0,1.723-2.8.882.882,0,0,0,.061-.581c-.232-.65-1.538-.266-1.715-.933a1.09,1.09,0,0,0,.519-1.108,4.648,4.648,0,0,0-1.516-2.662c-.257-.281-.516-.561-.773-.841a2.036,2.036,0,0,0,1.985-1,33.829,33.829,0,0,0-4.828-1l2.1-1.147a.924.924,0,0,0,.4-.326c.28-.506-.465-.945-1.034-1.051a1.547,1.547,0,0,0-.637-2.285c.5-.584.183-1.49-.239-2.134a3.07,3.07,0,0,1-.813-2.1c.113-.6.623-1.036.86-1.6a1.9,1.9,0,0,0-.423-2.061,1.815,1.815,0,0,0,1.457-1.236,2.453,2.453,0,0,0-2.147-.744,1.629,1.629,0,0,1,.4-1.475l-1.03-.63a2.441,2.441,0,0,0,.506-1.111c.134-1.524-1.657-.842-1.244.816.174.7.05,1.76-.674,1.735a.983.983,0,0,0,.774.7,6.2,6.2,0,0,1-1.871,1.19,1.872,1.872,0,0,1,1.429.427c.338.384.072,1.191-.429,1.08q.321.447.643.895a1.049,1.049,0,0,0-.812,1.124,1.1,1.1,0,0,0-1.811.616,1.44,1.44,0,0,0,1.417,1.464c.046,0,.091,0,.136,0a3.434,3.434,0,0,0-1.974.951c-.468.578-.358,1.649.36,1.848-.479-.155-.936.417-.874.916a2.275,2.275,0,0,0,.8,1.244,15.023,15.023,0,0,1-1.46,1.29,1.163,1.163,0,0,1,1.076,1.244,1.184,1.184,0,0,1-.083.356,1.5,1.5,0,0,1-1.934.637,4.31,4.31,0,0,0,1.868,2.5l-3.321.524,3.282,2.43a2.741,2.741,0,0,0-1.471.21.944.944,0,0,0-.431,1.265,1.4,1.4,0,0,0-.4,1.939l.024.035c-.712-.225-1.721-.318-1.984.38-.3.813.825,1.374,1.683,1.513a3.821,3.821,0,0,0-2.116,2.2,2.523,2.523,0,0,1,1.295,2.4,9.435,9.435,0,0,1-.693,2.79c-.078.227-.137.459-.207.689-1.33.258-3.443.4-3.7-1.22,0,0,2.168-.065,4.231-3.677,0,0-3.6,1.541-4.1.41,0,0,2.913-1.47,3.785-3.94,0,0-1.8,1.2-2.415-.13,0,0,3.857-3.02,4.264-4.314,0,0-4.753,2.728-6.263,2.728a9.128,9.128,0,0,0,3.7-3.965s-3.088,2.056-4.084.874a4.946,4.946,0,0,0,3.773-2.833s-4.831,1.712-4.549-.015c0,0,1.532-.563,4.809-4.1,0,0-4.148,2.12-4.9.737a5.74,5.74,0,0,0,2.565-1.949s-2.764-.258-3.356-2.422a4.006,4.006,0,0,0,3.056.224s-3.28-1.013-2.773-2.454a3.589,3.589,0,0,0,2.9-1.316s-3.02,1.131-3.65-.5a6.322,6.322,0,0,0,2.9-2.764s-2.14,2.01-2.9.5l1.855-2.649-1.228.155-1.13-2.658.256,2.523s-1.851-.13-2.306-.651c-.059.891-.163,2.649.724,2.851,0,0-.965,1.674-1.833-.833a5.347,5.347,0,0,0,1.645,4.466s-.643.48-1.956-.734c0,0,.461,1.943,1.21,2.376a6.215,6.215,0,0,1-2.513.767s1.1.749,3.378-.17c0,0-1.944,2.44-3.547,2.52,0,0,.222,1.626,1.575,1.733a4.359,4.359,0,0,1-3.66-1.015s.482,2.5,5.517,2.379a4.939,4.939,0,0,1-3.061.9l2.3,1.111a8.98,8.98,0,0,1-4.476-.142s.85,2.285,4.425,2.156c0,0,.513,1.662-3.557.641,0,0-.381,1.645,2.684,2.763,0,0-.343.784-2.226.888,0,0,.9,1.148,3.41.877,0,0-3.225,2.436-6.147-2.436,0,0-1.3,2.929,2.922,4.872,0,0-.581,2.056-3.149.617,0,0-.3,2.457,3.975,3.84,0,0-.22,3.24-6.906.112,0,0-.474,1.894,2.179,4.011H953.59v-1.908a9.58,9.58,0,0,1-1.5,1.908h-.127a9.659,9.659,0,0,1-1.316-1.735v1.721h-5.655c2.9-2.185,2.412-4.184,2.412-4.184-6.687,3.128-6.907-.112-6.907-.112,4.278-1.382,3.976-3.84,3.976-3.84-2.569,1.439-3.15-.617-3.15-.617,4.224-1.943,2.922-4.872,2.922-4.872-2.922,4.872-6.147,2.437-6.147,2.437,2.51.27,3.41-.878,3.41-.878-1.884-.1-2.225-.888-2.225-.888,3.064-1.117,2.683-2.762,2.683-2.762-4.069,1.021-3.557-.641-3.557-.641,3.576.129,4.426-2.156,4.426-2.156a8.977,8.977,0,0,1-4.478.142l2.3-1.111a4.946,4.946,0,0,1-3.06-.9c5.035.126,5.517-2.379,5.517-2.379a4.352,4.352,0,0,1-3.66,1.015c1.353-.107,1.575-1.733,1.575-1.733-1.6-.08-3.547-2.519-3.547-2.519,2.276.918,3.377.169,3.377.169a6.193,6.193,0,0,1-2.513-.767c.75-.432,1.21-2.375,1.21-2.375-1.312,1.213-1.955.733-1.955.733a5.341,5.341,0,0,0,1.645-4.466c-.868,2.508-1.833.834-1.833.834.887-.2.783-1.961.724-2.852-.456.522-2.307.651-2.307.651l.257-2.523-1.13,2.659-1.228-.155,1.854,2.649c-.755,1.508-2.894-.5-2.894-.5a6.326,6.326,0,0,0,2.894,2.765c-.629,1.633-3.65.5-3.65.5a3.589,3.589,0,0,0,2.9,1.316c.508,1.441-2.774,2.455-2.774,2.455a4.015,4.015,0,0,0,3.058-.224c-.592,2.163-3.357,2.421-3.357,2.421a5.746,5.746,0,0,0,2.565,1.95c-.755,1.382-4.9-.738-4.9-.738,3.278,3.535,4.81,4.1,4.81,4.1.284,1.727-4.548.015-4.548.015a4.938,4.938,0,0,0,3.773,2.833c-1,1.182-4.084-.873-4.084-.873a9.123,9.123,0,0,0,3.7,3.965c-1.51,0-6.263-2.728-6.263-2.728.407,1.293,4.263,4.313,4.263,4.313-.615,1.334-2.414.131-2.414.131.872,2.469,3.785,3.939,3.785,3.939a.585.585,0,0,1-.159.2,13.246,13.246,0,0,0-2.88-.217c-.608-.2-1.066-.394-1.066-.394.148.258.3.494.444.718a.917.917,0,0,0-.008.546.919.919,0,0,1,.716.488l-1.694,1.407c.431-.379-.134-1.241-.654-1a1.8,1.8,0,0,0,.6-1.36l-2.756.9a1.153,1.153,0,0,1-.253-1.2,1.585,1.585,0,0,0,1.059-.1,1.424,1.424,0,0,0-1.255-.475,1.079,1.079,0,0,1,.533-.753l-.769-.965c.674.01.584-1.048.248-1.632a3.87,3.87,0,0,1-1.387.971l-.065,1.177-.984-.8c-.334-.521.369-1.3.922-1.02.331-.374-.175-1.075-.637-.88.333-.167.138-.8-.231-.749a1.372,1.372,0,0,1,.612-.889.723.723,0,0,0,.809.455.869.869,0,0,1,.186-1.211,2.371,2.371,0,0,0-1.775.071q.123.45.244.9l-.755-.46a2.621,2.621,0,0,1-1.167,1.6l-.954-.164a1.132,1.132,0,0,0,.471-.734l-1.413-.383a2.6,2.6,0,0,0,1.419-1.323.776.776,0,0,0,.729.646.72.72,0,0,0,.28-.748,1.458,1.458,0,0,1-.959-1.577.8.8,0,0,0,1.135.087.787.787,0,0,0,.143-.162c0-.055-.747-.212-.818-.312-.144-.2.054-.828.063-1.067a11.4,11.4,0,0,1-1.973.933c-.576.126-1.193,0-1.755.15a5.584,5.584,0,0,1,.445.712,16.984,16.984,0,0,1-2,1.721.789.789,0,0,1-.6.942.761.761,0,0,1-.2.018,2.523,2.523,0,0,1-.351,1.986l2.2.076a.668.668,0,0,0-.69.494l.855.383A1.514,1.514,0,0,0,916,133.6l-1.193.434a.651.651,0,0,0,.506,1l-1.448.449,1.162,1.164a5.178,5.178,0,0,0-2.157,1.3l-2.072-.745a1.24,1.24,0,0,1-.707.658,1.466,1.466,0,0,0-.047-.986l1.234-.173-1.861-.109a4.229,4.229,0,0,0-.413-2.38,4.857,4.857,0,0,1,.135,2.1,1.665,1.665,0,0,1-1.427,1.359l1.7.869-1.606.714,1.86,1a4.466,4.466,0,0,0-1.353.782h-3.211c.049-.164.1-.328.15-.492a.607.607,0,0,1-.828-.661.634.634,0,0,0-.4,1.122l-1.063-.091a.715.715,0,0,0,.017.122h-4.024a11.659,11.659,0,0,1-.709-2.8,3.274,3.274,0,0,0-.164,2.8h-7.592a.45.45,0,0,1,.012-.155c2.531.092,3.133-1.526,3.133-1.526a6.364,6.364,0,0,1-3.17.1l1.633-.786a3.5,3.5,0,0,1-2.167-.637c3.563.089,3.9-1.684,3.9-1.684a3.08,3.08,0,0,1-2.591.719c.958-.076,1.115-1.227,1.115-1.227-1.134-.057-2.511-1.784-2.511-1.784,1.612.651,2.392.12,2.392.12a4.389,4.389,0,0,1-1.779-.542c.53-.307.856-1.682.856-1.682-.929.859-1.385.519-1.385.519a3.783,3.783,0,0,0,1.165-3.161c-.613,1.775-1.3.59-1.3.59.633-.145.554-1.411.51-2.036-.3.381-1.631.478-1.631.478l.183-1.786-.8,1.882-.869-.11L888.5,130.2c-.535,1.068-2.049-.355-2.049-.355A4.479,4.479,0,0,0,888.5,131.8c-.445,1.156-2.583.355-2.583.355a2.535,2.535,0,0,0,2.051.932c.36,1.02-1.963,1.737-1.963,1.737a2.839,2.839,0,0,0,2.164-.158c-.419,1.531-2.375,1.714-2.375,1.714a4.056,4.056,0,0,0,1.815,1.38c-.535.979-3.472-.522-3.472-.522,2.321,2.5,3.4,2.9,3.4,2.9.2,1.222-3.22.011-3.22.011a4.622,4.622,0,0,0,.64.881h-1.37a1.136,1.136,0,0,0-.8,0h-.372a1.233,1.233,0,0,1,.368-1.3.843.843,0,0,1-.878-.808.791.791,0,0,1,0-.119c-.894.077-.943,1.341-.713,2.223h-3.869a1.929,1.929,0,0,0,.212-.534,3.259,3.259,0,0,1-1.446.534h-.075a.963.963,0,0,1-.617-.214s2.566-1.4,3.1-3.21c0,0-1.826,1.6-3.325,1.563a5.243,5.243,0,0,0,1.852-2.484,2.5,2.5,0,0,1-3.019.589s2.216-.575,2.929-2.11a4.346,4.346,0,0,1-2.812.711s.87-.325,1.016-.873a2.717,2.717,0,0,1-1.728.349,10,10,0,0,0,3.654-2.6s-2.6,1.29-3.467-.02c0,0,.833.284,1.6-.868a1.632,1.632,0,0,1-1.767.041,9.339,9.339,0,0,0,1-.146s-1.507-.626-1.822-1.4a5.182,5.182,0,0,0,1.925.62,1.889,1.889,0,0,1-.478-1.056l-.811-.262a2.681,2.681,0,0,0,1.9-1.946,3.63,3.63,0,0,1-2.19,1.05,13.19,13.19,0,0,0,.916-1.125l-1.125-1.086a7.065,7.065,0,0,0,1.537-1.422s-1.012.711-.6-1.085c0,0-.7,1.263-.668.107,0,0-1.056,1.465-.981.6l.461-1.822-.761.474-.375-1.5a1.908,1.908,0,0,1-.929,1.75s.33.8.667.571c0,0-.562,1.385-1.5,1.46a1.292,1.292,0,0,0,1.237.86s-1.033,2.631-2.016,2.757l.864,1.1a2.649,2.649,0,0,1-3.275-.18s.409,3.473,1.8,4.894c0,0-1.16,1.608-3.221.261l-2.286.657.289,2.4c-4.265,1.842-4.423-.282-4.423-.282,3.03-.979,2.815-2.718,2.815-2.718-1.819,1.018-2.23-.437-2.23-.437,2.99-1.376,2.069-3.449,2.069-3.449-2.069,3.449-4.351,1.725-4.351,1.725a2.655,2.655,0,0,0,2.413-.621c-1.333-.074-1.575-.629-1.575-.629,2.168-.791,1.9-1.956,1.9-1.956-2.88.723-2.518-.453-2.518-.453,2.531.091,3.133-1.526,3.133-1.526a6.364,6.364,0,0,1-3.17.1l1.633-.786a3.5,3.5,0,0,1-2.167-.637c3.563.089,3.906-1.684,3.906-1.684a3.085,3.085,0,0,1-2.592.718c.958-.075,1.115-1.226,1.115-1.226-1.133-.057-2.511-1.784-2.511-1.784,1.612.65,2.391.12,2.391.12a4.39,4.39,0,0,1-1.778-.543c.53-.306.856-1.681.856-1.681-.929.859-1.383.519-1.383.519a3.787,3.787,0,0,0,1.164-3.162c-.614,1.775-1.3.59-1.3.59.633-.144.552-1.41.511-2.035-.3.38-1.632.477-1.632.477l.182-1.786-.8,1.883-.869-.11,1.313,1.875c-.535,1.068-2.048-.356-2.048-.356a4.467,4.467,0,0,0,2.048,1.957c-.444,1.157-2.584.356-2.584.356a2.537,2.537,0,0,0,2.054.931c.358,1.021-1.964,1.738-1.964,1.738a2.835,2.835,0,0,0,2.164-.159c-.42,1.532-2.376,1.715-2.376,1.715a4.059,4.059,0,0,0,1.816,1.38c-.535.978-3.471-.522-3.471-.522,2.319,2.5,3.4,2.9,3.4,2.9.2,1.222-3.22.01-3.22.01a3.5,3.5,0,0,0,2.67,2.006c-.7.836-2.889-.619-2.889-.619a5.687,5.687,0,0,0,1.529,2.024c-.09.134-.178.268-.275.393a32.059,32.059,0,0,1-3.073-1.541,9.1,9.1,0,0,0,2.252,2.425,8.226,8.226,0,0,1-.925.731l-.018-.01.008.017a11.981,11.981,0,0,1-4.9,1.811l2.013-1.877c-2.907.763-3.352.4-3.352.4,4.7-1.95,4.108-4.287,4.108-4.287-4.732,2.215-4.889-.079-4.889-.079,3.029-.979,2.814-2.718,2.814-2.718-1.818,1.018-2.23-.437-2.23-.437,2.991-1.376,2.069-3.449,2.069-3.449-2.069,3.449-4.352,1.725-4.352,1.725a2.656,2.656,0,0,0,2.414-.621c-1.333-.074-1.575-.629-1.575-.629,2.169-.791,1.9-1.956,1.9-1.956-2.88.723-2.517-.453-2.517-.453,2.531.091,3.133-1.526,3.133-1.526a6.364,6.364,0,0,1-3.17.1l1.632-.787a3.5,3.5,0,0,1-2.167-.636c3.564.089,3.9-1.684,3.9-1.684a3.081,3.081,0,0,1-2.59.718c.958-.075,1.115-1.226,1.115-1.226-1.135-.057-2.511-1.784-2.511-1.784,1.61.65,2.39.12,2.39.12a4.386,4.386,0,0,1-1.778-.543c.53-.306.857-1.681.857-1.681-.93.859-1.385.519-1.385.519a3.785,3.785,0,0,0,1.165-3.162c-.615,1.775-1.3.59-1.3.59.634-.144.554-1.41.512-2.035-.3.38-1.631.477-1.631.477l.181-1.786-.8,1.882-.869-.109,1.313,1.875c-.534,1.067-2.049-.356-2.049-.356a4.474,4.474,0,0,0,2.049,1.957c-.446,1.157-2.584.356-2.584.356a2.539,2.539,0,0,0,2.053.931c.36,1.021-1.964,1.738-1.964,1.738a2.834,2.834,0,0,0,2.164-.159c-.418,1.532-2.376,1.715-2.376,1.715a4.07,4.07,0,0,0,1.816,1.38c-.534.978-3.471-.523-3.471-.523,2.319,2.5,3.4,2.9,3.4,2.9.2,1.222-3.221.01-3.221.01a3.5,3.5,0,0,0,2.671,2.006c-.7.836-2.891-.619-2.891-.619a6.451,6.451,0,0,0,2.616,2.807c-1.069,0-4.434-1.931-4.434-1.931.288.915,3.018,3.053,3.018,3.053-.436.945-1.709.093-1.709.093a5.986,5.986,0,0,0,2.68,2.788c-.357.8-2.906-.29-2.906-.29,1.46,2.557,3,2.6,3,2.6-.267,1.691-3.384.673-3.384.673.8,1.473,3.563,2,3.563,2-.8.356-3.569-.534-3.569-.534.707,1.691,3.391,2.135,3.391,2.135-1.426,1.157-4.576-1.206-4.576-1.206.235,1.639,2.2,2.559,2.2,2.559-1.755.285-3.832-1.345-3.832-1.345a8.994,8.994,0,0,0,3.088,3.85c-3.273-.76-4.25-1.705-4.539-2.155a5.151,5.151,0,0,0,3.117,2.923c0,.534-1.566.087-1.566.087a3.816,3.816,0,0,0,.288.5H823.52c-.041-.009-.081-.024-.122-.03a3.712,3.712,0,0,0,.8-1.3.409.409,0,0,0,.029-.269c-.108-.3-.715-.124-.8-.434a.51.51,0,0,0,.242-.515,2.164,2.164,0,0,0-.705-1.237l-.358-.39a.946.946,0,0,0,.921-.464,15.72,15.72,0,0,0-2.243-.464l.978-.533a.426.426,0,0,0,.184-.152c.13-.235-.216-.439-.481-.488a.719.719,0,0,0-.183-1,.766.766,0,0,0-.112-.063c.233-.271.085-.692-.111-.991a1.427,1.427,0,0,1-.378-.974c.052-.277.289-.481.4-.741a.886.886,0,0,0-.2-.958.841.841,0,0,0,.676-.574,1.141,1.141,0,0,0-1-.346.756.756,0,0,1,.188-.685l-.479-.293a1.121,1.121,0,0,0,.235-.516c.062-.708-.769-.391-.579.379.082.326.024.818-.312.806a.455.455,0,0,0,.359.324,2.843,2.843,0,0,1-.869.553.871.871,0,0,1,.664.2c.157.179.033.554-.2.5l.3.416a.488.488,0,0,0-.378.522.509.509,0,0,0-.841.286.67.67,0,0,0,.66.68c.021,0,.042,0,.062,0a1.608,1.608,0,0,0-.917.442c-.217.269-.167.766.167.859-.223-.072-.435.194-.405.425a1.053,1.053,0,0,0,.37.578,6.894,6.894,0,0,1-.679.6.539.539,0,0,1,.461.745.7.7,0,0,1-.9.3,2,2,0,0,0,.869,1.162l-1.543.243,1.525,1.129a1.279,1.279,0,0,0-.685.1.44.44,0,0,0-.2.588.646.646,0,0,0-.192.893l.016.024c-.331-.1-.8-.148-.921.176-.077.2.042.371.228.494H806.117a1.748,1.748,0,0,0,.288-1.019c-1.818,1.019-2.229-.436-2.229-.436,2.991-1.376,2.068-3.449,2.068-3.449-2.068,3.449-4.351,1.724-4.351,1.724a2.651,2.651,0,0,0,2.413-.621c-1.333-.073-1.575-.628-1.575-.628,2.17-.792,1.9-1.956,1.9-1.956-2.88.723-2.517-.454-2.517-.454,2.531.092,3.133-1.526,3.133-1.526a6.365,6.365,0,0,1-3.17.1l1.632-.787a3.494,3.494,0,0,1-2.166-.637c3.564.089,3.9-1.683,3.9-1.683a3.081,3.081,0,0,1-2.59.718c.958-.076,1.115-1.227,1.115-1.227-1.134-.057-2.511-1.784-2.511-1.784a2.65,2.65,0,0,0,2.391.121,4.39,4.39,0,0,1-1.779-.543c.531-.307.857-1.682.857-1.682-.93.859-1.385.519-1.385.519a3.78,3.78,0,0,0,1.165-3.161c-.615,1.775-1.3.59-1.3.59.633-.145.554-1.41.512-2.036-.3.381-1.632.478-1.632.478l.182-1.786-.8,1.882-.87-.11,1.313,1.875c-.534,1.068-2.049-.355-2.049-.355a4.479,4.479,0,0,0,2.049,1.957c-.445,1.156-2.583.356-2.583.356a2.539,2.539,0,0,0,2.052.931c.36,1.02-1.963,1.738-1.963,1.738a2.844,2.844,0,0,0,2.164-.159c-.42,1.531-2.376,1.714-2.376,1.714a4.051,4.051,0,0,0,1.815,1.38c-.534.979-3.471-.522-3.471-.522,2.319,2.5,3.4,2.9,3.4,2.9.2,1.222-3.222.011-3.222.011a3.5,3.5,0,0,0,2.671,2c-.7.837-2.89-.618-2.89-.618a6.447,6.447,0,0,0,2.615,2.806c-1.069,0-4.434-1.931-4.434-1.931.289.916,3.018,3.054,3.018,3.054-.435.944-1.708.092-1.708.092a4.959,4.959,0,0,0,1.713,2.157H785.917c.415-.409.864-.867,1.354-1.4,0,0-4.318,2.207-5.1.768a5.98,5.98,0,0,0,2.669-2.029s-2.876-.268-3.493-2.52a4.173,4.173,0,0,0,3.182.233s-3.416-1.055-2.887-2.555a3.732,3.732,0,0,0,3.018-1.369s-3.144,1.177-3.8-.524a6.579,6.579,0,0,0,3.013-2.877s-2.227,2.093-3.013.523l1.931-2.757-1.278.161-1.176-2.767.267,2.626s-1.927-.134-2.4-.677c-.062.927-.17,2.757.753,2.968,0,0-1,1.742-1.909-.868a5.559,5.559,0,0,0,1.713,4.648s-.67.5-2.036-.763c0,0,.48,2.022,1.259,2.472a6.449,6.449,0,0,1-2.615.8s1.147.779,3.516-.177c0,0-2.024,2.539-3.692,2.623,0,0,.231,1.692,1.639,1.8a4.53,4.53,0,0,1-3.81-1.056s.5,2.606,5.742,2.476a2.178,2.178,0,0,1-.344.235h-7.431c.153-.32.411-.618.744-.554a.316.316,0,0,1,.066-.543,6.82,6.82,0,0,0-.89-.9l.545-.384q-.207-.393-.431-.78c.331.31.907-.189.793-.626a1.2,1.2,0,0,0-1.048-.736,3.734,3.734,0,0,0,.8-1.3.405.405,0,0,0,.028-.27c-.108-.3-.714-.124-.8-.434a.509.509,0,0,0,.243-.515,2.159,2.159,0,0,0-.705-1.236l-.359-.391a.946.946,0,0,0,.923-.464,15.743,15.743,0,0,0-2.245-.464l.978-.533a.432.432,0,0,0,.185-.151c.129-.235-.217-.439-.48-.489a.718.718,0,0,0-.187-1,.835.835,0,0,0-.113-.063c.234-.272.086-.693-.11-.992a1.423,1.423,0,0,1-.378-.974c.052-.277.289-.481.4-.741a.882.882,0,0,0-.2-.958.838.838,0,0,0,.675-.574,1.139,1.139,0,0,0-1-.346.759.759,0,0,1,.188-.685l-.479-.293a1.1,1.1,0,0,0,.235-.515c.063-.709-.769-.392-.578.378.082.327.024.818-.313.806a.456.456,0,0,0,.36.324,2.844,2.844,0,0,1-.869.553.875.875,0,0,1,.664.2c.157.179.033.554-.2.5l.3.416a.488.488,0,0,0-.378.522.509.509,0,0,0-.841.287.669.669,0,0,0,.659.68c.021,0,.042,0,.063,0a1.59,1.59,0,0,0-.917.442c-.218.268-.167.766.166.858-.222-.072-.434.194-.4.426a1.058,1.058,0,0,0,.37.578,7.022,7.022,0,0,1-.678.6.541.541,0,0,1,.5.579.533.533,0,0,1-.039.167.7.7,0,0,1-.9.295,2,2,0,0,0,.868,1.162l-1.542.244,1.524,1.128a1.285,1.285,0,0,0-.684.1.439.439,0,0,0-.2.588.649.649,0,0,0-.19.9l.014.02c-.331-.1-.8-.148-.922.177-.141.377.383.638.782.7a1.772,1.772,0,0,0-.982,1.021,1.172,1.172,0,0,1,.6,1.113,4.391,4.391,0,0,1-.322,1.3c-.1.282-.17.569-.237.859h-2.071a3.729,3.729,0,0,0,.6-1.521,15.993,15.993,0,0,1-2.568,1.521h-3.126c1.245-.373,3.252-1.214,3.952-2.885,0,0-4.068,1.308-5.247.785,0,0,4.058-.77,5.238-2.936,0,0-4.584,1.5-4.977-.988,0,0,2.257-.068,4.4-3.827,0,0-3.749,1.6-4.273.426,0,0,3.032-1.53,3.94-4.1,0,0-1.872,1.252-2.513-.136,0,0,4.014-3.144,4.437-4.49,0,0-4.947,2.84-6.519,2.84a9.487,9.487,0,0,0,3.846-4.127s-3.213,2.139-4.25.909a5.144,5.144,0,0,0,3.927-2.948s-5.029,1.781-4.734-.016c0,0,1.594-.586,5-4.266,0,0-4.318,2.207-5.1.768a5.968,5.968,0,0,0,2.67-2.029s-2.877-.268-3.493-2.52a4.17,4.17,0,0,0,3.181.233s-3.415-1.055-2.886-2.555a3.729,3.729,0,0,0,3.017-1.369s-3.144,1.177-3.8-.523a6.586,6.586,0,0,0,3.013-2.878s-2.226,2.093-3.013.523l1.931-2.756-1.278.161-1.176-2.767.267,2.625s-1.927-.134-2.4-.677c-.062.928-.17,2.757.753,2.968,0,0-1,1.742-1.908-.868a5.564,5.564,0,0,0,1.712,4.649s-.669.5-2.036-.764c0,0,.48,2.022,1.259,2.473a6.433,6.433,0,0,1-2.615.8s1.147.78,3.516-.177c0,0-2.024,2.539-3.692,2.623,0,0,.231,1.692,1.639,1.8a4.531,4.531,0,0,1-3.809-1.057s.5,2.607,5.741,2.476a5.137,5.137,0,0,1-3.185.936l2.4,1.157a9.354,9.354,0,0,1-4.661-.148s.886,2.378,4.607,2.244c0,0,.533,1.73-3.7.667,0,0-.4,1.712,2.793,2.875,0,0-.356.817-2.317.925,0,0,.937,1.194,3.55.912,0,0-3.357,2.536-6.4-2.535,0,0-1.355,3.048,3.041,5.071,0,0-.6,2.139-3.278.642,0,0-.316,2.557,4.138,4,0,0-.23,3.373-7.188.117,0,0-.873,3.435,6.04,6.3,0,0-.655.534-4.928-.589l2.171,2.025h-2.419a12.918,12.918,0,0,1-7.3-5.37v5.37h-3.7a9.665,9.665,0,0,0,1.458-1.472s-5.664,1.472-6.75-1.394c0,0,5.514-2.623,5.977-4.876a5.015,5.015,0,0,1-5.9,1s4.819-3.492,5.357-6.24c0,0-2.874,1.979-4.426.662,0,0,5.312-2.9,6.419-6.644,0,0-3.781,3.312-6.884,3.235,0,0,3.244-2.379,3.833-5.141,0,0-1.992,2.8-6.249,1.219,0,0,4.588-1.192,6.062-4.368,0,0-2.948,2.014-5.819,1.472,0,0,1.8-.673,2.1-1.808,0,0-2.1,1.188-3.577.723,0,0,5.119-2.086,7.563-5.382,0,0-5.391,2.671-7.174-.041,0,0,1.723.588,3.3-1.8a3.378,3.378,0,0,1-3.659.085,19.343,19.343,0,0,0,2.061-.3s-3.12-1.3-3.771-2.9c0,0,2.8,1.458,3.982,1.285a3.889,3.889,0,0,1-.987-2.187l-1.679-.542s2.765-.465,3.929-4.029c0,0-2.4,2.334-4.535,2.175a27.194,27.194,0,0,0,1.9-2.33l-2.327-2.246s2.792-2.015,3.18-2.944c0,0-2.094,1.472-1.241-2.247,0,0-1.448,2.614-1.383.222,0,0-2.186,3.032-2.03,1.25l.955-3.771-1.575.982-.776-3.1a3.947,3.947,0,0,1-1.924,3.621s.682,1.647,1.38,1.182c0,0-1.163,2.867-3.1,3.022a2.673,2.673,0,0,0,2.561,1.782s-2.138,5.444-4.172,5.705l1.789,2.281a5.57,5.57,0,0,1-5.443.5c0-.007.01-.011.013-.017-.035-.01-.069-.016-.1-.026a6.265,6.265,0,0,1-1.245-.83s.026.208.077.544c-.863-.2-1.731-.375-2.609-.491l1.692-.922a.752.752,0,0,0,.318-.262c.225-.406-.374-.759-.831-.845a1.242,1.242,0,0,0-.319-1.727,1.311,1.311,0,0,0-.193-.109c.4-.469.147-1.2-.192-1.715a2.464,2.464,0,0,1-.654-1.685c.091-.48.5-.832.692-1.282a1.526,1.526,0,0,0-.34-1.657,1.457,1.457,0,0,0,1.17-.993,1.973,1.973,0,0,0-1.725-.6,1.306,1.306,0,0,1,.325-1.185l-.828-.507a1.951,1.951,0,0,0,.407-.892c.107-1.225-1.331-.678-1,.655.14.565.04,1.415-.542,1.394a.791.791,0,0,0,.622.561,4.947,4.947,0,0,1-1.5.956,1.506,1.506,0,0,1,1.149.343c.272.309.058.957-.345.868l.517.719a.844.844,0,0,0-.653.9.881.881,0,0,0-1.456.5,1.158,1.158,0,0,0,1.141,1.176.968.968,0,0,0,.108,0,2.759,2.759,0,0,0-1.587.765c-.376.464-.288,1.325.289,1.485-.383-.125-.751.335-.7.736a1.84,1.84,0,0,0,.641,1,12.42,12.42,0,0,1-1.173,1.037.934.934,0,0,1,.8,1.289,1.161,1.161,0,0,1-1.279.576V107.4l-.008.005a1.129,1.129,0,0,1-.27-.063c.017.061.047.117.066.177-1,.562-5.38,2.976-6.9,2.976a10.339,10.339,0,0,0,4.191-4.5s-3.5,2.332-4.632.991c0,0,2.551-.1,4.28-3.214,0,0-5.482,1.942-5.161-.017,0,0,1.738-.64,5.456-4.65,0,0-4.707,2.4-5.563.837a6.527,6.527,0,0,0,2.911-2.212s-3.137-.293-3.809-2.748a4.547,4.547,0,0,0,3.468.254s-3.723-1.149-3.147-2.785c0,0,2.29.076,3.29-1.492,0,0-3.427,1.283-4.141-.571a7.177,7.177,0,0,0,3.284-3.137s-2.426,2.282-3.284.571l2.1-3L690.121,85l-1.263-2.975.291,2.862s-2.1-.146-2.618-.738c-.067,1.011-.185,3,.821,3.235,0,0-1.1,1.9-2.08-.946a6.062,6.062,0,0,0,1.867,5.068s-.73.544-2.22-.832c0,0,.523,2.2,1.374,2.695a7.041,7.041,0,0,1-2.851.87s1.25.85,3.832-.193c0,0-2.207,2.768-4.025,2.859,0,0,.252,1.845,1.788,1.966a4.942,4.942,0,0,1-4.153-1.151s.547,2.841,6.259,2.7a5.612,5.612,0,0,1-3.473,1.02l2.616,1.261a10.192,10.192,0,0,1-5.08-.161s.965,2.593,5.022,2.446c0,0,.581,1.886-4.036.727,0,0-.433,1.867,3.045,3.135,0,0-.389.89-2.526,1.007,0,0,1.022,1.3,3.869,1,0,0-3.658,2.763-6.974-2.765,0,0-1.477,3.324,3.316,5.528,0,0-.66,2.333-3.574.7,0,0-.345,2.788,4.511,4.356,0,0-.256,3.43-7.168.419a8.723,8.723,0,0,0,2.19-3.186c-.381.688-1.874,2.371-7.641,3.71a15.018,15.018,0,0,0,5.15-6.418s-3.463,2.716-6.388,2.241c0,0,3.272-1.533,3.664-4.267,0,0-5.252,3.941-7.629,2.012,0,0,4.474-.741,5.653-3.559,0,0-4.613,1.483-5.951.89,0,0,4.6-.873,5.94-3.329,0,0-5.2,1.7-5.643-1.121,0,0,2.559-.077,4.993-4.34,0,0-4.25,1.818-4.845.484,0,0,3.439-1.735,4.468-4.65,0,0-2.123,1.421-2.85-.154,0,0,4.552-3.564,5.032-5.091,0,0-5.609,3.22-7.392,3.22a10.769,10.769,0,0,0,4.361-4.679s-3.644,2.425-4.82,1.031c0,0,2.656-.1,4.454-3.344,0,0-5.7,2.02-5.369-.017,0,0,1.808-.665,5.676-4.837,0,0-4.9,2.5-5.787.87a6.776,6.776,0,0,0,3.026-2.3s-3.262-.3-3.96-2.859a4.731,4.731,0,0,0,3.606.265s-3.873-1.2-3.272-2.9c0,0,2.381.079,3.421-1.553,0,0-3.565,1.335-4.308-.593a7.463,7.463,0,0,0,3.417-3.263s-2.526,2.373-3.417.593l2.189-3.126-1.45.183-1.333-3.138.3,2.978s-2.186-.153-2.722-.768c-.07,1.051-.193,3.126.853,3.365,0,0-1.138,1.976-2.163-.984a6.308,6.308,0,0,0,1.942,5.271s-.759.567-2.309-.865c0,0,.544,2.293,1.429,2.8a7.324,7.324,0,0,1-2.965.9s1.3.884,3.986-.2c0,0-2.295,2.879-4.186,2.974,0,0,.261,1.919,1.858,2.045a5.138,5.138,0,0,1-4.319-1.2s.569,2.956,6.511,2.807c0,0-.986.937-3.613,1.062l2.721,1.312a10.606,10.606,0,0,1-5.284-.168s1,2.7,5.223,2.545c0,0,.6,1.961-4.2.756,0,0-.45,1.941,3.167,3.26,0,0-.4.926-2.627,1.049,0,0,1.062,1.354,4.024,1.035,0,0-3.806,2.875-7.254-2.876,0,0-1.537,3.457,3.448,5.751,0,0-.686,2.426-3.716.728,0,0-.358,2.9,4.691,4.532,0,0-.219,3-5.79,1.093a4.453,4.453,0,0,1-.192-1.151,2.071,2.071,0,0,1,1.062-1.966,3.142,3.142,0,0,0-1.735-1.8c.7-.113,1.629-.573,1.379-1.24-.214-.573-1.042-.5-1.626-.311a1.146,1.146,0,0,0-.277-1.6l-.034-.023a.776.776,0,0,0-.35-1.037h0a2.261,2.261,0,0,0-1.207-.172l2.691-1.993-2.723-.429A3.539,3.539,0,0,0,649.4,91.3a1.231,1.231,0,0,1-1.586-.522.953.953,0,0,1,.517-1.246.941.941,0,0,1,.3-.07,12.832,12.832,0,0,1-1.2-1.058,1.866,1.866,0,0,0,.653-1.02c.05-.409-.324-.878-.717-.751.589-.163.681-1.041.3-1.516a2.815,2.815,0,0,0-1.619-.78,1.184,1.184,0,0,0,1.271-1.088c0-.038,0-.075,0-.112a.9.9,0,0,0-1.486-.5.858.858,0,0,0-.667-.922q.266-.366.528-.733c-.41.09-.629-.571-.351-.887a1.542,1.542,0,0,1,1.172-.35,5.059,5.059,0,0,1-1.534-.975.8.8,0,0,0,.633-.572c-.6.021-.7-.847-.553-1.423.339-1.36-1.13-1.918-1.02-.668a2,2,0,0,0,.415.91l-.845.517a1.331,1.331,0,0,1,.331,1.209,2.012,2.012,0,0,0-1.759.61,1.487,1.487,0,0,0,1.194,1.014,1.557,1.557,0,0,0-.347,1.691c.2.458.613.818.7,1.308a2.511,2.511,0,0,1-.667,1.719c-.346.528-.607,1.271-.2,1.75a1.266,1.266,0,0,0-.634,1.676,1.287,1.287,0,0,0,.111.2c-.466.087-1.077.447-.849.862a.779.779,0,0,0,.326.267l1.726.941a27.677,27.677,0,0,0-3.959.819,1.669,1.669,0,0,0,1.627.819l-.633.689a3.817,3.817,0,0,0-1.243,2.183.9.9,0,0,0,.425.909c-.146.547-1.217.232-1.407.766a.711.711,0,0,0,.05.476,6.59,6.59,0,0,0,1.413,2.293,2.119,2.119,0,0,0-1.851,1.3c-.2.772.816,1.652,1.4,1.106q-.393.681-.76,1.377l.963.677a12.115,12.115,0,0,0-1.571,1.6.558.558,0,0,1,.294.732.566.566,0,0,1-.178.227c.683-.132,1.2.6,1.444,1.25s.488,1.431,1.151,1.642a4.308,4.308,0,0,0-2.872,1.566,4.466,4.466,0,0,0,1.287.559l-2.169,1.81,1,.57a7.663,7.663,0,0,1-2.083.391,1.587,1.587,0,0,0,.8.7l-.732.272a1.651,1.651,0,0,0,.977,1.06l-1.765.5.99.889a32.145,32.145,0,0,0-5.382,1.517c-.02-.04-.041-.082-.062-.122-.314-.582-1.013-1.148-1.576-.8l1.252-.694a5.424,5.424,0,0,1,2.341-2.056l-1.911-.082a1.4,1.4,0,0,0,.306-.742l-.928.185a2.812,2.812,0,0,0,.818-1.392l-1.528.122a2.613,2.613,0,0,0,.979-1.775,5.7,5.7,0,0,0,2.35-3.145,1.573,1.573,0,0,1-1.649-1.5,1.551,1.551,0,0,1,.019-.334,2.581,2.581,0,0,0-1.749,2.4,1.147,1.147,0,0,0-1.339-.627,1.913,1.913,0,0,1-.854,2.311c-.826.355-1.965-.536-1.6-1.357.232-.523.868-.723,1.258-1.142s.176-1.384-.364-1.195a1.362,1.362,0,0,0,.75-1.774,1.4,1.4,0,0,0-.15-.274l1.541-1.162-1.918-.067,2.132-2.56a5,5,0,0,1-1.723.121l-1.618,1.665-.887-.8a8.868,8.868,0,0,1-.048,3.07,3,3,0,0,1-1.934,2.224.9.9,0,0,1-1.026-.262,1.054,1.054,0,0,1-.055-.7,19.328,19.328,0,0,1,.937-3.627,5.244,5.244,0,0,1-2.356-1.163l4.391-2.2-1.072-.481a5.348,5.348,0,0,0,1.888-1.27,4.939,4.939,0,0,0-2.272-.411l1.818-2.234a5.07,5.07,0,0,1-2.664.016,4.19,4.19,0,0,1-.635,2.261,1.561,1.561,0,0,0-2.486-.5,3.1,3.1,0,0,1,2.945-3.01l-.666-.623a1.629,1.629,0,0,0,.658-1.82l1.125-.229c-.055-.214-.109-.427-.164-.641a4.584,4.584,0,0,0,1.19-.862,2,2,0,0,0-.566-.91l-.67.541a1.277,1.277,0,0,0-1.559-.691,13.454,13.454,0,0,1-.759,2.144l-.948-.871-1.215,3.089a3.479,3.479,0,0,0-4.3-1.5l3.286-1.87a2.177,2.177,0,0,1,.254-1.974,3.09,3.09,0,0,1,1.258,1.277,3.193,3.193,0,0,0,.533-2.082l-1.283-.034a5.1,5.1,0,0,1,2.273-1.871l-1.082-.3.985-1.764a3.514,3.514,0,0,0-1.591.181,2.553,2.553,0,0,0-2.023-2.115,4.054,4.054,0,0,1-.237,2.559.761.761,0,0,0-1.3.162c.334-.458,1.043.3.8.816s-.849.731-1.246,1.134a1.778,1.778,0,0,0-.372,1.89L613,86.771c-.582.677-.406,1.686-.372,2.577s-.326,2.012-1.215,2.085a11.173,11.173,0,0,1-.167-5.821,8.938,8.938,0,0,0-1.41,1.94q-.843,1.415-1.687,2.827a2.064,2.064,0,0,1-.686.8,1.739,1.739,0,0,1-.553.178,5.993,5.993,0,0,1-2.3-.018l-1.3.706c-.207-.228-.416-.456-.623-.683a2.549,2.549,0,0,1-1.248,1.546c-1.693-.138-3.185-.789-3.47-2.591,0,0,4.135-.124,8.067-7.011,0,0-6.867,2.937-7.827.781,0,0,5.555-2.8,7.217-7.511,0,0-3.429,2.3-4.6-.249,0,0,7.354-5.759,8.129-8.225,0,0-9.062,5.2-11.942,5.2,0,0,4.972-2.66,7.046-7.56,0,0-5.888,3.919-7.788,1.666,0,0,4.291-.164,7.194-5.4,0,0-9.212,3.263-8.672-.029,0,0,2.92-1.074,9.169-7.814,0,0-7.91,4.043-9.349,1.407a10.952,10.952,0,0,0,4.89-3.717s-5.269-.492-6.4-4.618c0,0,3.188,1.626,5.829.427,0,0-6.257-1.932-5.288-4.68,0,0,3.848.128,5.527-2.508,0,0-5.759,2.157-6.959-.958a12.063,12.063,0,0,0,5.519-5.272s-4.08,3.834-5.519.959l3.537-5.051-2.342.3-2.154-5.07.489,4.811s-3.53-.246-4.4-1.241c-.114,1.7-.312,5.051,1.379,5.437,0,0-1.84,3.192-3.5-1.59,0,0-.708,5.279,3.138,8.516,0,0-1.227.915-3.73-1.4,0,0,.879,3.705,2.308,4.53a11.828,11.828,0,0,1-4.791,1.462s2.1,1.428,6.44-.324c0,0-3.708,4.651-6.764,4.805,0,0,.423,3.1,3,3.3,0,0-3.1.958-6.978-1.935,0,0,.92,4.774,10.519,4.535,0,0-1.593,1.513-5.836,1.715l4.4,2.118s-4.835,1.137-8.537-.27c0,0,1.621,4.357,8.438,4.111,0,0,.978,3.168-6.781,1.221,0,0-.727,3.137,5.116,5.268,0,0-.653,1.495-4.244,1.693,0,0,1.717,2.189,6.5,1.672,0,0-6.149,4.645-11.72-4.645,0,0-2.482,5.585,5.57,9.29,0,0-1.106,3.919-6,1.176,0,0-.578,4.685,7.581,7.321,0,0-.42,6.178-13.168.214,0,0-1.6,6.293,11.065,11.546,0,0-1.2.978-9.026-1.078l5.422,5.057a32.349,32.349,0,0,1-12.676-4.522,4.529,4.529,0,0,0,.575-.8s-.524.168-1.275.329a21.423,21.423,0,0,1-3.214-2.714,12.768,12.768,0,0,0,3.692-4.308s-5.209,2.229-5.937.593c0,0,4.213-2.126,5.474-5.7,0,0-2.6,1.741-3.491-.189,0,0,5.578-4.368,6.166-6.239,0,0-6.875,3.946-9.059,3.946a13.2,13.2,0,0,0,5.345-5.735s-4.466,2.973-5.907,1.264c0,0,3.254-.125,5.458-4.1,0,0-6.99,2.476-6.58-.022,0,0,2.215-.815,6.956-5.928,0,0-6,3.067-7.093,1.067a8.293,8.293,0,0,0,3.71-2.819s-4-.374-4.854-3.5c0,0,2.419,1.233,4.421.324,0,0-4.747-1.466-4.012-3.551,0,0,2.92.1,4.194-1.9,0,0-4.37,1.636-5.279-.728a9.148,9.148,0,0,0,4.187-4s-3.1,2.909-4.187.728l2.682-3.832-1.776.224-1.634-3.845.371,3.649s-2.678-.187-3.337-.941c-.085,1.289-.234,3.831,1.047,4.124,0,0-1.4,2.422-2.651-1.206,0,0-.537,4.005,2.38,6.46,0,0-.93.695-2.829-1.061,0,0,.667,2.811,1.75,3.436a8.968,8.968,0,0,1-3.634,1.11s1.6,1.083,4.885-.246c0,0-2.813,3.528-5.131,3.645,0,0,.321,2.352,2.279,2.506,0,0-2.351.728-5.294-1.467,0,0,.7,3.622,7.979,3.44,0,0-1.208,1.148-4.427,1.3l3.335,1.607a12.99,12.99,0,0,1-6.476-.205s1.23,3.305,6.4,3.118c0,0,.74,2.4-5.145.927,0,0-.552,2.38,3.881,4,0,0-.5,1.135-3.219,1.285,0,0,1.3,1.66,4.932,1.268,0,0-4.665,3.524-8.891-3.523,0,0-1.884,4.236,4.226,7.047,0,0-.84,2.973-4.555.892,0,0-.44,3.555,5.75,5.554,0,0-.319,4.687-9.99.162,0,0-1.211,4.774,8.394,8.759,0,0-.91.742-6.848-.817l4.114,3.836a23.923,23.923,0,0,1-10.879-4.321l.17-1.407-2.4-.691a13.79,13.79,0,0,1-1.492-2.067v1.638l-1.831-.526c-5.161,3.373-8.063-.653-8.063-.653,3.48-3.557,4.5-12.251,4.5-12.251a6.632,6.632,0,0,1-8.2.449l2.163-2.759c-2.461-.315-5.045-6.9-5.045-6.9,2.252.188,3.1-2.155,3.1-2.155-2.346-.187-3.754-3.654-3.754-3.654.845.562,1.669-1.43,1.669-1.43a4.772,4.772,0,0,1-2.325-4.38L509,68.042,507.1,66.855l1.156,4.56c.187,2.156-2.457-1.511-2.457-1.511.079,2.893-1.673-.269-1.673-.269,1.033,4.5-1.5,2.717-1.5,2.717.469,1.125,3.847,3.561,3.847,3.561l-2.815,2.718a33.3,33.3,0,0,0,2.293,2.817c-2.586.193-5.484-2.63-5.484-2.63,1.409,4.31,4.751,4.872,4.751,4.872l-2.028.656a4.712,4.712,0,0,1-1.2,2.645c1.433.209,4.817-1.554,4.817-1.554-.788,1.934-4.56,3.5-4.56,3.5a23,23,0,0,0,2.491.364c-2.106,1.49-4.424-.1-4.424-.1,1.914,2.886,4,2.174,4,2.174-2.159,3.28-8.679.05-8.679.05,2.958,3.986,9.147,6.509,9.147,6.509-1.783.563-4.326-.875-4.326-.875.366,1.374,2.543,2.187,2.543,2.187-3.472.656-7.038-1.78-7.038-1.78,1.783,3.842,7.332,5.283,7.332,5.283-5.148,1.91-7.558-1.474-7.558-1.474.713,3.34,4.636,6.217,4.636,6.217-3.753.094-8.326-3.912-8.326-3.912,1.339,4.522,7.764,8.035,7.764,8.035-1.877,1.593-5.354-.8-5.354-.8.652,3.323,6.48,7.547,6.48,7.547a6.062,6.062,0,0,1-7.136-1.212c.56,2.725,7.23,5.9,7.23,5.9-1.314,3.467-8.165,1.686-8.165,1.686a10.892,10.892,0,0,0,5.725,3.842c-2.815,1.406-5.908-1.313-5.908-1.313,1.506,4.121,5.994,4.941,5.994,4.941-6.67.723-8.932-2.336-8.932-2.336,1.1,4.2,5.468,5.83,5.468,5.83-5.538,1.78-9.763-3.674-9.763-3.674,3.059,7.082,8.65,8.879,9.1,9.015h-5.919a2.283,2.283,0,0,0-2.73-.258,2.3,2.3,0,0,1-.375-1.139,3.257,3.257,0,0,1-1.34.816,5.834,5.834,0,0,0-.086-3.153,5.162,5.162,0,0,1-.889,2.126l-.466-3.246a3.823,3.823,0,0,0-.6,1.1,2.549,2.549,0,0,0-1.087-.872,6.414,6.414,0,0,1,.27,2.4,1.144,1.144,0,0,1-.207.662c-.4.474-1.159.151-1.669-.2q.228.594.454,1.19a.36.36,0,0,1,.033.235.367.367,0,0,1-.189.181l-.269.152h-3.518A5.517,5.517,0,0,0,478,138.613s-2.956.845-2.956-.163A9.659,9.659,0,0,0,481,132.8c-.432.78-2.12,2.685-8.648,4.2,0,0,4.266-2.886,5.83-7.266,0,0-3.92,3.075-7.232,2.538,0,0,3.7-1.736,4.149-4.83,0,0-5.946,4.46-8.637,2.277,0,0,5.063-.839,6.4-4.029,0,0-5.222,1.679-6.735,1.007,0,0,5.209-.988,6.725-3.767,0,0-5.883,1.921-6.388-1.269,0,0,2.9-.087,5.652-4.912,0,0-4.812,2.058-5.484.547,0,0,3.892-1.963,5.056-5.263,0,0-2.4,1.608-3.225-.174,0,0,5.152-4.035,5.7-5.762,0,0-6.35,3.644-8.368,3.644a12.168,12.168,0,0,0,4.936-5.3s-4.124,2.746-5.454,1.168c0,0,3-.115,5.04-3.785,0,0-6.455,2.287-6.077-.02,0,0,2.046-.753,6.424-5.475,0,0-5.541,2.832-6.55.986a7.666,7.666,0,0,0,3.426-2.6s-3.691-.344-4.483-3.235a5.353,5.353,0,0,0,4.083.3s-4.384-1.354-3.7-3.28c0,0,2.7.09,3.872-1.757,0,0-4.035,1.511-4.876-.671a8.448,8.448,0,0,0,3.868-3.694s-2.859,2.686-3.868.672l2.478-3.539-1.64.207-1.51-3.552.343,3.371s-2.474-.173-3.082-.869c-.078,1.19-.218,3.538.967,3.809,0,0-1.289,2.236-2.449-1.114a7.136,7.136,0,0,0,2.2,5.966s-.859.642-2.613-.979c0,0,.615,2.6,1.617,3.173a8.278,8.278,0,0,1-3.357,1.024s1.472,1,4.512-.226c0,0-2.6,3.258-4.738,3.366,0,0,.3,2.172,2.1,2.315,0,0-2.171.671-4.89-1.356,0,0,.645,3.345,7.371,3.177,0,0-1.117,1.061-4.089,1.2l3.08,1.484a11.979,11.979,0,0,1-5.981-.189s1.136,3.052,5.912,2.88c0,0,.685,2.22-4.751.856,0,0-.51,2.2,3.584,3.691,0,0-.457,1.048-2.973,1.186,0,0,1.2,1.533,4.555,1.172,0,0-4.308,3.254-8.211-3.255,0,0-1.74,3.913,3.9,6.509,0,0-.776,2.746-4.208.824,0,0-.4,3.283,5.312,5.129,0,0-.3,4.329-9.227.15,0,0-1.119,4.41,7.752,8.09,0,0-.839.685-6.324-.755l3.8,3.542a21.91,21.91,0,0,1-10.425-4.3.791.791,0,0,0-.382-.948,1.729,1.729,0,0,0-.845-.179c-.048-.051-.1-.1-.146-.153l2.475-1.833-2.723-.43a3.536,3.536,0,0,0,1.532-2.051,1.228,1.228,0,0,1-1.586-.522.953.953,0,0,1,.813-1.315,12.443,12.443,0,0,1-1.2-1.059,1.866,1.866,0,0,0,.653-1.02c.05-.409-.324-.878-.715-.751.588-.163.679-1.041.294-1.515a2.812,2.812,0,0,0-1.619-.78,1.182,1.182,0,0,0,1.27-1.087,1.066,1.066,0,0,0,0-.113.9.9,0,0,0-1.485-.5.86.86,0,0,0-.666-.922l.527-.734c-.411.091-.629-.57-.351-.886a1.536,1.536,0,0,1,1.171-.35,5.06,5.06,0,0,1-1.534-.975.81.81,0,0,0,.635-.572c-.594.02-.7-.847-.553-1.423.337-1.36-1.129-1.919-1.02-.669a2,2,0,0,0,.415.911l-.845.517a1.332,1.332,0,0,1,.331,1.209,2.014,2.014,0,0,0-1.761.61,1.484,1.484,0,0,0,1.195,1.013,1.558,1.558,0,0,0-.348,1.691c.2.459.614.819.706,1.309a2.511,2.511,0,0,1-.667,1.718c-.346.529-.607,1.272-.2,1.751a1.267,1.267,0,0,0-.633,1.676,1.23,1.23,0,0,0,.111.2c-.467.088-1.078.448-.848.863a.757.757,0,0,0,.325.267l1.726.94a27.531,27.531,0,0,0-3.96.82,1.668,1.668,0,0,0,1.628.819q-.318.344-.634.689a3.823,3.823,0,0,0-1.244,2.183.9.9,0,0,0,.426.909c-.145.546-1.216.232-1.406.765a.711.711,0,0,0,.05.476,6.586,6.586,0,0,0,1.413,2.294,2.116,2.116,0,0,0-1.85,1.3c-.2.772.815,1.652,1.4,1.1q-.395.681-.762,1.378l.963.676a12.251,12.251,0,0,0-1.572,1.6.557.557,0,0,1,.3.73.551.551,0,0,1-.179.229c.683-.132,1.2.6,1.443,1.249s.488,1.432,1.15,1.643a4.306,4.306,0,0,0-2.871,1.566,4.494,4.494,0,0,0,1.287.559l-.157.131h-1.875a3.377,3.377,0,0,0,1.178-2.889c-6.021,2.816-6.219-.1-6.219-.1,3.853-1.245,3.58-3.458,3.58-3.458-2.313,1.3-2.836-.555-2.836-.555,3.8-1.75,2.631-4.388,2.631-4.388-2.631,4.388-5.535,2.194-5.535,2.194,2.26.244,3.071-.79,3.071-.79-1.7-.093-2.005-.8-2.005-.8,2.76-1.006,2.417-2.487,2.417-2.487-3.665.919-3.2-.577-3.2-.577,3.22.116,3.985-1.942,3.985-1.942a8.081,8.081,0,0,1-4.033.128l2.077-1a4.447,4.447,0,0,1-2.755-.81c4.533.113,4.966-2.142,4.966-2.142a3.92,3.92,0,0,1-3.3.914c1.219-.1,1.419-1.561,1.419-1.561-1.443-.072-3.194-2.269-3.194-2.269,2.049.828,3.041.153,3.041.153a5.587,5.587,0,0,1-2.263-.691c.674-.389,1.089-2.139,1.089-2.139-1.182,1.093-1.761.661-1.761.661a4.812,4.812,0,0,0,1.481-4.022c-.781,2.258-1.65.751-1.65.751.8-.183.7-1.765.651-2.568-.409.47-2.077.586-2.077.586l.232-2.272-1.018,2.394-1.106-.139,1.67,2.385c-.68,1.358-2.606-.453-2.606-.453a5.7,5.7,0,0,0,2.606,2.49c-.566,1.471-3.286.453-3.286.453a3.225,3.225,0,0,0,2.611,1.184c.457,1.3-2.5,2.211-2.5,2.211a3.6,3.6,0,0,0,2.752-.2c-.534,1.948-3.023,2.181-3.023,2.181a5.179,5.179,0,0,0,2.311,1.755c-.681,1.245-4.416-.664-4.416-.664,2.952,3.183,4.331,3.69,4.331,3.69.254,1.555-4.1.014-4.1.014a4.456,4.456,0,0,0,3.4,2.551c-.9,1.064-3.676-.787-3.676-.787a8.207,8.207,0,0,0,3.328,3.57c-1.36,0-5.64-2.456-5.64-2.456.366,1.164,3.838,3.884,3.838,3.884-.555,1.2-2.173.117-2.173.117a7.616,7.616,0,0,0,3.408,3.548c-.453,1.018-3.7-.369-3.7-.369,1.857,3.253,3.81,3.311,3.81,3.311-.34,2.15-4.306.855-4.306.855a2.847,2.847,0,0,0,.4.551h-16.83c2-1.336,1.826-2.863,1.826-2.863-2.6,1.458-3.192-.625-3.192-.625,4.28-1.969,2.961-4.937,2.961-4.937-2.961,4.937-6.228,2.469-6.228,2.469,2.542.274,3.455-.889,3.455-.889-1.909-.105-2.255-.9-2.255-.9,3.1-1.133,2.718-2.8,2.718-2.8-4.123,1.034-3.6-.65-3.6-.65,3.624.131,4.485-2.184,4.485-2.184a9.1,9.1,0,0,1-4.536.144l2.336-1.126a5,5,0,0,1-3.1-.912c5.1.127,5.59-2.41,5.59-2.41a4.41,4.41,0,0,1-3.709,1.028c1.372-.108,1.6-1.756,1.6-1.756-1.623-.081-3.594-2.553-3.594-2.553,2.306.931,3.422.172,3.422.172a6.273,6.273,0,0,1-2.545-.777c.759-.438,1.226-2.407,1.226-2.407-1.33,1.23-1.982.743-1.982.743a5.419,5.419,0,0,0,1.667-4.525c-.879,2.541-1.857.845-1.857.845.9-.206.793-1.987.733-2.89-.461.529-2.337.66-2.337.66l.26-2.557-1.145,2.694-1.244-.157,1.878,2.684c-.766,1.528-2.933-.509-2.933-.509a6.413,6.413,0,0,0,2.933,2.8c-.638,1.656-3.7.51-3.7.51A3.637,3.637,0,0,0,388.2,118.7c.515,1.46-2.81,2.487-2.81,2.487a4.062,4.062,0,0,0,3.1-.227c-.6,2.192-3.4,2.454-3.4,2.454a5.826,5.826,0,0,0,2.6,1.975c-.764,1.4-4.967-.748-4.967-.748,3.321,3.582,4.873,4.153,4.873,4.153.287,1.75-4.61.015-4.61.015a5.007,5.007,0,0,0,3.824,2.871c-1.009,1.2-4.138-.885-4.138-.885a9.234,9.234,0,0,0,3.744,4.017c-1.53,0-6.346-2.764-6.346-2.764.412,1.31,4.32,4.371,4.32,4.371-.625,1.352-2.447.132-2.447.132.884,2.5,3.836,3.992,3.836,3.992-.51,1.146-4.16-.415-4.16-.415.193.338.387.636.581.915h-2.058c0-.02-.014-.032-.012-.053a1.242,1.242,0,0,1,.151-.349c.222-.512-.6-1.06-.987-.661l-.086.59-.478-.4a.784.784,0,0,1-1.3-.42l.628-.029a2.444,2.444,0,0,0-1-2.033l.377-.37a1.444,1.444,0,0,1-.465-.915c-.09.209-.18.417-.269.626a1.188,1.188,0,0,0-.922-.383,5.017,5.017,0,0,1,.043,1.493,1.147,1.147,0,0,0-1.192-.444,1.384,1.384,0,0,1,1.033-2.05,3.742,3.742,0,0,1-.736-.951l.737-.376a2.206,2.206,0,0,0,.32-1.741,1.088,1.088,0,0,1-1.506.315c-.02-.013-.039-.027-.058-.041l.019,1.262-.737.074a2.967,2.967,0,0,1-.042,1.718,1.415,1.415,0,0,0-1.106-.848.745.745,0,0,1-.4-.108.584.584,0,0,1-.152-.4q-.076-.672-.152-1.343a1.724,1.724,0,0,1,1.159.117,1.588,1.588,0,0,0,.588-1.09,1.449,1.449,0,0,1-.67-2.312l-1.984.947a6.325,6.325,0,0,0,.656-2.245c-.2-.171-.507.086-.568.345s-.023.556-.189.764-.506.237-.783.314-.569.353-.436.608a.647.647,0,0,1,.776.485v0a2.781,2.781,0,0,1-.478,1.816.647.647,0,0,1-.809.143c-.106-.076-.175-.194-.286-.264-.293-.189-.707.078-.8.415a1.693,1.693,0,0,0,.166,1.014l-.615.216.407,1.119.83-.355c.015.565.754.738,1.311.845s1.214.668.859,1.109l-.941-.074a1.532,1.532,0,0,1-.187.807,1.681,1.681,0,0,0-1.526-1.157.841.841,0,0,1-.077,1.348l1.152.483a.908.908,0,0,1-1.026.66,1.216,1.216,0,0,1-.922-.885c-.3.119.028.533.133.837.116.33-.116.671-.172,1.015s.327.787.571.538c0-.4.639-.509.912-.214a.943.943,0,0,1,.223.489h-5.413a5.244,5.244,0,0,0,1.307-1.51,18.418,18.418,0,0,1-3.27,1.51h-.221a5.136,5.136,0,0,0,2.029-2.213s-1.757,1.169-2.323.5a2.813,2.813,0,0,0,2.146-1.612s-2.749.974-2.588-.008a9.189,9.189,0,0,0,2.736-2.331s-2.36,1.206-2.789.419a3.266,3.266,0,0,0,1.459-1.109s-1.572-.147-1.909-1.377a2.277,2.277,0,0,0,1.738.127s-1.867-.576-1.578-1.4a2.038,2.038,0,0,0,1.649-.748s-1.718.643-2.076-.286a3.593,3.593,0,0,0,1.646-1.573s-1.217,1.144-1.646.286l1.054-1.507-.7.088-.642-1.512.145,1.435s-1.069-.078-1.311-.384c-.033.5-.1,1.52.411,1.636,0,0-.549.952-1.043-.474a3.038,3.038,0,0,0,.936,2.54s-.365.273-1.112-.417c0,0,.263,1.1.688,1.351a3.531,3.531,0,0,1-1.429.437s.627.426,1.921-.1c0,0-1.106,1.388-2.018,1.433,0,0,.127.925.9.986a2.474,2.474,0,0,1-2.082-.577s.274,1.424,3.138,1.353a2.81,2.81,0,0,1-1.741.511l1.312.633a5.1,5.1,0,0,1-2.547-.081s.484,1.3,2.518,1.226c0,0,.291.946-2.024.365,0,0-.217.935,1.526,1.571,0,0-.194.447-1.265.505a1.236,1.236,0,0,0,.425.3h-1a4.519,4.519,0,0,1-.983-1.189,1.753,1.753,0,0,0-.01,1.189h-3.812a2.075,2.075,0,0,0,.311-.375s-1.572-.147-1.909-1.377a2.279,2.279,0,0,0,1.739.127s-1.868-.576-1.579-1.4a2.037,2.037,0,0,0,1.649-.748s-1.717.643-2.076-.286a3.6,3.6,0,0,0,1.647-1.573s-1.217,1.144-1.647.286l1.055-1.507-.7.088-.643-1.512.146,1.435s-1.069-.078-1.311-.384c-.034.5-.1,1.52.41,1.636,0,0-.549.952-1.042-.474a3.041,3.041,0,0,0,.936,2.54s-.366.273-1.113-.417c0,0,.263,1.1.688,1.351a3.526,3.526,0,0,1-1.429.437s.627.426,1.922-.1c0,0-1.106,1.388-2.018,1.433a1.375,1.375,0,0,0,.442.813h-.924a3.283,3.283,0,0,1-.7-.4,1.121,1.121,0,0,0,.206.4H344.8v-.022a1.717,1.717,0,0,0-.557-.979l-.285-.309a.749.749,0,0,0,.731-.368,12.662,12.662,0,0,0-1.776-.367l.774-.422a.341.341,0,0,0,.146-.12c.1-.186-.172-.347-.381-.386a.569.569,0,0,0-.147-.791.587.587,0,0,0-.088-.05c.185-.215.068-.548-.087-.785a1.123,1.123,0,0,1-.3-.771c.041-.219.229-.381.316-.586a.7.7,0,0,0-.156-.759.664.664,0,0,0,.536-.454.9.9,0,0,0-.789-.274.6.6,0,0,1,.148-.542l-.379-.232a.887.887,0,0,0,.187-.408c.049-.561-.609-.31-.458.3.064.259.02.648-.248.639a.36.36,0,0,0,.286.256,2.3,2.3,0,0,1-.688.438.683.683,0,0,1,.524.157c.125.141.027.438-.157.4l.236.329a.388.388,0,0,0-.3.414.4.4,0,0,0-.666.226.532.532,0,0,0,.524.539.377.377,0,0,0,.047,0,1.256,1.256,0,0,0-.725.35c-.173.212-.132.606.131.679-.175-.056-.344.154-.321.337a.834.834,0,0,0,.293.458,5.377,5.377,0,0,1-.537.475.427.427,0,0,1,.4.455.416.416,0,0,1-.032.135.55.55,0,0,1-.711.234,1.579,1.579,0,0,0,.687.919l-1.222.193.943.7h-3.15c1.367-.871,1.246-1.891,1.246-1.891-1.675.939-2.054-.4-2.054-.4,2.755-1.268,1.906-3.179,1.906-3.179-1.906,3.179-4.009,1.59-4.009,1.59a2.444,2.444,0,0,0,2.224-.573c-1.229-.067-1.452-.579-1.452-.579,2-.729,1.75-1.8,1.75-1.8-2.655.666-2.32-.418-2.32-.418,2.332.084,2.887-1.406,2.887-1.406a5.853,5.853,0,0,1-2.921.092l1.5-.725a3.216,3.216,0,0,1-2-.586c3.285.082,3.6-1.552,3.6-1.552a2.835,2.835,0,0,1-2.387.662c.883-.07,1.027-1.13,1.027-1.13-1.045-.053-2.313-1.644-2.313-1.644,1.484.6,2.2.111,2.2.111a4.038,4.038,0,0,1-1.639-.5c.489-.282.79-1.549.79-1.549-.856.791-1.276.478-1.276.478a3.485,3.485,0,0,0,1.075-2.913c-.567,1.636-1.2.544-1.2.544.583-.133.509-1.3.471-1.876-.277.351-1.5.44-1.5.44l.168-1.646-.736,1.735-.8-.1,1.209,1.728c-.493.983-1.888-.328-1.888-.328a4.124,4.124,0,0,0,1.888,1.8c-.41,1.066-2.381.328-2.381.328a2.339,2.339,0,0,0,1.892.858c.331.94-1.81,1.6-1.81,1.6a2.611,2.611,0,0,0,1.994-.146c-.386,1.412-2.189,1.58-2.189,1.58a3.745,3.745,0,0,0,1.673,1.272c-.492.9-3.2-.482-3.2-.482,2.138,2.306,3.136,2.674,3.136,2.674.186,1.126-2.967.01-2.967.01a3.224,3.224,0,0,0,2.462,1.848c-.65.77-2.664-.57-2.664-.57a5.94,5.94,0,0,0,2.41,2.586c-.985,0-4.086-1.78-4.086-1.78.266.844,2.783,2.814,2.783,2.814-.4.87-1.576.085-1.576.085a5.509,5.509,0,0,0,2.47,2.57c-.329.738-2.679-.267-2.679-.267.138.24.275.442.413.637h-4.15a5.949,5.949,0,0,0,2.434-2.879c-.262.471-1.284,1.623-5.231,2.54a10.282,10.282,0,0,0,3.526-4.394s-2.372,1.86-4.374,1.534c0,0,2.241-1.049,2.508-2.921,0,0-3.6,2.7-5.223,1.378,0,0,3.062-.508,3.87-2.437,0,0-3.159,1.015-4.074.609,0,0,3.15-.6,4.067-2.279,0,0-3.559,1.162-3.863-.767,0,0,1.752-.053,3.418-2.971,0,0-2.91,1.245-3.317.331a6.823,6.823,0,0,0,3.058-3.183s-1.453.972-1.95-.106c0,0,3.116-2.44,3.444-3.485,0,0-3.84,2.2-5.061,2.2a7.375,7.375,0,0,0,2.986-3.2s-2.494,1.661-3.3.706a4,4,0,0,0,3.049-2.289s-3.9,1.383-3.676-.012c0,0,1.238-.455,3.886-3.312,0,0-3.352,1.713-3.962.6a4.635,4.635,0,0,0,2.072-1.576s-2.233-.208-2.712-1.956a3.241,3.241,0,0,0,2.47.181s-2.65-.819-2.241-1.984a2.9,2.9,0,0,0,2.343-1.063s-2.441.914-2.949-.406a5.1,5.1,0,0,0,2.339-2.234s-1.729,1.625-2.339.407l1.5-2.14-.992.125-.913-2.149.208,2.039s-1.5-.1-1.864-.526c-.048.72-.132,2.14.584,2.3,0,0-.779,1.353-1.48-.674a4.316,4.316,0,0,0,1.329,3.609s-.52.388-1.58-.593c0,0,.372,1.57.977,1.92a5,5,0,0,1-2.03.619s.89.606,2.729-.137c0,0-1.571,1.971-2.866,2.036,0,0,.179,1.314,1.272,1.4a3.509,3.509,0,0,1-2.956-.82s.389,2.024,4.457,1.922a3.985,3.985,0,0,1-2.473.727l1.862.9a7.248,7.248,0,0,1-3.618-.115s.687,1.846,3.576,1.742c0,0,.416,1.343-2.874.518,0,0-.308,1.329,2.168,2.232,0,0-.276.634-1.8.718,0,0,.727.927,2.755.708,0,0-2.6,1.968-4.966-1.968,0,0-1.052,2.366,2.361,3.936,0,0-.471,1.661-2.545.5,0,0-.246,1.985,3.212,3.1,0,0-.16,2.12-4.16.678v-3.223c-1.479,2.524-4.945,2.874-4.945,2.874l1.394-1.3c-2.012.528-2.319.277-2.319.277,3.253-1.35,2.843-2.967,2.843-2.967-3.276,1.533-3.384-.054-3.384-.054,2.1-.678,1.948-1.881,1.948-1.881-1.259.7-1.543-.3-1.543-.3,2.069-.951,1.431-2.385,1.431-2.385-1.431,2.385-3.011,1.193-3.011,1.193a1.839,1.839,0,0,0,1.671-.43c-.923-.05-1.091-.435-1.091-.435,1.5-.547,1.315-1.353,1.315-1.353-1.994.5-1.743-.314-1.743-.314,1.752.063,2.169-1.056,2.169-1.056a4.42,4.42,0,0,1-2.194.069l1.129-.544a2.425,2.425,0,0,1-1.5-.441c2.466.062,2.7-1.166,2.7-1.166a2.129,2.129,0,0,1-1.793.5c.663-.052.771-.849.771-.849-.785-.039-1.737-1.234-1.737-1.234,1.115.451,1.654.083,1.654.083a3.038,3.038,0,0,1-1.231-.375c.368-.212.593-1.164.593-1.164-.643.594-.958.36-.958.36a2.623,2.623,0,0,0,.806-2.188c-.425,1.229-.9.409-.9.409.442-.1.383-.98.354-1.409-.208.263-1.129.33-1.129.33l.125-1.235-.553,1.3-.6-.076.909,1.3c-.37.738-1.418-.248-1.418-.248a3.1,3.1,0,0,0,1.418,1.356c-.309.8-1.788.246-1.788.246a1.757,1.757,0,0,0,1.42.644c.249.706-1.358,1.2-1.358,1.2a1.969,1.969,0,0,0,1.5-.11c-.29,1.06-1.644,1.187-1.644,1.187a2.826,2.826,0,0,0,1.256.955c-.37.677-2.4-.362-2.4-.362a7.923,7.923,0,0,0,2.356,2.008c.139.846-2.229.007-2.229.007a2.425,2.425,0,0,0,1.849,1.388c-.488.579-2-.429-2-.429a4.461,4.461,0,0,0,1.811,1.942,12.374,12.374,0,0,1-3.069-1.336c.2.634,2.089,2.113,2.089,2.113-.3.654-1.183.064-1.183.064a4.139,4.139,0,0,0,1.854,1.93c-.246.554-2.011-.2-2.011-.2,1.011,1.77,2.073,1.8,2.073,1.8-.185,1.17-2.342.466-2.342.466.555,1.019,2.465,1.381,2.465,1.381-.555.247-2.469-.369-2.469-.369.488,1.17,2.346,1.478,2.346,1.478-.987.8-3.167-.836-3.167-.836.163,1.135,1.521,1.772,1.521,1.772a4.228,4.228,0,0,1-2.652-.931,5.964,5.964,0,0,0,1.855,2.449c-.065.033-.13.063-.2.1a7.377,7.377,0,0,1-2.034-.808l.116-.108-.206.052a1.849,1.849,0,0,1-.539-.507,3.756,3.756,0,0,0,.3.568c-2.994.74-3.473.355-3.473.355,5.5-2.282,4.807-5.015,4.807-5.015-5.538,2.591-5.721-.093-5.721-.093,3.544-1.145,3.293-3.18,3.293-3.18-2.128,1.192-2.609-.511-2.609-.511,3.5-1.609,2.42-4.036,2.42-4.036-2.42,4.036-5.091,2.018-5.091,2.018,2.08.225,2.825-.726,2.825-.726-1.56-.086-1.843-.736-1.843-.736,2.539-.926,2.223-2.288,2.223-2.288-3.371.846-2.946-.531-2.946-.531,2.961.107,3.665-1.786,3.665-1.786a7.442,7.442,0,0,1-3.708.118l1.909-.92a4.1,4.1,0,0,1-2.535-.745c4.17.1,4.57-1.97,4.57-1.97a3.614,3.614,0,0,1-3.032.84c1.121-.089,1.3-1.435,1.3-1.435-1.328-.067-2.938-2.087-2.938-2.087,1.885.761,2.8.14,2.8.14a5.154,5.154,0,0,1-2.081-.635c.621-.358,1-1.968,1-1.968-1.088,1.006-1.621.608-1.621.608a4.429,4.429,0,0,0,1.363-3.7c-.72,2.077-1.518.69-1.518.69.733-.168.647-1.624.6-2.362-.376.432-1.911.539-1.911.539l.212-2.089-.936,2.2-1.017-.128,1.536,2.193c-.625,1.25-2.4-.416-2.4-.416a5.242,5.242,0,0,0,2.4,2.289c-.521,1.353-3.022.416-3.022.416a2.97,2.97,0,0,0,2.4,1.09c.421,1.194-2.3,2.033-2.3,2.033a3.317,3.317,0,0,0,2.533-.185c-.492,1.792-2.781,2.006-2.781,2.006a4.763,4.763,0,0,0,2.125,1.615c-.626,1.145-4.061-.611-4.061-.611,2.714,2.928,3.983,3.395,3.983,3.395.234,1.43-3.768.012-3.768.012a4.092,4.092,0,0,0,3.125,2.346c-.825.978-3.382-.724-3.382-.724a7.548,7.548,0,0,0,3.061,3.284c-1.252,0-5.189-2.26-5.189-2.26.338,1.072,3.532,3.573,3.532,3.573-.51,1.1-2,.108-2,.108a7.008,7.008,0,0,0,3.135,3.263c-.416.937-3.4-.339-3.4-.339a10.013,10.013,0,0,0,.608.942,1.293,1.293,0,0,1-.638-.468,1.061,1.061,0,0,1-1.149.913q-.012-.8-.024-1.594l-.831.353a.53.53,0,0,0-.278-.7.629.629,0,0,0-.112-.034,2.306,2.306,0,0,0-.3-1.6q-.156.567-.313,1.13a2.18,2.18,0,0,0-1.184-.138,1.294,1.294,0,0,1,0,1.761,3.5,3.5,0,0,1,1.09-.4c-.249.321.087.77.431.986s.775.467.761.872l-2.051-.219a.668.668,0,0,1,.036-.58,2.46,2.46,0,0,0-2.249-.425,1.847,1.847,0,0,0,.976.489c-.133.571.464,1.028.99,1.29s1.147.642,1.11,1.227a1.192,1.192,0,0,1-1.576-.6,1.214,1.214,0,0,1-.08-.25.832.832,0,0,0-.33,1.48,2.1,2.1,0,0,0-.573.78,1.44,1.44,0,0,1,1.311,1.211h-.949l-.176-.623a.4.4,0,0,0-.522.219.389.389,0,0,0-.03.139,1.009,1.009,0,0,0-1.155-.618.575.575,0,0,1,.131.99,1.337,1.337,0,0,0,.714.365l.027.934.988.227-1.088.465a4.224,4.224,0,0,1,.458,1.03,15.423,15.423,0,0,1-2.151-1.868,1.6,1.6,0,0,1-.964.441.84.84,0,0,0-.381-.584.592.592,0,0,0-.269-.792,1.732,1.732,0,0,0-.921-.132l2.054-1.521-2.079-.327a2.7,2.7,0,0,0,1.17-1.566.938.938,0,0,1-1.211-.4.729.729,0,0,1,.62-1,9.45,9.45,0,0,1-.913-.808,1.434,1.434,0,0,0,.5-.779c.038-.312-.248-.67-.547-.573.449-.124.518-.8.225-1.157a2.156,2.156,0,0,0-1.235-.6.9.9,0,0,0,.969-.824q0-.045,0-.09a.686.686,0,0,0-1.134-.386.656.656,0,0,0-.508-.7l.4-.56c-.314.069-.48-.436-.269-.677a1.176,1.176,0,0,1,.895-.267,3.832,3.832,0,0,1-1.171-.745.613.613,0,0,0,.484-.436c-.454.015-.531-.647-.421-1.087.257-1.037-.863-1.464-.78-.51a1.537,1.537,0,0,0,.317.7l-.644.395a1.016,1.016,0,0,1,.252.923,1.54,1.54,0,0,0-1.343.466,1.132,1.132,0,0,0,.911.773,1.19,1.19,0,0,0-.264,1.291c.148.35.467.625.538,1a1.924,1.924,0,0,1-.508,1.312c-.266.4-.464.97-.149,1.336a.969.969,0,0,0-.486,1.279.932.932,0,0,0,.086.151c-.356.067-.822.342-.647.659a.571.571,0,0,0,.248.2l1.318.719a21.035,21.035,0,0,0-3.023.625,1.27,1.27,0,0,0,1.242.625l-.483.527a2.918,2.918,0,0,0-.95,1.666.683.683,0,0,0,.326.693c-.111.418-.929.178-1.074.585a.541.541,0,0,0,.038.363,5.015,5.015,0,0,0,1.079,1.751,1.618,1.618,0,0,0-1.413.992c-.154.589.623,1.261,1.067.844q-.3.519-.581,1.051l.736.517a9.346,9.346,0,0,0-1.2,1.219.426.426,0,0,1,.224.56.414.414,0,0,1-.135.172.912.912,0,0,1,.9.534h-3.677c.148-.085.3-.17.444-.254l-.973-.812a1.962,1.962,0,0,0,.577-.25,1.938,1.938,0,0,0-1.288-.7c.3-.094.409-.444.516-.736s.342-.62.648-.561a.25.25,0,0,1,.052-.43,5.358,5.358,0,0,0-.705-.716l.432-.3q-.164-.312-.341-.618c.262.245.718-.149.627-.5a.949.949,0,0,0-.83-.582,2.937,2.937,0,0,0,.634-1.029.319.319,0,0,0,.023-.213c-.086-.239-.566-.1-.632-.344a.4.4,0,0,0,.192-.407,1.712,1.712,0,0,0-.558-.979l-.284-.309a.749.749,0,0,0,.73-.368,12.665,12.665,0,0,0-1.776-.367l.774-.422a.333.333,0,0,0,.145-.12c.1-.186-.17-.347-.38-.387a.567.567,0,0,0-.144-.789.653.653,0,0,0-.09-.051c.185-.215.067-.548-.088-.785a1.134,1.134,0,0,1-.3-.771c.042-.219.229-.381.316-.587a.7.7,0,0,0-.155-.758.664.664,0,0,0,.535-.454.9.9,0,0,0-.789-.274.6.6,0,0,1,.149-.542l-.379-.232a.889.889,0,0,0,.186-.409c.049-.56-.608-.31-.458.3.064.259.019.648-.248.638a.362.362,0,0,0,.286.257,2.272,2.272,0,0,1-.688.437.7.7,0,0,1,.525.157c.124.142.026.438-.158.4.079.109.158.219.236.329a.387.387,0,0,0-.3.413.4.4,0,0,0-.666.227.529.529,0,0,0,.519.539.444.444,0,0,0,.052,0,2.61,2.61,0,0,0-.292.087,3.087,3.087,0,0,0-1.3-1.061q-.066.327-.135.654a3.976,3.976,0,0,0-1.384-.743,2.5,2.5,0,0,1-.458,1.54,1.118,1.118,0,0,0-2.1.71c-.363-.036-.443-.535-.358-.888s.22-.773-.024-1.042c-.175-.193-.479-.214-.672-.39-.339-.31-.111-.929.3-1.128a2.155,2.155,0,0,1,1.354-.019,1.1,1.1,0,0,0-.851-1.3,1.122,1.122,0,0,0-.258-.023.581.581,0,0,0-.263-.994c-.3-.033-.564.175-.843.289s-.7.062-.75-.234c-.084-.478.776-.466,1.051-.866a.953.953,0,0,1-.359-.735l2.207-.232a2.645,2.645,0,0,1-.36-1.631c.069-.631.349-1.33-.011-1.853l-.958.549c-.047-.25-.1-.5-.142-.751a.684.684,0,0,1-.676-.181.642.642,0,0,0,.153-.895.727.727,0,0,0-.113-.122,3.817,3.817,0,0,0-.424-.2c-.6-.324-.657-1.151-.633-1.834a2.918,2.918,0,0,0-1.657,1.276l-.527-.875c-.312.177-.263.65-.082.96a2.337,2.337,0,0,1,.477.948c.022.357-.458.712-.685.435-.368.159-.268.767.08.963a1.649,1.649,0,0,0,1.172.02q.176.74.351,1.479a.487.487,0,0,1,0,.32c-.151.315-.8.1-.882.442q-.216-.7-.433-1.394a.687.687,0,0,0-.628.741.65.65,0,0,0,.028.146,2.284,2.284,0,0,0-1.234-1.149.783.783,0,0,0,.7-.857v0a1.212,1.212,0,0,1-2.028-1.042.637.637,0,0,0-.666.322,1.342,1.342,0,0,1,.72,1.561,1.732,1.732,0,0,1,.97.176.6.6,0,0,1,.228.809c-.009.015-.018.03-.028.044l-.66-.308a1.273,1.273,0,0,0,.305,1.118,1.062,1.062,0,0,0-.873.555,3,3,0,0,1,1.713.082l-.354.624a1.666,1.666,0,0,1,.866.11.568.568,0,0,1,.288.734c-.216.373-.783.2-1.164,0s-.986-.308-1.131.1l.366-1.053-1.3.3a16.915,16.915,0,0,0-.067-1.729c-.332-.1-.391.442-.377.789a1.468,1.468,0,0,1-.869,1.375l1.261.041a2.541,2.541,0,0,0,.019,1.267,2.251,2.251,0,0,0-1.587.508,2.628,2.628,0,0,1,1.387.687,14.411,14.411,0,0,0-2.144.615,2.471,2.471,0,0,0,.059-1.065c-.12.057-.223.1-.339.148,0-.149-.009-.3,0-.446a5.653,5.653,0,0,1-.308.581c-5.941,2.566-6.162-.393-6.162-.393,4.221-1.364,3.921-3.787,3.921-3.787-2.533,1.419-3.107-.608-3.107-.608,4.166-1.917,2.883-4.805,2.883-4.805-2.883,4.805-6.063,2.4-6.063,2.4,2.475.267,3.363-.865,3.363-.865-1.857-.1-2.195-.876-2.195-.876,3.023-1.1,2.646-2.724,2.646-2.724-4.013,1.007-3.507-.632-3.507-.632,3.526.127,4.364-2.126,4.364-2.126a8.854,8.854,0,0,1-4.415.14l2.274-1.1a4.878,4.878,0,0,1-3.019-.887c4.965.124,5.441-2.346,5.441-2.346a4.291,4.291,0,0,1-3.61,1c1.335-.106,1.553-1.709,1.553-1.709-1.58-.079-3.5-2.485-3.5-2.485,2.245.906,3.331.167,3.331.167a6.119,6.119,0,0,1-2.478-.756c.739-.427,1.194-2.343,1.194-2.343-1.3,1.2-1.93.724-1.93.724a5.266,5.266,0,0,0,1.623-4.4c-.856,2.473-1.807.822-1.807.822.874-.2.772-1.933.713-2.812-.449.514-2.274.642-2.274.642l.253-2.488-1.114,2.622-1.212-.153,1.829,2.612c-.744,1.487-2.854-.5-2.854-.5a6.234,6.234,0,0,0,2.854,2.727c-.62,1.611-3.6.5-3.6.5a3.536,3.536,0,0,0,2.859,1.3c.5,1.421-2.736,2.421-2.736,2.421a3.955,3.955,0,0,0,3.016-.221c-.585,2.134-3.31,2.388-3.31,2.388a5.66,5.66,0,0,0,2.529,1.923c-.745,1.363-4.835-.728-4.835-.728,3.231,3.486,4.742,4.042,4.742,4.042.279,1.7-4.486.015-4.486.015a4.876,4.876,0,0,0,3.722,2.794c-.982,1.165-4.027-.862-4.027-.862a8.983,8.983,0,0,0,3.644,3.91c-1.489,0-6.177-2.69-6.177-2.69.4,1.275,4.2,4.254,4.2,4.254-.607,1.315-2.38.128-2.38.128.859,2.436,3.732,3.886,3.732,3.886-.5,1.115-4.048-.4-4.048-.4,2.034,3.562,4.172,3.626,4.172,3.626-.372,2.355-4.715.937-4.715.937,1.119,2.052,4.964,2.781,4.964,2.781-1.118.5-4.972-.743-4.972-.743.985,2.354,4.723,2.974,4.723,2.974-1.985,1.611-6.375-1.682-6.375-1.682.327,2.285,3.062,3.566,3.062,3.566-2.444.4-5.338-1.873-5.338-1.873a12.538,12.538,0,0,0,4.3,5.364c-4.093-.951-5.606-2.108-6.166-2.789V123.619c-2.679,4.57-8.954,5.2-8.954,5.2l2.522-2.352c-3.641.956-4.2.5-4.2.5,5.891-2.443,5.148-5.371,5.148-5.371-5.931,2.774-6.126-.1-6.126-.1,3.795-1.227,3.526-3.406,3.526-3.406-2.278,1.276-2.794-.547-2.794-.547,3.747-1.724,2.591-4.322,2.591-4.322-2.591,4.322-5.452,2.161-5.452,2.161,2.226.24,3.025-.778,3.025-.778-1.671-.092-1.974-.787-1.974-.787,2.718-.992,2.379-2.451,2.379-2.451-3.609.906-3.154-.568-3.154-.568,3.171.114,3.925-1.912,3.925-1.912a7.963,7.963,0,0,1-3.971.126l2.045-.986a4.375,4.375,0,0,1-2.714-.8c4.465.112,4.892-2.109,4.892-2.109a3.861,3.861,0,0,1-3.246.9c1.2-.1,1.4-1.537,1.4-1.537-1.422-.072-3.147-2.235-3.147-2.235,2.018.815,3,.151,3,.151a5.493,5.493,0,0,1-2.229-.681c.665-.384,1.073-2.107,1.073-2.107-1.164,1.077-1.734.651-1.734.651a4.739,4.739,0,0,0,1.459-3.961c-.77,2.224-1.625.739-1.625.739.786-.18.694-1.739.641-2.529-.4.463-2.046.577-2.046.577l.228-2.238-1,2.359-1.089-.138,1.645,2.349c-.669,1.338-2.567-.445-2.567-.445a5.608,5.608,0,0,0,2.567,2.452c-.559,1.449-3.237.446-3.237.446a3.179,3.179,0,0,0,2.572,1.166c.451,1.279-2.46,2.178-2.46,2.178a3.557,3.557,0,0,0,2.711-.2c-.526,1.919-2.978,2.148-2.978,2.148a5.093,5.093,0,0,0,2.275,1.729c-.669,1.226-4.349-.655-4.349-.655,2.906,3.136,4.265,3.635,4.265,3.635.252,1.532-4.034.014-4.034.014a4.385,4.385,0,0,0,3.346,2.512c-.883,1.048-3.622-.775-3.622-.775a8.085,8.085,0,0,0,3.278,3.517c-1.339,0-5.555-2.42-5.555-2.42.36,1.148,3.781,3.826,3.781,3.826-.546,1.184-2.141.116-2.141.116a7.5,7.5,0,0,0,3.357,3.494c-.446,1-3.64-.363-3.64-.363,1.828,3.2,3.752,3.261,3.752,3.261-.335,2.118-4.241.842-4.241.842,1.005,1.846,4.464,2.5,4.464,2.5-1,.446-4.472-.669-4.472-.669a2.97,2.97,0,0,0,.2.381,26.115,26.115,0,0,0-2.632-.649l.8-.72-1.432-.4a1.339,1.339,0,0,0,.793-.859l-.594-.22a1.282,1.282,0,0,0,.646-.571,6.158,6.158,0,0,1-1.689-.317l.809-.462-1.712-1.464a3.62,3.62,0,0,0,1.044-.453,3.491,3.491,0,0,0-2.328-1.27c.538-.171.739-.8.934-1.332s.617-1.12,1.17-1.013a.453.453,0,0,1,.094-.777,9.922,9.922,0,0,0-1.273-1.295l.781-.549q-.3-.564-.617-1.117c.472.443,1.3-.27,1.134-.9a1.72,1.72,0,0,0-1.5-1.053,5.345,5.345,0,0,0,1.146-1.86.581.581,0,0,0,.04-.385c-.153-.433-1.022-.178-1.14-.621a.728.728,0,0,0,.345-.737,3.1,3.1,0,0,0-1.008-1.77l-.514-.559a1.354,1.354,0,0,0,1.321-.664,22.535,22.535,0,0,0-3.211-.664l1.4-.763a.622.622,0,0,0,.263-.216c.186-.337-.309-.629-.687-.7a1.028,1.028,0,0,0-.265-1.429,1.044,1.044,0,0,0-.159-.09c.334-.389.122-.991-.159-1.419a2.04,2.04,0,0,1-.54-1.394c.074-.4.413-.689.572-1.061a1.266,1.266,0,0,0-.281-1.371,1.2,1.2,0,0,0,.968-.821,1.633,1.633,0,0,0-1.428-.5,1.079,1.079,0,0,1,.269-.98l-.685-.419a1.626,1.626,0,0,0,.337-.739c.089-1.013-1.1-.56-.828.542.117.468.034,1.171-.447,1.154a.649.649,0,0,0,.514.464,4.145,4.145,0,0,1-1.244.791,1.245,1.245,0,0,1,.95.283c.225.256.048.792-.285.719l.428.6a.7.7,0,0,0-.541.747.728.728,0,0,0-1.2.41.958.958,0,0,0,.943.973l.09,0a2.278,2.278,0,0,0-1.312.633c-.312.384-.238,1.1.238,1.228-.317-.1-.621.278-.58.609a1.512,1.512,0,0,0,.53.827,10.255,10.255,0,0,1-.97.858.775.775,0,0,1,.659,1.067,1,1,0,0,1-1.286.423,2.865,2.865,0,0,0,1.242,1.663l-2.208.348,2.181,1.616a1.832,1.832,0,0,0-.978.139.629.629,0,0,0-.285.842.927.927,0,0,0-.271,1.284.276.276,0,0,0,.019.028c-.474-.15-1.145-.212-1.319.253-.2.54.548.913,1.119,1a2.546,2.546,0,0,0-1.407,1.46,1.268,1.268,0,0,1,.482.408,22.954,22.954,0,0,1-8.889,3.155l3.835-3.576c-5.536,1.454-6.384.762-6.384.762,8.956-3.715,7.825-8.166,7.825-8.166-9.016,4.218-9.313-.151-9.313-.151,5.77-1.864,5.362-5.178,5.362-5.178-3.465,1.94-4.249-.832-4.249-.832,5.7-2.621,3.941-6.571,3.941-6.571-3.941,6.571-8.29,3.286-8.29,3.286,3.385.365,4.6-1.183,4.6-1.183-2.54-.14-3-1.2-3-1.2,4.135-1.507,3.619-3.725,3.619-3.725-5.488,1.377-4.8-.864-4.8-.864,4.821.174,5.968-2.908,5.968-2.908a12.111,12.111,0,0,1-6.038.191l3.109-1.5c-3-.142-4.128-1.213-4.128-1.213,6.79.169,7.44-3.208,7.44-3.208-2.744,2.047-4.935,1.369-4.935,1.369,1.824-.144,2.124-2.337,2.124-2.337-2.162-.109-4.784-3.4-4.784-3.4,3.069,1.239,4.555.229,4.555.229a8.369,8.369,0,0,1-3.389-1.035c1.011-.583,1.632-3.2,1.632-3.2-1.77,1.636-2.638.989-2.638.989a7.2,7.2,0,0,0,2.219-6.023c-1.17,3.382-2.471,1.125-2.471,1.125,1.2-.274,1.055-2.644.976-3.846-.614.7-3.111.878-3.111.878l.346-3.4-1.523,3.586-1.657-.209,2.5,3.572c-1.018,2.034-3.9-.678-3.9-.678a8.533,8.533,0,0,0,3.9,3.728c-.848,2.2-4.922.678-4.922.678,1.189,1.865,3.91,1.774,3.91,1.774.685,1.944-3.74,3.311-3.74,3.311a5.408,5.408,0,0,0,4.123-.3c-.8,2.918-4.526,3.266-4.526,3.266a7.734,7.734,0,0,0,3.458,2.629c-1.018,1.865-6.612-1-6.612-1,4.419,4.768,6.485,5.527,6.485,5.527.382,2.329-6.135.02-6.135.02,2.054,3.7,5.088,3.821,5.088,3.821-1.343,1.594-5.506-1.178-5.506-1.178a12.3,12.3,0,0,0,4.983,5.347c-2.037,0-8.447-3.679-8.447-3.679.549,1.744,5.749,5.817,5.749,5.817-.83,1.8-3.255.176-3.255.176,1.175,3.33,5.1,5.312,5.1,5.312-.679,1.525-5.535-.552-5.535-.552,2.78,4.871,5.705,4.959,5.705,4.959-.509,3.22-6.448,1.28-6.448,1.28,1.53,2.806,6.789,3.8,6.789,3.8-1.529.678-6.8-1.017-6.8-1.017,1.347,3.22,6.459,4.067,6.459,4.067-2.716,2.2-8.718-2.3-8.718-2.3.448,3.124,4.187,4.876,4.187,4.876-3.342.543-7.3-2.561-7.3-2.561,1.578,4.421,5.885,7.334,5.885,7.334-6.591-1.53-8.3-3.453-8.731-4.24a9.755,9.755,0,0,0,6.021,5.7c0,1.017-2.984.164-2.984.164,1.429,3.046,3.833,3.062,3.833,3.062v1.634c-1.584,1.635-2.623,4.171-4.861,4.386l.815-5.811a8.428,8.428,0,0,1-4.134.93,16.712,16.712,0,0,1,2.615-3.6,7.057,7.057,0,0,0-3.691-.5,16.848,16.848,0,0,0-.509-5.629,5.867,5.867,0,0,0-.845,6.993l-4.077-.811c1.86.37-2.112,2.714-2.017,2.659-1.365.788-3.377-1.328-3.282,1.5-.462-.242-.917-.458-1.365-.654l-.185-1.842s5.958-1.643,9.147-9.027c0,0-4.225,5.453-9.762,3.673,0,0,4.367-1.633,5.468-5.83,0,0-2.261,3.06-8.931,2.336,0,0,4.488-.82,5.994-4.941,0,0-3.093,2.719-5.907,1.314a10.893,10.893,0,0,0,5.724-3.842s-6.851,1.78-8.164-1.687c0,0,6.669-3.172,7.229-5.9a6.06,6.06,0,0,1-7.135,1.211s5.826-4.224,6.479-7.547c0,0-3.476,2.393-5.354.8,0,0,6.424-3.513,7.763-8.034,0,0-4.573,4-8.325,3.912,0,0,3.923-2.878,4.636-6.218,0,0-2.409,3.384-7.559,1.474,0,0,5.55-1.441,7.332-5.283,0,0-3.565,2.437-7.038,1.781,0,0,2.178-.814,2.544-2.187,0,0-2.544,1.437-4.327.875,0,0,6.19-2.524,9.148-6.509,0,0-6.52,3.229-8.679-.05,0,0,2.083.711,4-2.175,0,0-2.318,1.592-4.425.1A23.486,23.486,0,0,0,113.4,74.6s-3.773-1.567-4.561-3.5c0,0,3.385,1.763,4.817,1.555a4.718,4.718,0,0,1-1.2-2.645l-2.029-.656s3.343-.562,4.751-4.873c0,0-2.9,2.823-5.484,2.63a33.273,33.273,0,0,0,2.293-2.817l-2.815-2.717s3.378-2.437,3.847-3.561c0,0-2.533,1.78-1.5-2.717,0,0-1.751,3.161-1.673.269,0,0-2.644,3.666-2.456,1.511l1.155-4.561L106.635,53.7l-.938-3.749a4.775,4.775,0,0,1-2.327,4.381s.825,1.991,1.67,1.429c0,0-1.407,3.467-3.754,3.654,0,0,.845,2.343,3.1,2.156,0,0-2.583,6.584-5.045,6.9l2.163,2.76a6.629,6.629,0,0,1-8.2-.449s1.024,8.693,4.5,12.251c0,0-2.9,4.026-8.063.653l-1.53.44c.545-.507,1.169-1.126,1.884-1.9,0,0-4.036,2.063-4.77.718a5.581,5.581,0,0,0,2.5-1.9s-2.689-.251-3.267-2.356a3.907,3.907,0,0,0,2.975.218s-3.192-.986-2.7-2.388a3.489,3.489,0,0,0,2.821-1.28s-2.939,1.1-3.551-.489a6.154,6.154,0,0,0,2.816-2.69s-2.082,1.956-2.816.489l1.8-2.577-1.2.15-1.1-2.586.25,2.454s-1.8-.125-2.244-.633c-.058.867-.159,2.577.7,2.775,0,0-.939,1.628-1.784-.812a5.2,5.2,0,0,0,1.6,4.346s-.626.467-1.9-.714c0,0,.448,1.89,1.177,2.311a6.042,6.042,0,0,1-2.445.747s1.072.728,3.286-.166c0,0-1.892,2.374-3.451,2.452,0,0,.216,1.582,1.532,1.686A4.237,4.237,0,0,1,76.765,81s.221,1.137,1.924,1.818c-.7.511-6.1,4.3-8.638,2.242,0,0,5.111-.847,6.459-4.068,0,0-5.272,1.7-6.8,1.017,0,0,5.258-1,6.787-3.8,0,0-5.938,1.939-6.447-1.281,0,0,2.924-.088,5.7-4.959,0,0-4.857,2.078-5.536.552,0,0,3.929-1.981,5.1-5.312,0,0-2.425,1.623-3.255-.176,0,0,5.2-4.073,5.749-5.817,0,0-6.409,3.679-8.447,3.679a12.3,12.3,0,0,0,4.984-5.347s-4.164,2.772-5.507,1.178c0,0,3.033-.116,5.088-3.82,0,0-6.517,2.308-6.135-.021,0,0,2.066-.759,6.486-5.526,0,0-5.594,2.859-6.613,1a7.749,7.749,0,0,0,3.459-2.629S67.4,49.378,66.6,46.46a5.41,5.41,0,0,0,4.122.3s-4.425-1.367-3.74-3.31c0,0,2.722.09,3.91-1.774,0,0-4.073,1.525-4.922-.678a8.54,8.54,0,0,0,3.9-3.729s-2.886,2.712-3.9.678l2.5-3.572-1.656.209L65.287,31l.346,3.4s-2.5-.174-3.11-.877c-.08,1.2-.22,3.572.975,3.845,0,0-1.3,2.257-2.471-1.124a7.2,7.2,0,0,0,2.219,6.022s-.868.648-2.638-.989c0,0,.622,2.62,1.632,3.2a8.348,8.348,0,0,1-3.389,1.034s1.487,1.01,4.555-.229c0,0-2.622,3.29-4.783,3.4,0,0,.3,2.193,2.124,2.337,0,0-2.192.678-4.937-1.368,0,0,.652,3.377,7.441,3.207,0,0-1.127,1.071-4.128,1.213l3.109,1.5a12.111,12.111,0,0,1-6.038-.192s1.147,3.082,5.969,2.908c0,0,.691,2.241-4.8.864,0,0-.514,2.218,3.619,3.725,0,0-.462,1.058-3,1.2,0,0,1.215,1.548,4.6,1.183,0,0-4.349,3.285-8.29-3.285,0,0-1.755,3.95,3.941,6.57,0,0-.783,2.772-4.248.832,0,0-.409,3.314,5.362,5.178,0,0-.3,4.37-9.314.151,0,0-1.13,4.452,7.826,8.167,0,0-.848.692-6.384-.763l3.835,3.577a22.68,22.68,0,0,1-9.523-3.58,11.9,11.9,0,0,0,3.46-4.749c-.389.685-1.564,2.052-5.08,3.441a13.522,13.522,0,0,1-1.634-1.774,16.894,16.894,0,0,0,3.313-5.39S41.107,77.35,37.1,76.7c0,0,4.478-2.1,5.013-5.839,0,0-7.187,5.392-10.438,2.754,0,0,6.121-1.015,7.735-4.871,0,0-6.312,2.029-8.141,1.217,0,0,6.3-1.194,8.126-4.554,0,0-7.112,2.322-7.72-1.534,0,0,3.5-.1,6.832-5.938,0,0-5.816,2.488-6.629.662,0,0,4.7-2.374,6.112-6.362,0,0-2.9,1.944-3.9-.211,0,0,6.228-4.877,6.885-6.966,0,0-7.676,4.406-10.115,4.406a14.737,14.737,0,0,0,5.967-6.4s-4.986,3.319-6.594,1.411c0,0,3.633-.139,6.093-4.575,0,0-7.8,2.764-7.346-.024,0,0,2.474-.91,7.766-6.618,0,0-6.7,3.424-7.918,1.191A9.26,9.26,0,0,0,32.974,31.3s-4.462-.417-5.42-3.911c0,0,2.7,1.377,4.936.362,0,0-5.3-1.637-4.478-3.964,0,0,3.26.108,4.682-2.124,0,0-4.877,1.826-5.894-.812a10.215,10.215,0,0,0,4.675-4.465s-3.456,3.247-4.675.812l3-4.277-1.983.249L25.987,8.878l.414,4.074s-2.99-.208-3.724-1.05c-.1,1.439-.264,4.277,1.168,4.6,0,0-1.558,2.7-2.959-1.346,0,0-.6,4.471,2.656,7.212,0,0-1.038.775-3.158-1.184,0,0,.744,3.137,1.954,3.836a10.02,10.02,0,0,1-4.058,1.239s1.78,1.209,5.455-.275c0,0-3.141,3.94-5.729,4.069,0,0,.358,2.626,2.544,2.8,0,0-2.625.812-5.91-1.639,0,0,.78,4.044,8.908,3.841,0,0-1.349,1.282-4.941,1.453L22.329,38.3s-4.1.962-7.23-.229c0,0,1.373,3.69,7.146,3.482,0,0,.828,2.683-5.742,1.034,0,0-.616,2.657,4.333,4.462,0,0-.552,1.267-3.594,1.434,0,0,1.454,1.853,5.507,1.416,0,0-4.066,3.065-8.268-1.646a12.163,12.163,0,0,0,1.158-1.534,16.967,16.967,0,0,1-2.695-.558c-.041-.067-.082-.127-.123-.2,0,0-.024.058-.055.146-2.907-.865-7.148-2.894-8.42-7.54,0,0,5.626,2.868,10.285.754,0,0-11.043-3.41-9.333-8.26,0,0,6.793.225,9.757-4.426,0,0-10.164,3.806-12.281-1.691,0,0,6.777-2.96,9.74-9.3,0,0-7.2,6.765-9.74,1.691l6.24-8.912-4.133.521L1.081,0l.864,8.489S1.118,8.426,0,8.267V147.725H1200V8.28a8.256,8.256,0,0,1-4.095-1.965M12.983,49.756a8.069,8.069,0,0,0,4,3.8c-4,1.353-8.6,2.223-9.953-.257a21.931,21.931,0,0,0,5.953-3.543M7.351,64.6a7.711,7.711,0,0,0,.913-.447,9.648,9.648,0,0,0,2.383,3.036c-2.133-.055-3.6-.725-3.3-2.589m4.189,9.316a13.793,13.793,0,0,0,1.525-.474l1,.932a22.746,22.746,0,0,1-2.524-.458ZM10.84,62.5c1.117-.8,2.509-1.882,4.181-3.338A13.532,13.532,0,0,0,18.9,61.046s-.287,4.172-8.05,1.457Zm1163.052,45.121.162-1.9a3.791,3.791,0,0,1-2.357-.552l2.843-1.111a1.373,1.373,0,0,1-.609-1.844c.023-.044.048-.087.074-.129a3.992,3.992,0,0,1,1.848-1.393c-.709-.086-1.659-.544-1.387-1.2a1.184,1.184,0,0,1,.521-.494l.15-.091a12.534,12.534,0,0,0,3.929,5.216c-.877.605-1.966,1.006-2.653.289a6.564,6.564,0,0,1-2.517,3.209Zm10.091.052a1.859,1.859,0,0,0-.471.422,2.8,2.8,0,0,0,.084,3.426c-.042.18-.085.361-.122.543a6.8,6.8,0,0,0-1.616.254l.741.6a4.921,4.921,0,0,0-1.066.68,18.342,18.342,0,0,1-4.45-.288,1.523,1.523,0,0,1,1.2-1.452l-.554-.587,1.758-.24a5.316,5.316,0,0,1-2.348-.713l1.5-.932a.756.756,0,1,1-.27-1.455,1.616,1.616,0,0,1,.141-2.281,1.568,1.568,0,0,1,.184-.14,3.232,3.232,0,0,1,1.511-.534,25.12,25.12,0,0,0,4.549,2.5,1.467,1.467,0,0,0-.768.2Zm10.954-21.508a1.319,1.319,0,0,0-.526-.378.986.986,0,0,0,.113-.176c.487-.021,1-.06,1.524-.117a8.714,8.714,0,0,1-1.107.671Zm-92.6-42.365c-.173-.41-.146-.073-.1.567A.508.508,0,0,0,1102.337,43.8ZM1078.5,81.366a.338.338,0,0,0,.068.38c.03-.43.047-.655-.067-.38ZM587.222,28.214a.666.666,0,0,0,.136.745c.057-.842.091-1.284-.135-.745Zm72.154,39.4a.408.408,0,0,0,.084.462c.036-.518.057-.792-.083-.459ZM481.008,132.808a1.313,1.313,0,0,0,.15-.361c-.045.13-.1.243-.149.364Zm68.971-83.915a.5.5,0,0,0,.1.566c.045-.636.071-.972-.1-.563Zm128.9,67.009a1.21,1.21,0,0,0,.132-.32c-.036.115-.085.215-.129.323Zm71.1-14.789a.364.364,0,0,0,.074.407c.038-.456.057-.7-.067-.4Zm79.93,36.416c-.04-.091-.088-.165-.123-.262a.8.8,0,0,0,.131.265Zm-27.943-16.6c-.082-.2-.07-.042-.05.259a.243.243,0,0,0,.058-.257Zm-23.835,4.548a.363.363,0,0,0,.074.407c.037-.458.052-.7-.067-.405Zm63.435-16.98c-.083-.2-.072-.042-.052.26a.241.241,0,0,0,.059-.258Z" fill="#598a7e"/>
</svg>
