<svg xmlns="http://www.w3.org/2000/svg" width="1200" height="143.104" viewBox="0 0 1200 143.104">
  <path id="Path_348" data-name="Path 348" d="M5100.052,151.772c-2.215.845-4.289,1.853-6.654,2.522-7.332,2.074-12.555,5.243-16.489,9.348-2.785,2.906-7.1,5.19-12.537,6.4a37.612,37.612,0,0,0-11.378,4.291c-6.843,4.1-15.148,6.935-24.515,8.6-2.839.5-5.547,1.127-8.16,1.847.314-5.648-6.534-5.777-12.593-9.9-5.387-3.669-5.273-9.127-12.664-9.825-.011.152-.023.3-.033.455-7.643,8.817-11.443,6.434-20.071,13.518-13.305,11.037-33.75,7.114-39.275,12.282l-17.331,16.469c-.489-.3-.98-.6-1.467-.888l-6.93-4.129a55.646,55.646,0,0,1-7.962-5.376c-4.278-3.705-6.982-8.571-12.612-11.121l-.058.046a.458.458,0,0,0-.053-.005c-2.5,1.741-5.1,1.609-8.121,4.1-6.992,5.756-17.209,11.8-24.449,13.463-3.34-.283-6.247-.137-8.015,2.189a118.814,118.814,0,0,1-15.979,5.762,110.021,110.021,0,0,1-16.375-8.475c-.037-.044-.069-.09-.11-.133a6.137,6.137,0,0,0-.991-.823,8.165,8.165,0,0,0-1.747-1.041l0,0,0,0c-6.125-3.333-16.3-36.139-23.076-28.258-.071.082-.136.164-.205.246v0c-.107.03-.214.059-.319.1-9.407,2.335-13.7,9.817-23.991,10.687-3.445,1.355-6.848,5.272-11.232,3.583-2.355-1.048-2.551-3.767-4.978-4.726-6.185-1.134-14.561,7.954-22.156,12.052-2.083-.7-4.205-1.495-6.349-2.073a22.446,22.446,0,0,0-4.524-.791c-3.08-3.793-11.446-4.273-16.728-7.066-3.535-1.87-5.846-4.96-9.843-6.236-2.1-.671-10.146-7.081-12.388-7.428-8.1-1.257-6.5-1.037-10.806-5.926-.088.052-.152.115-.231.17.009-.155,0-.311.02-.467-6.016,4.633-12.158,9.9-16.384,15.764-4.456,4.049-11.138,8.424-14.627,12.3-.477-.3-.938-.579-1.39-.839l-.078-.046c-.429-.246-.846-.472-1.254-.685-.045-.024-.091-.049-.136-.072-.387-.2-.764-.387-1.133-.564l-.19-.091c-.345-.164-.682-.317-1.013-.464l-.264-.118q-.428-.187-.841-.363c-1.206-.513-2.322-.962-3.373-1.459h0a18.994,18.994,0,0,1-2.058-1.12,14.17,14.17,0,0,1-1.466-1.063l-.047-.039c-.237-.2-.473-.407-.708-.632l-.009-.008q-.336-.322-.67-.686l-.074-.079q-.329-.361-.658-.769l-.1-.126q-.3-.382-.608-.806c-.023-.033-.046-.064-.07-.1-.212-.3-.426-.622-.64-.958-.047-.074-.095-.149-.142-.225-.216-.347-.434-.706-.653-1.092v0l-.008-.008q-.192-.2-.387-.376c-.056-.051-.112-.1-.168-.144-.076-.065-.151-.131-.229-.192s-.147-.109-.22-.163-.119-.087-.178-.127c-.085-.057-.171-.109-.258-.161-.047-.029-.094-.058-.142-.085-.1-.055-.194-.105-.291-.153-.036-.018-.072-.036-.108-.052q-.163-.075-.324-.138l-.076-.029c-.118-.044-.236-.084-.356-.119l-.041-.011q-.193-.056-.39-.1h0c-8.593-1.745-20.351,18.085-32.328,17.559-.925-.5-1.875-.983-2.838-1.452a136.377,136.377,0,0,0-18.839-7.687q-7.26-2.578-14.777-4.737l-.031-.01-.017-.008c-.23-.12-.458-.24-.69-.349-.7-.328-1.415-.634-2.128-.946-.279-.123-.555-.251-.836-.372-.6-.257-1.222-.5-1.836-.745s-1.238-.5-1.869-.738c-.35-.131-.709-.251-1.063-.378-.857-.308-1.715-.615-2.592-.9-.263-.085-.533-.161-.8-.244-.95-.3-1.9-.6-2.877-.866-.444-.124-.9-.232-1.349-.35-.8-.21-1.588-.425-2.4-.615-1.045-.247-2.111-.469-3.182-.685-.232-.046-.458-.1-.691-.147q-4.044-.784-8.338-1.271l-.028,0-.016,0c-1.527-.171-3.012-.465-4.521-.691-.354-.053-.694-.117-1.037-.179a29.609,29.609,0,0,1-5.388-1.568c-.169-.073-.34-.144-.5-.221l-.243-.11a14.748,14.748,0,0,1-3.215-2.1l0,0,0,0c-1.3-1.131-2.68-2.233-4.085-3.324a40.865,40.865,0,0,0-5.792-4.331,18.066,18.066,0,0,0-7.636-2.652,1.542,1.542,0,0,0-.294-.145,1.615,1.615,0,0,0-.3-.08,2.838,2.838,0,0,0-1.166.108c-.189.049-.373.1-.552.143a132.436,132.436,0,0,0-21.5,7.07c-4.909,1.32-9.878,2.571-14.714,3.974-10.339,3-20.807,5.924-28.833,10.931a20.344,20.344,0,0,1-11.318,2.727,38.864,38.864,0,0,0-18.765,4.068c-.864.217-1.712.452-2.547.7-2.507.742-4.9,1.6-7.295,2.457q-1.2.429-2.4.856c-2.4.849-4.836,1.665-7.41,2.338a1.022,1.022,0,0,0-.471.357,1.863,1.863,0,0,1-.141.139,5.47,5.47,0,0,1-2.337-2.066c-2.676-3.862-8.181-6.466-12.786-9.438-1.922-1.24-4.963-1.9-7.486-2.837a1.637,1.637,0,0,0-1.978.447c-.2-.01-.392-.019-.589-.026a1.453,1.453,0,0,0-.424-.544,1.237,1.237,0,0,0-.732-.241,2.532,2.532,0,0,0-.625.068c-.143.031-.288.071-.432.114-.073.022-.145.045-.217.069-.216.07-.429.145-.634.21-1.824.575-3.638,1.159-5.468,1.725-2.441.754-4.911,1.476-7.471,2.1q-.959.234-1.938.448c-1.849.4-3.76.713-5.645,1.06a44.534,44.534,0,0,0-5.494,1.292l-10.135,2.126L4292,190.389c-2.722-.72-6.58-1.248-7.509-2.615a10.522,10.522,0,0,0-3.319-2.987c-1.454-.956-3.053-1.822-4.446-2.812-.1-.071-.208-.143-.319-.215a9.287,9.287,0,0,1-1.238-1.127h0a3.372,3.372,0,0,0-.152-.507,2.78,2.78,0,0,0-.154-.333c-.019-.037-.04-.074-.062-.11a4.475,4.475,0,0,0-3.27-1.854l-.048-.008c-.158-.027-.315-.056-.479-.076a24.618,24.618,0,0,0-3.368-.188c-1.312-.365-2.623-.726-3.173.5-5.351,2.213-10.351,4.723-15.243,7.209-8.109,4.121-18.659,5.6-27.141,9.192a17.03,17.03,0,0,1-3.768.7,5.56,5.56,0,0,1-3.1-.259c-7.027-3.1-14.045-2.216-20.886.168-5.058,1.764-9.884,3.746-14.906,5.547-7.6,2.726-15.615,4.677-24.9,4.25a54.408,54.408,0,0,0-9.6.406c-.355-.229-.7-.464-1.047-.7-2.392-1.838-4.675-3.721-6.962-5.6-1.4-1.194-2.815-2.377-4.313-3.483-.475-.371-.966-.726-1.465-1.072-.049-.033-.094-.07-.143-.1a37.225,37.225,0,0,0-7.369-3.851,57.323,57.323,0,0,0-6.634-2.135c-12.294-3.206-23.787-7.143-32.4-13.369a21.006,21.006,0,0,0-2.4-1.436,20.678,20.678,0,0,0-3.348-1.848,6.564,6.564,0,0,0-4.234-.521,11.009,11.009,0,0,0-8.168,1.291c-1.6,1.042-3.263,2.052-4.978,3.029a84.666,84.666,0,0,1-16.248,6.878c-4.132,1.315-8.538,2.438-11.964,4.413a21.7,21.7,0,0,1-20.091.183c-.651-.354-1.075-1.068-2.3-.732-5.418,1.483-11.11,2.684-15.669,5.058-7.538,3.925-15.288,7.65-25.788,8.647-2.52-.531-5.01-1.089-7.449-1.694l-.013,0a21.046,21.046,0,0,1-3.129-1.143,3.3,3.3,0,0,1-1.728-2.8,11.55,11.55,0,0,1,.129-1.185,18.12,18.12,0,0,0,.193-4.252,10.947,10.947,0,0,0-2.72-6.849,15.324,15.324,0,0,0-1.482-1.609A96.009,96.009,0,0,0,3941.727,171q-1.59-1.1-3.277-2.141a78.028,78.028,0,0,0-11.165-5.717,33.279,33.279,0,0,1-12.075-8.13c-2.37-2.552-6.088-4.072-11.226-3.862-.286-.114-.555.042-.818,0v143.06h1200V151.151A5.882,5.882,0,0,0,5100.052,151.772Z" transform="translate(-3903.166 -151.107)" fill="#fdeddf"/>
</svg>
