<?xml version="1.0" encoding="utf-8"?>
<!-- Generator: Adobe Illustrator 26.0.2, SVG Export Plug-In . SVG Version: 6.00 Build 0)  -->
<svg version="1.1" id="Layer_1" xmlns="http://www.w3.org/2000/svg" xmlns:xlink="http://www.w3.org/1999/xlink" x="0px" y="0px"
	 viewBox="0 0 280 305" style="enable-background:new 0 0 280 305;" xml:space="preserve">
<style type="text/css">
	.st0{fill:#FEEDDF;}
</style>
<path id="Path_170" class="st0" d="M276.1,64.6C264-25.2,127.3,9.9,63.3,7.1C-13,25.9,16.4,117.5,6.4,182.5
	C-13.4,278.1,57.1,298.8,130,298.8l5.2-73.9C85.8,253,60,233.1,60,233.1c47.1,5.6,70.5-69.7,70.5-69.7c-11.7,6-50,3.3-50,3.3
	c50-3.3,54.9-73,54.9-73c-14.3,10.3-31.4-4.5-31.4-4.5c25.7-11.8,40.5-60.5,40.5-60.5c-4.6,33.6,34.6,86.1,34.6,86.1
	c-18.6,7.8-21.7-12.8-21.7-12.8c-6.1,53.9,44.3,77.7,44.3,77.7c-14.8,4.3-30.8,0.6-42.3-9.8c-3,42.8,39.9,75.2,39.9,75.2
	c-29.9,6.9-50.5-21.7-50.5-21.7l-5.4,75.9C301.4,330.5,279.1,179.2,276.1,64.6z"/>
</svg>
