<svg xmlns="http://www.w3.org/2000/svg" width="1200" height="147.71" viewBox="0 0 1200 147.71">
  <path id="Path_343" data-name="Path 343" d="M2889.2,286.791a.807.807,0,0,0,.09-.219C2889.258,286.649,2889.224,286.717,2889.2,286.791Zm-13.354-33.058a.284.284,0,0,0,.056.316C2875.921,253.692,2875.937,253.505,2875.841,253.733Zm-13.536,6.088c-.056-.134-.049-.022-.035.18A.169.169,0,0,0,2862.3,259.821Zm34.636,10.361c-.076-.181-.066-.039-.047.239A.223.223,0,0,0,2896.941,270.182Zm23.818,6.075a.2.2,0,0,0,.041.209C2920.816,276.224,2920.825,276.1,2920.759,276.257Zm63.422-17.327c-.107-.254-.09-.045-.064.352A.314.314,0,0,0,2984.181,258.93Zm-30.333.542c-.12-.286-.1-.051-.071.4A.352.352,0,0,0,2953.848,259.472Zm-43.7,22.767a.2.2,0,0,0,.041.209C2910.207,282.206,2910.216,282.082,2910.149,282.239Zm-55.911-2.326c-.027-.063-.06-.115-.085-.181A.588.588,0,0,0,2854.238,279.913ZM2789.8,242.565c-.117-.278-.1-.049-.07.386A.346.346,0,0,0,2789.8,242.565Zm-146.035-24.944a.339.339,0,0,0,.069.38C2643.862,217.572,2643.88,217.346,2643.765,217.621Zm-19.1-35.988a.471.471,0,0,0,.1.528C2624.8,181.565,2624.825,181.252,2624.665,181.633Zm73.259,85.535c-.05-.123-.1-.237-.151-.365A1.347,1.347,0,0,0,2697.924,267.168ZM2584.8,159.9a.567.567,0,0,0,.115.632C2584.965,159.824,2584.994,159.449,2584.8,159.9Zm26.683,66.089a1.544,1.544,0,0,0,.189-.455C2611.616,225.7,2611.547,225.841,2611.485,225.994ZM2848.256,250.2c-.1-.235-.084-.042-.059.324A.29.29,0,0,0,2848.256,250.2Zm172.889-23.424a.47.47,0,0,0,.094.523C3021.279,226.712,3021.3,226.4,3021.145,226.779Zm-181.124,47.457a.383.383,0,0,0,.024.377A.8.8,0,0,0,2840.021,274.236Zm-119.808-62.243c-.161-.381-.136-.068-.1.527A.47.47,0,0,0,2720.213,211.993Zm39.871,30.8c-.106-.25-.089-.045-.063.347A.312.312,0,0,0,2760.084,242.793Zm488.583-10.462a.394.394,0,0,0,.08.444C3248.78,232.274,3248.8,232.011,3248.667,232.331Zm279.58,22.4a.351.351,0,0,0,.071.391C3528.347,254.679,3528.366,254.447,3528.247,254.73Zm-27.808-.173c-.118-.282-.1-.05-.07.392A.35.35,0,0,0,3500.439,254.557Zm72.279-31.1c-.2-.467-.166-.083-.117.646A.577.577,0,0,0,3572.718,223.462Zm-120.134,52.776c-.083-.2-.072-.042-.052.26A.243.243,0,0,0,3452.584,276.238ZM3704.1,170.64c-.2-.472-.168-.084-.119.654A.587.587,0,0,0,3704.1,170.64Zm-284.928,94.354c-.083-.2-.072-.042-.051.26A.241.241,0,0,0,3419.177,264.994ZM3758.12,154.939c-.2,3-.55,8.912,2.435,9.594,0,0-3.248,5.633-6.169-2.805,0,0-1.25,9.316,5.538,15.028,0,0-2.164,1.615-6.582-2.468,0,0,1.551,6.537,4.071,7.992a20.865,20.865,0,0,1-8.453,2.581s3.707,2.52,11.364-.571c0,0-6.544,8.208-11.935,8.478,0,0,.746,5.471,5.3,5.831,0,0-5.469,1.692-12.316-3.414,0,0,1.623,8.425,18.562,8,0,0-2.81,2.672-10.3,3.028l7.757,3.738s-8.531,2-15.064-.477c0,0,2.859,7.688,14.89,7.254,0,0,1.724,5.592-11.967,2.156,0,0-1.224,5.311,8.419,9.063l.16.221a1.05,1.05,0,0,0-.813,1.125,1.1,1.1,0,0,0-1.811.616,1.062,1.062,0,0,0,.047.439,15.561,15.561,0,0,1-4.463.82,8.5,8.5,0,0,0,3.748,2.285.887.887,0,0,0,.607.714c-.479-.155-.935.418-.874.916a1.94,1.94,0,0,0,.618,1.061c-3.839-.244-8.686-2.515-13.309-10.222,0,0-4.379,9.855,9.832,16.394,0,0-1.954,6.917-10.6,2.076a5.408,5.408,0,0,0,.051,1.256,1.7,1.7,0,0,0-1.051,1.687,1.526,1.526,0,0,0-1.524-.671,2.437,2.437,0,0,0,.114,1.451.983.983,0,0,1-1.464-.786l-1.444,1.2a2.637,2.637,0,0,1,2.153-3.279c-.3-.2.013-.779.342-.635q-.751-.826-1.5-1.651l1.655-.9a.687.687,0,0,1-.212-.97,1.993,1.993,0,0,1,.884-.671l2.717-1.345-4.333.209q-.216.906-.431,1.814a1.193,1.193,0,0,0-1.678-1.266,3.383,3.383,0,0,1-.034,2.894c.379-1.149-1.243-2.311-.767-3.424.314-.734,1.295-.84,2.095-.835l-.776-.835q.367-.33.733-.661c-.658-.639-.036-1.775.74-2.265s1.768-.809,2.145-1.645q-1.938.454-3.913.733l.754-1.2a4.832,4.832,0,0,0-2.112,1.217,5.185,5.185,0,0,1,3.572-5.613l-3.042.314a.917.917,0,0,1-.708-.13v-.86a8.327,8.327,0,0,1,1.12-1.3,1.473,1.473,0,0,0,.343-1.668l-1.463,1.791V226.1a15.126,15.126,0,0,1-.845,1.282l-.631.773-1.731-3.2c-.495.472-.457,1.251-.556,1.928s-.606,1.461-1.271,1.3a2.214,2.214,0,0,1,.958.892,3.5,3.5,0,0,1-1.233.391c.557-.062.956.675.716,1.181a1.346,1.346,0,0,1-1.435.63,3.751,3.751,0,0,1-1.5-.728q-.261,1.341-.523,2.683c-.32.158-.641.31-.958.451a19.333,19.333,0,0,1-.488-3.6c.019.5-.7,1.507-.907,1.99q-.456,1.053-.868,2.125c-.054.142-.106.282-.159.423a27.6,27.6,0,0,1-5.433,1.276l4.75-4.43c-6.857,1.8-7.906.945-7.906.945,11.091-4.6,9.692-10.115,9.692-10.115-11.167,5.225-11.536-.187-11.536-.187,7.148-2.309,6.641-6.413,6.641-6.413-4.291,2.4-5.261-1.031-5.261-1.031,7.055-3.245,4.881-8.137,4.881-8.137-4.881,8.137-10.267,4.069-10.267,4.069,4.192.452,5.7-1.465,5.7-1.465-3.146-.173-3.718-1.484-3.718-1.484,5.119-1.866,4.482-4.614,4.482-4.614-6.8,1.706-5.941-1.07-5.941-1.07,5.972.216,7.392-3.6,7.392-3.6-3.243,1.232-7.478.237-7.478.237l3.851-1.856c-3.717-.176-5.112-1.5-5.112-1.5,8.408.21,9.214-3.973,9.214-3.973-3.4,2.535-6.113,1.7-6.113,1.7,2.26-.179,2.631-2.894,2.631-2.894-2.677-.135-5.925-4.209-5.925-4.209,3.8,1.535,5.641.284,5.641.284a10.361,10.361,0,0,1-4.2-1.281c1.252-.723,2.021-3.968,2.021-3.968-2.192,2.027-3.267,1.225-3.267,1.225,3.37-2.835,2.749-7.459,2.749-7.459-1.45,4.188-3.061,1.392-3.061,1.392,1.481-.338,1.307-3.274,1.208-4.762-.76.871-3.852,1.086-3.852,1.086l.428-4.214-1.887,4.441-2.05-.259,3.1,4.424c-1.262,2.519-4.835-.839-4.835-.839a10.573,10.573,0,0,0,4.835,4.618c-1.052,2.728-6.1.839-6.1.839,1.471,2.309,4.843,2.2,4.843,2.2.848,2.408-4.633,4.1-4.633,4.1,2.312,1.05,5.106-.374,5.106-.374-.99,3.614-5.606,4.045-5.606,4.045a9.593,9.593,0,0,0,4.283,3.256c-1.26,2.309-8.189-1.232-8.189-1.232,5.473,5.9,8.032,6.845,8.032,6.845.473,2.884-7.6.025-7.6.025,2.545,4.588,6.3,4.732,6.3,4.732-1.664,1.973-6.821-1.46-6.821-1.46a15.239,15.239,0,0,0,6.172,6.623c-2.522,0-10.461-4.557-10.461-4.557.68,2.16,7.121,7.205,7.121,7.205-1.029,2.228-4.032.217-4.032.217,1.456,4.126,6.322,6.58,6.322,6.58-.841,1.889-6.857-.684-6.857-.684,3.444,6.033,7.066,6.142,7.066,6.142-.63,3.988-7.985,1.586-7.985,1.586,1.893,3.475,8.406,4.711,8.406,4.711-1.892.839-8.421-1.26-8.421-1.26,1.67,3.989,8,5.038,8,5.038-3.362,2.729-10.8-2.848-10.8-2.848.555,3.869,5.187,6.039,5.187,6.039-4.141.672-9.041-3.172-9.041-3.172a19.408,19.408,0,0,0,5.305,7.477q-.4.456-.82.871c-4.091-1.213-6.142-2.517-7.17-3.486a4.309,4.309,0,0,0,.53-2.759c-9.688,4.533-10.008-.163-10.008-.163,6.2-2,5.762-5.564,5.762-5.564-3.723,2.085-4.565-.894-4.565-.894,6.121-2.816,4.235-7.061,4.235-7.061-4.235,7.061-8.908,3.531-8.908,3.531,3.636.392,4.941-1.271,4.941-1.271-2.729-.15-3.225-1.287-3.225-1.287,4.441-1.62,3.888-4,3.888-4-5.9,1.48-5.154-.928-5.154-.928,5.181.187,6.414-3.124,6.414-3.124a13.015,13.015,0,0,1-6.488.205l3.341-1.61c-3.225-.153-4.436-1.3-4.436-1.3,7.3.182,7.994-3.446,7.994-3.446-2.948,2.2-5.3,1.47-5.3,1.47,1.961-.155,2.282-2.511,2.282-2.511-2.322-.117-5.14-3.651-5.14-3.651,3.3,1.331,4.894.246,4.894.246a8.992,8.992,0,0,1-3.641-1.112c1.086-.627,1.754-3.442,1.754-3.442-1.9,1.758-2.835,1.063-2.835,1.063,2.923-2.46,2.385-6.472,2.385-6.472-1.258,3.633-2.656,1.208-2.656,1.208,1.285-.294,1.134-2.841,1.048-4.132-.659.755-3.342.942-3.342.942l.372-3.656-1.638,3.853-1.779-.224,2.687,3.838c-1.094,2.185-4.2-.728-4.2-.728a9.172,9.172,0,0,0,4.2,4.006c-.912,2.368-5.289.729-5.289.729,1.276,2,4.2,1.906,4.2,1.906.736,2.088-4.02,3.557-4.02,3.557,2.006.911,4.43-.325,4.43-.325-.859,3.136-4.864,3.51-4.864,3.51a8.322,8.322,0,0,0,3.718,2.825c-1.095,2-7.106-1.069-7.106-1.069,4.749,5.122,6.969,5.939,6.969,5.939.41,2.5-6.592.021-6.592.021,2.207,3.981,5.467,4.106,5.467,4.106-1.444,1.712-5.917-1.266-5.917-1.266a13.215,13.215,0,0,0,5.355,5.746c-2.189,0-9.077-3.954-9.077-3.954.59,1.874,6.178,6.251,6.178,6.251-.893,1.933-3.5.189-3.5.189,1.263,3.579,5.485,5.709,5.485,5.709-.73,1.639-5.949-.594-5.949-.594,2.988,5.235,6.131,5.329,6.131,5.329-.547,3.46-6.929,1.376-6.929,1.376,1.644,3.015,7.293,4.087,7.293,4.087-1.641.729-7.305-1.092-7.305-1.092,1.448,3.46,6.941,4.37,6.941,4.37-2.918,2.368-9.368-2.47-9.368-2.47a5.051,5.051,0,0,0,.608,1.752c-1.362.35-3.2.637-3.027-.433,0,0,1.49-.548,4.679-3.987,0,0-4.036,2.063-4.771.718a5.592,5.592,0,0,0,2.5-1.9s-2.689-.251-3.266-2.356a3.905,3.905,0,0,0,2.974.218s-3.193-.986-2.7-2.389a3.488,3.488,0,0,0,2.821-1.279s-2.939,1.1-3.551-.49a6.148,6.148,0,0,0,2.816-2.69s-2.082,1.957-2.816.49l1.8-2.577-1.2.15-1.1-2.587.25,2.455s-1.8-.125-2.244-.633c-.058.867-.159,2.577.7,2.774,0,0-.938,1.629-1.783-.811a5.2,5.2,0,0,0,1.6,4.346s-.626.467-1.9-.714c0,0,.448,1.89,1.178,2.311a6.033,6.033,0,0,1-2.445.746s1.072.729,3.286-.165c0,0-1.892,2.373-3.451,2.452a2.585,2.585,0,0,0,.463,1.1l-2.161-.622c-5.1,3.336-7.973-.645-7.973-.645,3.441-3.518,4.454-12.114,4.454-12.114a6.556,6.556,0,0,1-8.106.444l2.139-2.729c-2.435-.311-4.989-6.822-4.989-6.822,2.227.185,3.062-2.132,3.062-2.132-2.32-.185-3.712-3.613-3.712-3.613.836.556,1.651-1.413,1.651-1.413a4.72,4.72,0,0,1-2.3-4.332l-.928,3.707-1.884-1.174,1.141,4.509c.186,2.131-2.428-1.494-2.428-1.494.078,2.86-1.654-.266-1.654-.266,1.021,4.447-1.485,2.687-1.485,2.687.464,1.112,3.8,3.521,3.8,3.521l-2.783,2.687a32.872,32.872,0,0,0,2.267,2.785c-2.557.191-5.422-2.6-5.422-2.6,1.392,4.262,4.7,4.818,4.7,4.818l-2.007.649a4.662,4.662,0,0,1-1.182,2.615c1.417.206,4.763-1.537,4.763-1.537-.779,1.912-4.509,3.462-4.509,3.462a22.913,22.913,0,0,0,2.464.36c-2.083,1.473-4.376-.1-4.376-.1,1.893,2.853,3.953,2.15,3.953,2.15-2.134,3.243-8.581.049-8.581.049,2.925,3.941,9.045,6.437,9.045,6.437-1.762.556-4.278-.866-4.278-.866.362,1.359,2.516,2.163,2.516,2.163-3.434.649-6.96-1.76-6.96-1.76,1.763,3.8,7.25,5.224,7.25,5.224-5.091,1.888-7.474-1.458-7.474-1.458.705,3.3,4.585,6.148,4.585,6.148-3.711.092-8.234-3.868-8.234-3.868,1.325,4.471,7.677,7.945,7.677,7.945-1.856,1.575-5.293-.792-5.293-.792.644,3.286,6.407,7.463,6.407,7.463a6,6,0,0,1-7.056-1.2c.553,2.694,7.148,5.83,7.148,5.83-1.3,3.429-8.072,1.668-8.072,1.668a10.757,10.757,0,0,0,5.66,3.8c-2.784,1.39-5.842-1.3-5.842-1.3,1.489,4.075,5.927,4.887,5.927,4.887-6.595.715-8.832-2.31-8.832-2.31,1.089,4.149,5.406,5.764,5.406,5.764-5.474,1.761-9.652-3.632-9.652-3.632a18.345,18.345,0,0,0,1.72,3.111c-5.053,8.336-16.561,9.5-16.561,9.5l4.7-4.381c-6.783,1.781-7.821.934-7.821.934,10.972-4.552,9.587-10,9.587-10-11.046,5.168-11.41-.186-11.41-.186,7.069-2.283,6.568-6.343,6.568-6.343-4.244,2.377-5.2-1.02-5.2-1.02,6.979-3.21,4.828-8.049,4.828-8.049-4.828,8.049-10.156,4.025-10.156,4.025,4.146.447,5.634-1.449,5.634-1.449-3.112-.172-3.677-1.468-3.677-1.468,5.064-1.846,4.433-4.564,4.433-4.564-6.723,1.687-5.876-1.059-5.876-1.059,5.907.213,7.312-3.562,7.312-3.562-3.208,1.219-7.4.235-7.4.235l3.809-1.836c-3.677-.175-5.057-1.486-5.057-1.486,8.318.207,9.115-3.93,9.115-3.93-3.362,2.507-6.047,1.676-6.047,1.676,2.235-.176,2.6-2.863,2.6-2.863-2.648-.133-5.86-4.163-5.86-4.163,3.759,1.518,5.58.281,5.58.281a10.248,10.248,0,0,1-4.152-1.267c1.238-.715,2-3.925,2-3.925-2.168,2.005-3.231,1.212-3.231,1.212,3.332-2.8,2.719-7.379,2.719-7.379-1.434,4.143-3.029,1.377-3.029,1.377,1.466-.334,1.293-3.239,1.2-4.711-.752.862-3.811,1.075-3.811,1.075l.424-4.168-1.867,4.392-2.028-.255,3.063,4.376c-1.247,2.491-4.782-.831-4.782-.831a10.451,10.451,0,0,0,4.782,4.568c-1.039,2.7-6.03.831-6.03.831,1.456,2.284,4.791,2.173,4.791,2.173.839,2.381-4.583,4.056-4.583,4.056,2.287,1.038,5.051-.371,5.051-.371-.98,3.575-5.546,4-5.546,4a9.493,9.493,0,0,0,4.238,3.221c-1.247,2.284-8.1-1.22-8.1-1.22,5.414,5.841,7.945,6.772,7.945,6.772.468,2.853-7.516.024-7.516.024,2.517,4.539,6.234,4.681,6.234,4.681-1.646,1.952-6.746-1.443-6.746-1.443a15.062,15.062,0,0,0,6.105,6.55c-2.5,0-10.349-4.507-10.349-4.507.673,2.137,7.044,7.127,7.044,7.127-1.017,2.2-3.988.215-3.988.215,1.44,4.081,6.253,6.509,6.253,6.509-.832,1.869-6.782-.677-6.782-.677,3.407,5.968,6.99,6.075,6.99,6.075-.624,3.945-7.9,1.569-7.9,1.569,1.873,3.438,8.316,4.66,8.316,4.66-1.872.831-8.33-1.245-8.33-1.245,1.651,3.945,7.914,4.983,7.914,4.983-2.905,2.356-8.877-1.548-10.346-2.577l.172-.122q-.447-.848-.928-1.679c.71.666,1.952-.407,1.705-1.348a2.581,2.581,0,0,0-2.256-1.584,8.05,8.05,0,0,0,1.723-2.8.874.874,0,0,0,.061-.58c-.232-.651-1.538-.267-1.715-.934a1.093,1.093,0,0,0,.519-1.108,4.652,4.652,0,0,0-1.516-2.662l-.773-.841a2.034,2.034,0,0,0,1.985-1,33.8,33.8,0,0,0-4.828-1l2.1-1.147a.922.922,0,0,0,.4-.326c.28-.505-.465-.945-1.034-1.051a1.545,1.545,0,0,0-.637-2.285c.5-.584.183-1.49-.239-2.134a3.075,3.075,0,0,1-.813-2.1c.113-.6.623-1.036.86-1.6a1.9,1.9,0,0,0-.423-2.061,1.812,1.812,0,0,0,1.456-1.236,2.45,2.45,0,0,0-2.146-.744,1.627,1.627,0,0,1,.4-1.475l-1.03-.63a2.441,2.441,0,0,0,.506-1.111c.134-1.524-1.657-.842-1.245.816.176.7.052,1.76-.673,1.735a.981.981,0,0,0,.774.7,6.2,6.2,0,0,1-1.871,1.19,1.875,1.875,0,0,1,1.429.427c.338.384.072,1.191-.429,1.08l.643.895a1.049,1.049,0,0,0-.812,1.124,1.1,1.1,0,0,0-1.812.616,1.442,1.442,0,0,0,1.554,1.46,3.428,3.428,0,0,0-1.974.951c-.469.578-.359,1.649.36,1.848-.479-.155-.936.417-.874.916a2.277,2.277,0,0,0,.8,1.244,15.169,15.169,0,0,1-1.46,1.29,1.164,1.164,0,0,1,.992,1.605,1.5,1.5,0,0,1-1.934.636,4.3,4.3,0,0,0,1.868,2.5l-3.321.524,3.281,2.43a2.747,2.747,0,0,0-1.47.21.945.945,0,0,0-.431,1.266,1.4,1.4,0,0,0-.378,1.973c-.712-.225-1.722-.318-1.984.38-.3.813.825,1.374,1.683,1.513a3.823,3.823,0,0,0-2.116,2.2,2.524,2.524,0,0,1,1.295,2.4,9.432,9.432,0,0,1-.693,2.79c-.078.227-.137.459-.207.689-1.33.258-3.443.4-3.7-1.22,0,0,2.168-.065,4.231-3.677,0,0-3.6,1.541-4.1.41,0,0,2.913-1.47,3.784-3.94,0,0-1.8,1.2-2.414-.13,0,0,3.857-3.02,4.264-4.314,0,0-4.753,2.728-6.263,2.728a9.124,9.124,0,0,0,3.7-3.965s-3.088,2.056-4.084.874a4.944,4.944,0,0,0,3.773-2.833s-4.832,1.712-4.549-.015c0,0,1.532-.563,4.809-4.1,0,0-4.148,2.12-4.9.738a5.748,5.748,0,0,0,2.565-1.95s-2.764-.258-3.357-2.422a4.009,4.009,0,0,0,3.057.224s-3.281-1.013-2.773-2.454a3.588,3.588,0,0,0,2.9-1.316s-3.02,1.131-3.65-.5a6.323,6.323,0,0,0,2.9-2.764s-2.14,2.01-2.9.5l1.855-2.648-1.228.154-1.13-2.658.256,2.523s-1.851-.13-2.306-.651c-.059.891-.163,2.649.724,2.851,0,0-.966,1.674-1.834-.833a5.345,5.345,0,0,0,1.646,4.466s-.643.48-1.956-.734c0,0,.461,1.943,1.21,2.376a6.21,6.21,0,0,1-2.513.767s1.1.749,3.378-.17c0,0-1.945,2.44-3.547,2.52,0,0,.222,1.626,1.575,1.733a4.355,4.355,0,0,1-3.661-1.015s.483,2.5,5.518,2.379a4.939,4.939,0,0,1-3.061.9l2.3,1.111a8.976,8.976,0,0,1-4.476-.142s.849,2.285,4.425,2.156c0,0,.512,1.662-3.557.641,0,0-.381,1.645,2.684,2.763,0,0-.343.784-2.226.888,0,0,.9,1.148,3.409.877,0,0-3.224,2.436-6.146-2.436,0,0-1.3,2.929,2.922,4.872,0,0-.581,2.056-3.15.617,0,0-.3,2.457,3.976,3.84,0,0-.221,3.24-6.907.112,0,0-.473,1.894,2.18,4.011h-5.424v-1.908a9.532,9.532,0,0,1-1.494,1.908h-.127a9.58,9.58,0,0,1-1.317-1.735v1.735h-5.656c2.9-2.185,2.413-4.184,2.413-4.184-6.687,3.128-6.907-.112-6.907-.112,4.279-1.382,3.976-3.84,3.976-3.84-2.57,1.439-3.151-.617-3.151-.617,4.225-1.943,2.923-4.872,2.923-4.872-2.923,4.872-6.147,2.437-6.147,2.437,2.51.27,3.41-.878,3.41-.878-1.884-.1-2.226-.888-2.226-.888,3.065-1.117,2.684-2.762,2.684-2.762-4.069,1.021-3.557-.641-3.557-.641,3.576.129,4.425-2.156,4.425-2.156a8.98,8.98,0,0,1-4.477.142l2.3-1.111a4.941,4.941,0,0,1-3.06-.9c5.034.126,5.517-2.378,5.517-2.378a4.357,4.357,0,0,1-3.661,1.014c1.354-.107,1.576-1.733,1.576-1.733-1.6-.08-3.548-2.519-3.548-2.519,2.277.918,3.378.169,3.378.169a6.194,6.194,0,0,1-2.513-.767c.75-.432,1.21-2.375,1.21-2.375-1.312,1.213-1.955.733-1.955.733a5.342,5.342,0,0,0,1.645-4.466c-.868,2.508-1.833.834-1.833.834.887-.2.783-1.961.724-2.851-.456.521-2.307.65-2.307.65l.257-2.523-1.13,2.659-1.228-.155,1.854,2.649c-.755,1.508-2.894-.5-2.894-.5a6.329,6.329,0,0,0,2.894,2.765c-.629,1.633-3.65.5-3.65.5a3.585,3.585,0,0,0,2.9,1.316c.508,1.441-2.774,2.455-2.774,2.455a4.016,4.016,0,0,0,3.058-.224c-.594,2.163-3.357,2.421-3.357,2.421a5.743,5.743,0,0,0,2.565,1.95c-.755,1.382-4.9-.738-4.9-.738,3.277,3.535,4.81,4.1,4.81,4.1.283,1.727-4.55.015-4.55.015a4.942,4.942,0,0,0,3.773,2.833c-1,1.182-4.083-.873-4.083-.873a9.118,9.118,0,0,0,3.7,3.965c-1.51,0-6.263-2.728-6.263-2.728.407,1.293,4.263,4.313,4.263,4.313-.615,1.334-2.414.131-2.414.131.871,2.47,3.785,3.939,3.785,3.939a.565.565,0,0,1-.16.2,13.245,13.245,0,0,0-2.879-.217c-.609-.2-1.066-.394-1.066-.394.148.258.3.494.444.718a.916.916,0,0,0-.008.546.919.919,0,0,1,.716.488l-1.7,1.407c.432-.379-.133-1.241-.653-1a1.8,1.8,0,0,0,.6-1.36l-2.756.9a1.15,1.15,0,0,1-.253-1.2,1.583,1.583,0,0,0,1.058-.1,1.421,1.421,0,0,0-1.255-.475,1.077,1.077,0,0,1,.533-.753l-.769-.965c.674.01.584-1.048.248-1.632a3.871,3.871,0,0,1-1.387.971l-.065,1.177-.984-.8c-.334-.521.369-1.3.922-1.02.331-.374-.175-1.075-.636-.88.333-.167.137-.8-.232-.749a1.37,1.37,0,0,1,.613-.889.723.723,0,0,0,.809.455.869.869,0,0,1,.185-1.211,2.366,2.366,0,0,0-1.775.071c.082.3.163.6.244.9l-.756-.46a2.617,2.617,0,0,1-1.166,1.6l-.954-.164a1.127,1.127,0,0,0,.471-.734l-1.413-.383a2.6,2.6,0,0,0,1.418-1.323.779.779,0,0,0,.729.646.718.718,0,0,0,.281-.748,1.459,1.459,0,0,1-.959-1.577.805.805,0,0,0,1.279-.075c0-.055-.747-.212-.819-.312-.143-.2.054-.828.063-1.067a11.406,11.406,0,0,1-1.973.933c-.575.126-1.192,0-1.754.15a5.637,5.637,0,0,1,.445.712,17,17,0,0,1-2,1.721.789.789,0,0,1-.8.96,2.525,2.525,0,0,1-.352,1.986l2.2.076a.671.671,0,0,0-.691.494l.856.383a1.515,1.515,0,0,0-.349,1.354l-1.193.434a.651.651,0,0,0,.507,1l-1.448.449,1.162,1.164a5.169,5.169,0,0,0-2.157,1.3l-2.072-.745a1.243,1.243,0,0,1-.707.658,1.466,1.466,0,0,0-.047-.986l1.234-.173-1.862-.109a4.236,4.236,0,0,0-.412-2.38,4.861,4.861,0,0,1,.134,2.1,1.663,1.663,0,0,1-1.426,1.359l1.7.869-1.606.714,1.86.995a4.447,4.447,0,0,0-1.352.782h-3.212l.15-.492a.607.607,0,0,1-.827-.661.634.634,0,0,0-.4,1.122l-1.064-.091a.839.839,0,0,0,.017.122h-4.028a11.692,11.692,0,0,1-.709-2.8,3.283,3.283,0,0,0-.165,2.8h-7.591a.481.481,0,0,1,.012-.155c2.531.092,3.133-1.526,3.133-1.526a6.362,6.362,0,0,1-3.17.1l1.633-.786a3.505,3.505,0,0,1-2.168-.637c3.564.089,3.906-1.684,3.906-1.684a3.081,3.081,0,0,1-2.591.719c.958-.076,1.115-1.227,1.115-1.227-1.134-.057-2.511-1.784-2.511-1.784,1.611.651,2.391.121,2.391.121a4.409,4.409,0,0,1-1.779-.543c.531-.307.857-1.682.857-1.682-.929.859-1.385.519-1.385.519a3.782,3.782,0,0,0,1.165-3.161c-.614,1.775-1.3.59-1.3.59.633-.145.552-1.411.51-2.036-.3.381-1.631.478-1.631.478l.181-1.786-.8,1.882-.868-.11,1.312,1.875c-.534,1.068-2.049-.355-2.049-.355a4.482,4.482,0,0,0,2.049,1.957c-.445,1.156-2.583.356-2.583.356a2.538,2.538,0,0,0,2.052.931c.36,1.02-1.963,1.737-1.963,1.737a2.837,2.837,0,0,0,2.163-.158c-.419,1.531-2.375,1.714-2.375,1.714a4.065,4.065,0,0,0,1.816,1.38c-.535.979-3.472-.522-3.472-.522,2.32,2.5,3.405,2.9,3.405,2.9.2,1.222-3.22.011-3.22.011a4.611,4.611,0,0,0,.64.881h-1.37a1.132,1.132,0,0,0-.8,0h-.372a1.232,1.232,0,0,1,.368-1.3.843.843,0,0,1-.875-.927c-.894.077-.943,1.341-.713,2.223h-3.869a1.955,1.955,0,0,0,.212-.534,3.265,3.265,0,0,1-1.446.534h-.075a.965.965,0,0,1-.617-.214s2.566-1.4,3.1-3.21c0,0-1.827,1.6-3.325,1.563a5.24,5.24,0,0,0,1.852-2.483,2.5,2.5,0,0,1-3.019.588s2.216-.575,2.929-2.11a4.342,4.342,0,0,1-2.812.711s.87-.325,1.016-.873a2.723,2.723,0,0,1-1.728.349,10.005,10.005,0,0,0,3.654-2.6s-2.6,1.29-3.467-.02c0,0,.833.284,1.6-.868a1.631,1.631,0,0,1-1.767.041,9.443,9.443,0,0,0,.995-.146s-1.507-.626-1.822-1.4a5.187,5.187,0,0,0,1.925.62,1.883,1.883,0,0,1-.478-1.056l-.811-.262a2.682,2.682,0,0,0,1.9-1.946,3.63,3.63,0,0,1-2.191,1.05,13.142,13.142,0,0,0,.917-1.125l-1.125-1.086a7.074,7.074,0,0,0,1.537-1.422s-1.012.711-.6-1.085c0,0-.7,1.263-.668.107,0,0-1.056,1.465-.981.6l.461-1.822-.761.474-.375-1.5a1.907,1.907,0,0,1-.929,1.75s.33.8.667.571c0,0-.562,1.385-1.5,1.46a1.292,1.292,0,0,0,1.237.86s-1.032,2.631-2.016,2.757l.865,1.1a2.649,2.649,0,0,1-3.275-.18s.409,3.473,1.8,4.894c0,0-1.16,1.608-3.221.261l-2.286.657.289,2.4c-4.265,1.842-4.423-.282-4.423-.282,3.03-.979,2.814-2.718,2.814-2.718-1.818,1.018-2.229-.437-2.229-.437,2.99-1.376,2.069-3.449,2.069-3.449-2.069,3.449-4.352,1.725-4.352,1.725a2.658,2.658,0,0,0,2.414-.621c-1.333-.074-1.575-.629-1.575-.629,2.169-.791,1.9-1.956,1.9-1.956-2.881.723-2.518-.453-2.518-.453,2.531.091,3.132-1.526,3.132-1.526a6.358,6.358,0,0,1-3.169.1l1.633-.786a3.5,3.5,0,0,1-2.167-.637c3.563.089,3.9-1.684,3.9-1.684a3.082,3.082,0,0,1-2.591.718c.958-.075,1.115-1.226,1.115-1.226-1.134-.057-2.511-1.784-2.511-1.784,1.611.65,2.391.12,2.391.12a4.392,4.392,0,0,1-1.779-.543c.531-.306.857-1.681.857-1.681-.929.859-1.384.519-1.384.519a3.785,3.785,0,0,0,1.164-3.162c-.614,1.775-1.3.591-1.3.591.633-.145.552-1.411.511-2.036-.3.38-1.632.477-1.632.477l.181-1.785-.8,1.882-.869-.11,1.312,1.875c-.535,1.068-2.048-.356-2.048-.356a4.471,4.471,0,0,0,2.048,1.957c-.445,1.157-2.583.356-2.583.356a2.535,2.535,0,0,0,2.052.931c.36,1.021-1.963,1.738-1.963,1.738a2.838,2.838,0,0,0,2.164-.159c-.42,1.532-2.376,1.715-2.376,1.715a4.064,4.064,0,0,0,1.815,1.38c-.534.978-3.47-.522-3.47-.522,2.319,2.5,3.4,2.9,3.4,2.9.2,1.222-3.221.01-3.221.01a3.5,3.5,0,0,0,2.671,2.006c-.7.836-2.89-.619-2.89-.619a5.688,5.688,0,0,0,1.53,2.024c-.09.134-.178.268-.275.393a32.28,32.28,0,0,1-3.073-1.541,9.1,9.1,0,0,0,2.252,2.425,8.219,8.219,0,0,1-.926.732l-.017-.011.008.017a11.974,11.974,0,0,1-4.9,1.811l2.014-1.877c-2.907.763-3.352.4-3.352.4,4.7-1.95,4.108-4.287,4.108-4.287-4.732,2.215-4.888-.079-4.888-.079,3.028-.979,2.814-2.718,2.814-2.718-1.819,1.018-2.23-.437-2.23-.437,2.99-1.376,2.069-3.449,2.069-3.449-2.069,3.449-4.352,1.725-4.352,1.725a2.656,2.656,0,0,0,2.414-.621c-1.333-.074-1.576-.629-1.576-.629,2.17-.791,1.9-1.956,1.9-1.956-2.88.723-2.518-.453-2.518-.453,2.531.091,3.133-1.526,3.133-1.526a6.359,6.359,0,0,1-3.169.1l1.632-.786a3.5,3.5,0,0,1-2.167-.637c3.564.089,3.905-1.684,3.905-1.684a3.081,3.081,0,0,1-2.59.718c.958-.075,1.115-1.226,1.115-1.226-1.135-.057-2.511-1.784-2.511-1.784,1.61.65,2.39.12,2.39.12a4.391,4.391,0,0,1-1.778-.543c.53-.306.857-1.681.857-1.681-.93.859-1.385.519-1.385.519a3.782,3.782,0,0,0,1.164-3.162c-.614,1.775-1.3.59-1.3.59.633-.144.553-1.41.511-2.035-.3.38-1.632.477-1.632.477l.182-1.786-.8,1.882-.869-.109,1.313,1.875c-.535,1.068-2.049-.356-2.049-.356a4.47,4.47,0,0,0,2.049,1.957c-.446,1.157-2.584.356-2.584.356a2.538,2.538,0,0,0,2.053.931c.36,1.021-1.964,1.738-1.964,1.738a2.838,2.838,0,0,0,2.164-.159c-.419,1.532-2.376,1.715-2.376,1.715a4.065,4.065,0,0,0,1.816,1.38c-.535.978-3.471-.523-3.471-.523,2.319,2.5,3.4,2.9,3.4,2.9.2,1.222-3.22.01-3.22.01a3.5,3.5,0,0,0,2.671,2.006c-.705.836-2.891-.619-2.891-.619a6.454,6.454,0,0,0,2.616,2.807c-1.069,0-4.434-1.931-4.434-1.931.288.915,3.018,3.053,3.018,3.053-.436.945-1.709.093-1.709.093a5.983,5.983,0,0,0,2.679,2.788c-.356.8-2.906-.29-2.906-.29,1.461,2.557,3,2.6,3,2.6-.267,1.691-3.384.673-3.384.673.8,1.473,3.563,2,3.563,2-.8.356-3.569-.534-3.569-.534.707,1.691,3.39,2.136,3.39,2.136-1.425,1.156-4.576-1.207-4.576-1.207.236,1.639,2.2,2.559,2.2,2.559-1.755.285-3.832-1.345-3.832-1.345a9,9,0,0,0,3.088,3.85c-3.273-.76-4.25-1.705-4.54-2.155a5.159,5.159,0,0,0,3.118,2.923c0,.534-1.566.087-1.566.087a3.6,3.6,0,0,0,.288.5h-8.213c-.041-.009-.081-.024-.122-.03a3.725,3.725,0,0,0,.8-1.3.406.406,0,0,0,.028-.269c-.108-.3-.714-.124-.8-.434a.508.508,0,0,0,.241-.515,2.162,2.162,0,0,0-.7-1.237l-.359-.39a.947.947,0,0,0,.922-.464,15.584,15.584,0,0,0-2.243-.464l.978-.533a.43.43,0,0,0,.184-.152c.13-.235-.216-.439-.481-.488a.718.718,0,0,0-.3-1.062c.234-.271.086-.692-.111-.991a1.431,1.431,0,0,1-.378-.974c.053-.277.29-.481.4-.741a.883.883,0,0,0-.2-.958.841.841,0,0,0,.676-.574,1.14,1.14,0,0,0-1-.346.754.754,0,0,1,.188-.685l-.479-.293a1.118,1.118,0,0,0,.235-.516c.062-.708-.769-.391-.578.379.082.326.024.818-.313.806a.455.455,0,0,0,.36.324,2.858,2.858,0,0,1-.87.553.868.868,0,0,1,.664.2c.157.179.034.554-.2.5l.3.416a.487.487,0,0,0-.378.522.508.508,0,0,0-.841.286.669.669,0,0,0,.721.678,1.6,1.6,0,0,0-.916.442c-.219.269-.167.766.167.859-.223-.072-.435.194-.406.425a1.055,1.055,0,0,0,.37.578,7.123,7.123,0,0,1-.678.6.54.54,0,0,1,.461.745.7.7,0,0,1-.9.3,2,2,0,0,0,.868,1.162l-1.543.243,1.525,1.129a1.276,1.276,0,0,0-.684.1.44.44,0,0,0-.2.588A.648.648,0,0,0,3380,289c-.33-.105-.8-.148-.921.176-.076.2.042.371.228.494h-10.976a1.763,1.763,0,0,0,.288-1.019c-1.818,1.019-2.229-.436-2.229-.436,2.99-1.376,2.068-3.449,2.068-3.449-2.068,3.449-4.351,1.724-4.351,1.724a2.651,2.651,0,0,0,2.413-.621c-1.333-.073-1.575-.628-1.575-.628,2.169-.792,1.9-1.956,1.9-1.956-2.881.723-2.517-.454-2.517-.454,2.531.092,3.133-1.526,3.133-1.526a6.367,6.367,0,0,1-3.17.1l1.632-.787a3.5,3.5,0,0,1-2.166-.637c3.563.089,3.905-1.683,3.905-1.683a3.083,3.083,0,0,1-2.591.718c.958-.076,1.115-1.227,1.115-1.227-1.135-.057-2.511-1.784-2.511-1.784,1.611.651,2.391.121,2.391.121a4.384,4.384,0,0,1-1.779-.543c.531-.307.857-1.682.857-1.682-.93.859-1.385.519-1.385.519a3.782,3.782,0,0,0,1.165-3.161c-.615,1.775-1.3.59-1.3.59.633-.145.553-1.41.511-2.036-.3.381-1.632.478-1.632.478l.182-1.786-.8,1.882-.87-.109,1.313,1.874c-.534,1.068-2.049-.355-2.049-.355a4.482,4.482,0,0,0,2.049,1.957c-.445,1.156-2.583.356-2.583.356a2.538,2.538,0,0,0,2.052.931c.36,1.02-1.963,1.738-1.963,1.738a2.843,2.843,0,0,0,2.164-.159c-.42,1.531-2.376,1.714-2.376,1.714a4.06,4.06,0,0,0,1.815,1.38c-.534.979-3.471-.522-3.471-.522,2.32,2.5,3.405,2.9,3.405,2.9.2,1.222-3.221.011-3.221.011a3.5,3.5,0,0,0,2.671,2c-.705.837-2.89-.618-2.89-.618a6.449,6.449,0,0,0,2.615,2.806c-1.069,0-4.434-1.931-4.434-1.931.289.916,3.018,3.054,3.018,3.054-.436.944-1.708.092-1.708.092a4.953,4.953,0,0,0,1.713,2.157h-10.994c.415-.409.864-.867,1.354-1.4,0,0-4.318,2.207-5.1.768a5.971,5.971,0,0,0,2.669-2.029s-2.876-.268-3.493-2.52a4.176,4.176,0,0,0,3.182.233s-3.416-1.055-2.887-2.555a3.732,3.732,0,0,0,3.018-1.369s-3.144,1.177-3.8-.523a6.587,6.587,0,0,0,3.013-2.878s-2.227,2.093-3.013.523l1.93-2.757-1.277.161-1.177-2.767.267,2.626s-1.927-.134-2.4-.677c-.062.927-.17,2.757.753,2.968,0,0-1,1.742-1.908-.868a5.559,5.559,0,0,0,1.713,4.648s-.67.5-2.036-.763c0,0,.48,2.022,1.259,2.472a6.447,6.447,0,0,1-2.615.8s1.147.779,3.515-.177c0,0-2.024,2.539-3.692,2.623,0,0,.232,1.692,1.64,1.8a4.531,4.531,0,0,1-3.81-1.056s.5,2.606,5.742,2.476a2.209,2.209,0,0,1-.344.235h-7.431c.153-.32.411-.618.744-.554a.316.316,0,0,1,.066-.543,6.809,6.809,0,0,0-.891-.9l.546-.383q-.207-.395-.431-.781c.33.31.907-.189.793-.626a1.2,1.2,0,0,0-1.048-.736,3.747,3.747,0,0,0,.8-1.3.41.41,0,0,0,.028-.27c-.108-.3-.714-.124-.8-.434a.507.507,0,0,0,.241-.515,2.156,2.156,0,0,0-.7-1.236L3332.2,281a.946.946,0,0,0,.923-.464,15.767,15.767,0,0,0-2.244-.464l.978-.533a.435.435,0,0,0,.184-.151c.13-.235-.217-.439-.48-.489a.718.718,0,0,0-.3-1.061c.234-.272.086-.693-.111-.992a1.43,1.43,0,0,1-.378-.974c.053-.277.29-.481.4-.741a.883.883,0,0,0-.2-.958.841.841,0,0,0,.676-.574,1.14,1.14,0,0,0-1-.346.757.757,0,0,1,.188-.685l-.479-.293a1.119,1.119,0,0,0,.235-.515c.062-.709-.769-.392-.578.378.082.327.024.818-.313.806a.458.458,0,0,0,.36.325,2.87,2.87,0,0,1-.87.552.873.873,0,0,1,.664.2c.157.179.034.554-.2.5l.3.416a.488.488,0,0,0-.378.522.508.508,0,0,0-.841.287.67.67,0,0,0,.722.678,1.589,1.589,0,0,0-.917.442c-.218.268-.167.766.166.858-.222-.072-.434.194-.405.426a1.059,1.059,0,0,0,.37.578,7.149,7.149,0,0,1-.678.6.541.541,0,0,1,.461.746.7.7,0,0,1-.9.295,2.007,2.007,0,0,0,.868,1.162l-1.543.244,1.525,1.128a1.286,1.286,0,0,0-.684.1.44.44,0,0,0-.2.588.649.649,0,0,0-.175.917c-.331-.1-.8-.148-.922.177-.141.377.383.638.782.7a1.77,1.77,0,0,0-.983,1.021,1.172,1.172,0,0,1,.6,1.113,4.378,4.378,0,0,1-.322,1.3c-.095.282-.17.569-.237.859h-2.071a3.745,3.745,0,0,0,.6-1.521,16.117,16.117,0,0,1-2.568,1.521h-3.126c1.244-.373,3.252-1.214,3.951-2.885,0,0-4.068,1.308-5.247.785,0,0,4.058-.77,5.239-2.936,0,0-4.584,1.5-4.977-.988,0,0,2.257-.068,4.4-3.827,0,0-3.749,1.6-4.273.426,0,0,3.032-1.53,3.94-4.1,0,0-1.872,1.252-2.513-.136,0,0,4.013-3.144,4.437-4.49,0,0-4.947,2.84-6.519,2.84a9.488,9.488,0,0,0,3.846-4.127s-3.213,2.139-4.25.909a5.144,5.144,0,0,0,3.927-2.948s-5.029,1.781-4.735-.016c0,0,1.595-.586,5.006-4.265,0,0-4.318,2.206-5.1.767a5.973,5.973,0,0,0,2.67-2.029s-2.877-.268-3.493-2.52a4.174,4.174,0,0,0,3.181.233s-3.416-1.055-2.886-2.555a3.73,3.73,0,0,0,3.017-1.369s-3.144,1.177-3.8-.523a6.587,6.587,0,0,0,3.013-2.878s-2.227,2.093-3.013.523l1.931-2.756-1.279.161-1.176-2.767.267,2.625s-1.927-.134-2.4-.677c-.062.928-.17,2.757.752,2.968,0,0-1,1.742-1.907-.868a5.565,5.565,0,0,0,1.713,4.649s-.67.5-2.036-.764c0,0,.479,2.022,1.259,2.473a6.447,6.447,0,0,1-2.615.8s1.147.78,3.516-.177c0,0-2.024,2.539-3.692,2.623,0,0,.23,1.692,1.639,1.8a4.532,4.532,0,0,1-3.809-1.057s.5,2.607,5.741,2.476a5.143,5.143,0,0,1-3.185.936l2.4,1.157a9.35,9.35,0,0,1-4.66-.148s.885,2.378,4.607,2.244c0,0,.533,1.73-3.7.667,0,0-.4,1.712,2.793,2.875,0,0-.356.817-2.317.925,0,0,.937,1.194,3.549.913,0,0-3.356,2.535-6.4-2.536,0,0-1.356,3.048,3.041,5.071,0,0-.605,2.139-3.278.642,0,0-.316,2.558,4.138,4,0,0-.23,3.373-7.189.117,0,0-.872,3.435,6.04,6.3,0,0-.654.534-4.927-.589l2.171,2.025h-2.42a12.919,12.919,0,0,1-7.3-5.37v5.37h-3.7a9.594,9.594,0,0,0,1.459-1.472s-5.664,1.472-6.75-1.394c0,0,5.514-2.623,5.977-4.876a5.013,5.013,0,0,1-5.9,1s4.818-3.492,5.357-6.24c0,0-2.874,1.979-4.426.662,0,0,5.312-2.9,6.419-6.643,0,0-3.781,3.311-6.885,3.234,0,0,3.245-2.379,3.834-5.141,0,0-1.992,2.8-6.249,1.219,0,0,4.588-1.192,6.062-4.368,0,0-2.948,2.014-5.819,1.472,0,0,1.8-.673,2.1-1.808,0,0-2.1,1.188-3.577.723,0,0,5.118-2.086,7.563-5.382,0,0-5.391,2.671-7.175-.041,0,0,1.722.588,3.305-1.8a3.378,3.378,0,0,1-3.658.085,19.291,19.291,0,0,0,2.06-.3s-3.119-1.3-3.771-2.9c0,0,2.8,1.458,3.983,1.285a3.891,3.891,0,0,1-.988-2.187l-1.678-.542s2.764-.465,3.928-4.029c0,0-2.4,2.334-4.534,2.175a27.564,27.564,0,0,0,1.9-2.33l-2.328-2.246s2.793-2.015,3.181-2.944c0,0-2.095,1.472-1.241-2.247,0,0-1.448,2.614-1.383.222,0,0-2.186,3.032-2.031,1.25l.955-3.771-1.575.982-.776-3.1a3.948,3.948,0,0,1-1.924,3.621s.682,1.647,1.38,1.182c0,0-1.164,2.867-3.1,3.022a2.675,2.675,0,0,0,2.56,1.782s-2.136,5.444-4.172,5.705l1.79,2.281a5.57,5.57,0,0,1-5.443.5.2.2,0,0,1,.013-.017c-.035-.01-.07-.016-.1-.026a6.242,6.242,0,0,1-1.245-.83s.026.208.077.544c-.863-.2-1.731-.375-2.609-.491l1.692-.922a.746.746,0,0,0,.318-.262c.225-.406-.374-.759-.831-.845a1.242,1.242,0,0,0-.512-1.836c.4-.469.147-1.2-.192-1.715a2.468,2.468,0,0,1-.654-1.685c.091-.48.5-.832.692-1.282a1.527,1.527,0,0,0-.34-1.657,1.456,1.456,0,0,0,1.17-.993,1.973,1.973,0,0,0-1.725-.6,1.311,1.311,0,0,1,.324-1.185l-.827-.507a1.96,1.96,0,0,0,.407-.892c.107-1.225-1.332-.678-1,.655.141.565.041,1.415-.541,1.394a.789.789,0,0,0,.622.561,4.964,4.964,0,0,1-1.5.956,1.506,1.506,0,0,1,1.149.343c.272.309.058.957-.345.868l.517.719a.844.844,0,0,0-.653.9.88.88,0,0,0-1.456.5,1.159,1.159,0,0,0,1.249,1.173,2.759,2.759,0,0,0-1.587.765c-.376.464-.288,1.325.289,1.485-.385-.125-.751.335-.7.736a1.837,1.837,0,0,0,.641,1,12.4,12.4,0,0,1-1.173,1.037.935.935,0,0,1,.8,1.289,1.162,1.162,0,0,1-1.279.576l0-.006-.008.005a1.184,1.184,0,0,1-.27-.063c.017.061.048.117.067.177-1,.562-5.381,2.976-6.9,2.976a10.345,10.345,0,0,0,4.193-4.5s-3.5,2.332-4.633.991c0,0,2.552-.1,4.281-3.214,0,0-5.483,1.942-5.161-.017,0,0,1.737-.64,5.456-4.65,0,0-4.707,2.4-5.563.837a6.522,6.522,0,0,0,2.91-2.212s-3.136-.293-3.808-2.748a4.55,4.55,0,0,0,3.468.254s-3.724-1.149-3.147-2.785c0,0,2.29.076,3.289-1.492,0,0-3.426,1.283-4.14-.571a7.179,7.179,0,0,0,3.284-3.137s-2.428,2.282-3.284.571l2.1-3-1.394.175-1.281-3.016.29,2.862s-2.1-.146-2.616-.738c-.068,1.011-.185,3.005.82,3.235,0,0-1.094,1.9-2.079-.946a6.063,6.063,0,0,0,1.867,5.068s-.73.544-2.22-.832c0,0,.523,2.2,1.374,2.695a7.038,7.038,0,0,1-2.851.87s1.25.85,3.832-.193c0,0-2.207,2.768-4.025,2.859,0,0,.252,1.845,1.788,1.966a4.941,4.941,0,0,1-4.154-1.151s.548,2.841,6.26,2.7a5.606,5.606,0,0,1-3.473,1.02l2.616,1.261a10.193,10.193,0,0,1-5.08-.161s.965,2.593,5.022,2.446c0,0,.581,1.886-4.036.727,0,0-.433,1.867,3.045,3.135,0,0-.389.89-2.526,1.007,0,0,1.022,1.3,3.869,1,0,0-3.658,2.764-6.974-2.764,0,0-1.477,3.323,3.316,5.528,0,0-.66,2.332-3.574.7,0,0-.345,2.788,4.511,4.356,0,0-.256,3.43-7.168.419a8.743,8.743,0,0,0,2.19-3.186c-.381.688-1.874,2.371-7.641,3.71a15.01,15.01,0,0,0,5.15-6.418s-3.463,2.716-6.388,2.241c0,0,3.273-1.533,3.664-4.267,0,0-5.252,3.941-7.629,2.012,0,0,4.473-.741,5.653-3.559,0,0-4.613,1.483-5.95.89,0,0,4.6-.873,5.94-3.329,0,0-5.2,1.7-5.643-1.121,0,0,2.559-.077,4.993-4.34,0,0-4.251,1.819-4.845.484,0,0,3.438-1.735,4.468-4.65,0,0-2.123,1.421-2.85-.154,0,0,4.551-3.564,5.032-5.091,0,0-5.61,3.22-7.392,3.22a10.761,10.761,0,0,0,4.36-4.679s-3.643,2.426-4.819,1.031c0,0,2.656-.1,4.454-3.344,0,0-5.7,2.021-5.37-.017,0,0,1.809-.665,5.677-4.837,0,0-4.9,2.5-5.788.87a6.773,6.773,0,0,0,3.027-2.3s-3.261-.3-3.96-2.859a4.733,4.733,0,0,0,3.607.265s-3.873-1.2-3.273-2.9c0,0,2.382.079,3.421-1.553,0,0-3.564,1.335-4.307-.593a7.471,7.471,0,0,0,3.417-3.263s-2.526,2.373-3.417.593l2.189-3.126-1.45.183-1.333-3.138.3,2.978s-2.185-.153-2.721-.768c-.07,1.051-.193,3.126.853,3.365,0,0-1.138,1.976-2.163-.984a6.309,6.309,0,0,0,1.942,5.271s-.759.567-2.309-.865c0,0,.545,2.293,1.429,2.8a7.323,7.323,0,0,1-2.965.9s1.3.884,3.986-.2c0,0-2.295,2.879-4.186,2.974,0,0,.261,1.919,1.858,2.045a5.142,5.142,0,0,1-4.32-1.2s.57,2.956,6.511,2.807c0,0-.985.937-3.612,1.062L3221.42,236a10.6,10.6,0,0,1-5.284-.168s1,2.7,5.223,2.545c0,0,.605,1.961-4.2.756,0,0-.451,1.941,3.167,3.26,0,0-.4.926-2.627,1.049,0,0,1.062,1.354,4.024,1.035,0,0-3.806,2.875-7.255-2.876,0,0-1.536,3.457,3.449,5.751,0,0-.686,2.426-3.718.728,0,0-.357,2.9,4.693,4.532,0,0-.219,3-5.79,1.093a4.475,4.475,0,0,1-.194-1.151,2.073,2.073,0,0,1,1.063-1.966,3.138,3.138,0,0,0-1.735-1.8c.7-.113,1.629-.573,1.379-1.24-.214-.573-1.042-.5-1.626-.311a1.144,1.144,0,0,0-.311-1.619.775.775,0,0,0-.352-1.038,2.257,2.257,0,0,0-1.206-.172q1.345-1,2.691-1.993l-2.724-.429a3.544,3.544,0,0,0,1.533-2.051,1.231,1.231,0,0,1-1.587-.522.954.954,0,0,1,.813-1.316,12.508,12.508,0,0,1-1.2-1.058,1.871,1.871,0,0,0,.653-1.02c.05-.409-.324-.878-.717-.751.589-.163.679-1.041.3-1.516a2.818,2.818,0,0,0-1.619-.78,1.183,1.183,0,0,0,1.274-1.2.9.9,0,0,0-1.486-.505.86.86,0,0,0-.667-.922c.177-.244.352-.489.528-.733-.41.09-.629-.571-.351-.887a1.54,1.54,0,0,1,1.171-.35,5.054,5.054,0,0,1-1.533-.975.8.8,0,0,0,.634-.572c-.595.021-.7-.847-.553-1.423.339-1.359-1.13-1.918-1.02-.668a1.993,1.993,0,0,0,.415.91l-.845.517a1.33,1.33,0,0,1,.331,1.209,2.015,2.015,0,0,0-1.76.61,1.486,1.486,0,0,0,1.2,1.014,1.556,1.556,0,0,0-.347,1.691c.2.458.613.818.705,1.308a2.518,2.518,0,0,1-.667,1.719c-.346.528-.607,1.271-.2,1.75a1.268,1.268,0,0,0-.522,1.874c-.467.087-1.078.447-.849.862a.776.776,0,0,0,.325.267l1.727.941a27.7,27.7,0,0,0-3.96.819,1.671,1.671,0,0,0,1.628.819l-.634.689a3.821,3.821,0,0,0-1.243,2.183.9.9,0,0,0,.426.909c-.146.547-1.217.232-1.407.766a.72.72,0,0,0,.05.476,6.589,6.589,0,0,0,1.413,2.293,2.12,2.12,0,0,0-1.851,1.3c-.2.772.816,1.652,1.4,1.106q-.393.681-.76,1.377l.963.677a12.148,12.148,0,0,0-1.571,1.6.558.558,0,0,1,.116.959c.683-.132,1.2.6,1.444,1.25s.488,1.431,1.151,1.642a4.311,4.311,0,0,0-2.872,1.566,4.455,4.455,0,0,0,1.287.559l-2.169,1.81,1,.57a7.669,7.669,0,0,1-2.084.391,1.6,1.6,0,0,0,.8.7l-.732.272a1.652,1.652,0,0,0,.978,1.06l-1.765.5q.5.444.989.889a32.134,32.134,0,0,0-5.381,1.517c-.02-.04-.041-.082-.063-.122-.313-.582-1.012-1.148-1.575-.8l1.252-.694a5.42,5.42,0,0,1,2.341-2.056l-1.911-.082a1.39,1.39,0,0,0,.306-.742l-.928.185a2.808,2.808,0,0,0,.818-1.392l-1.528.122a2.61,2.61,0,0,0,.979-1.775,5.7,5.7,0,0,0,2.35-3.145,1.574,1.574,0,0,1-1.63-1.829,2.583,2.583,0,0,0-1.749,2.4,1.146,1.146,0,0,0-1.339-.628,1.915,1.915,0,0,1-.854,2.311c-.826.355-1.965-.536-1.6-1.357.232-.523.868-.723,1.258-1.142s.176-1.384-.364-1.2a1.363,1.363,0,0,0,.6-2.048l1.541-1.162-1.918-.067,2.132-2.56a5,5,0,0,1-1.723.121l-1.618,1.665-.887-.8a8.837,8.837,0,0,1-.048,3.07,3,3,0,0,1-1.934,2.224.9.9,0,0,1-1.026-.262,1.059,1.059,0,0,1-.054-.7,19.343,19.343,0,0,1,.937-3.627,5.248,5.248,0,0,1-2.357-1.163l4.391-2.2-1.072-.481a5.353,5.353,0,0,0,1.888-1.27,4.937,4.937,0,0,0-2.272-.411l1.818-2.234a5.069,5.069,0,0,1-2.664.016,4.194,4.194,0,0,1-.635,2.261,1.56,1.56,0,0,0-2.486-.5,3.1,3.1,0,0,1,2.945-3.01l-.666-.623a1.63,1.63,0,0,0,.658-1.819l1.125-.23c-.055-.214-.109-.427-.164-.641a4.617,4.617,0,0,0,1.19-.862,1.989,1.989,0,0,0-.566-.91l-.67.541a1.278,1.278,0,0,0-1.56-.691,13.377,13.377,0,0,1-.758,2.144l-.948-.871-1.215,3.089a3.48,3.48,0,0,0-4.3-1.5l3.286-1.87a2.176,2.176,0,0,1,.254-1.974,3.079,3.079,0,0,1,1.258,1.277,3.184,3.184,0,0,0,.533-2.082l-1.283-.034a5.088,5.088,0,0,1,2.274-1.871l-1.082-.3.984-1.764a3.5,3.5,0,0,0-1.59.181,2.554,2.554,0,0,0-2.023-2.115,4.055,4.055,0,0,1-.238,2.559.762.762,0,0,0-1.306.162c.335-.458,1.044.3.8.816s-.847.731-1.245,1.134a1.78,1.78,0,0,0-.372,1.89l-1.461-1.262c-.581.677-.406,1.686-.371,2.577s-.327,2.012-1.216,2.085a11.176,11.176,0,0,1-.167-5.821,8.917,8.917,0,0,0-1.409,1.941q-.843,1.413-1.688,2.826a2.066,2.066,0,0,1-.685.8,1.74,1.74,0,0,1-.553.178,5.991,5.991,0,0,1-2.3-.018l-1.3.706-.623-.683a2.547,2.547,0,0,1-1.247,1.546c-1.694-.138-3.185-.789-3.47-2.591,0,0,4.135-.124,8.066-7.011,0,0-6.867,2.937-7.826.781,0,0,5.555-2.8,7.217-7.511,0,0-3.429,2.3-4.6-.249,0,0,7.354-5.758,8.129-8.224,0,0-9.062,5.2-11.942,5.2,0,0,4.972-2.66,7.046-7.56,0,0-5.887,3.919-7.787,1.666,0,0,4.29-.164,7.194-5.4,0,0-9.212,3.263-8.672-.029,0,0,2.92-1.074,9.169-7.814,0,0-7.91,4.043-9.349,1.407a10.947,10.947,0,0,0,4.89-3.717s-5.269-.492-6.4-4.618c0,0,3.189,1.626,5.828.428,0,0-6.256-1.933-5.288-4.681,0,0,3.849.128,5.528-2.508,0,0-5.759,2.157-6.958-.958a12.067,12.067,0,0,0,5.519-5.272s-4.08,3.834-5.519.959l3.536-5.051-2.342.3-2.154-5.07.489,4.811s-3.53-.246-4.4-1.241c-.114,1.7-.312,5.051,1.379,5.437,0,0-1.84,3.192-3.495-1.59,0,0-.708,5.279,3.138,8.516,0,0-1.227.915-3.73-1.4,0,0,.879,3.705,2.308,4.53a11.828,11.828,0,0,1-4.791,1.462s2.1,1.428,6.44-.324c0,0-3.708,4.651-6.764,4.805,0,0,.423,3.1,3,3.3,0,0-3.1.958-6.978-1.935,0,0,.92,4.774,10.519,4.535,0,0-1.593,1.513-5.836,1.715l4.395,2.118s-4.834,1.137-8.536-.27c0,0,1.621,4.357,8.438,4.111,0,0,.978,3.168-6.781,1.221,0,0-.727,3.137,5.116,5.268,0,0-.653,1.495-4.244,1.693,0,0,1.717,2.189,6.5,1.672,0,0-6.149,4.645-11.72-4.645,0,0-2.482,5.585,5.571,9.29,0,0-1.107,3.919-6.005,1.176,0,0-.579,4.685,7.58,7.321,0,0-.42,6.178-13.168.214,0,0-1.6,6.293,11.065,11.546,0,0-1.2.978-9.026-1.078l5.422,5.057a32.345,32.345,0,0,1-12.676-4.522,4.556,4.556,0,0,0,.575-.8s-.525.168-1.275.329a21.365,21.365,0,0,1-3.214-2.714,12.776,12.776,0,0,0,3.692-4.307s-5.209,2.228-5.937.592c0,0,4.213-2.126,5.474-5.7,0,0-2.6,1.741-3.491-.189,0,0,5.578-4.368,6.166-6.239,0,0-6.875,3.946-9.059,3.946a13.2,13.2,0,0,0,5.344-5.735s-4.466,2.973-5.906,1.264c0,0,3.254-.125,5.457-4.1,0,0-6.989,2.476-6.579-.022,0,0,2.215-.815,6.956-5.928,0,0-6,3.067-7.093,1.067a8.3,8.3,0,0,0,3.71-2.819s-4-.374-4.855-3.5c0,0,2.419,1.233,4.422.324,0,0-4.747-1.466-4.012-3.551,0,0,2.92.1,4.194-1.9,0,0-4.369,1.636-5.279-.728a9.142,9.142,0,0,0,4.186-4s-3.094,2.909-4.186.728l2.682-3.832-1.776.224-1.634-3.845.371,3.649s-2.679-.187-3.337-.941c-.085,1.289-.235,3.831,1.047,4.124,0,0-1.4,2.422-2.651-1.206,0,0-.538,4.005,2.38,6.46,0,0-.93.695-2.829-1.061,0,0,.666,2.811,1.75,3.436a8.972,8.972,0,0,1-3.635,1.11s1.595,1.083,4.886-.246c0,0-2.813,3.528-5.131,3.645,0,0,.321,2.352,2.279,2.506,0,0-2.351.728-5.294-1.467,0,0,.7,3.622,7.979,3.44,0,0-1.208,1.148-4.427,1.3l3.335,1.607a12.993,12.993,0,0,1-6.476-.205s1.23,3.305,6.4,3.118c0,0,.741,2.4-5.144.927,0,0-.552,2.38,3.88,4,0,0-.494,1.135-3.218,1.285,0,0,1.3,1.66,4.932,1.268,0,0-4.665,3.524-8.892-3.523,0,0-1.883,4.236,4.227,7.047,0,0-.84,2.973-4.556.892,0,0-.439,3.555,5.751,5.554,0,0-.319,4.687-9.99.162,0,0-1.211,4.774,8.394,8.759,0,0-.909.742-6.847-.817l4.113,3.836a23.914,23.914,0,0,1-10.878-4.321l.169-1.407-2.4-.691a13.731,13.731,0,0,1-1.492-2.067v1.638l-1.831-.526c-5.161,3.373-8.063-.653-8.063-.653,3.479-3.557,4.5-12.251,4.5-12.251a6.63,6.63,0,0,1-8.2.449l2.163-2.759c-2.461-.315-5.045-6.9-5.045-6.9,2.252.188,3.1-2.155,3.1-2.155-2.346-.187-3.754-3.654-3.754-3.654.845.562,1.669-1.43,1.669-1.43a4.773,4.773,0,0,1-2.326-4.38l-.938,3.748-1.906-1.187,1.155,4.56c.188,2.156-2.456-1.511-2.456-1.511.078,2.893-1.673-.269-1.673-.269,1.033,4.5-1.5,2.717-1.5,2.717.469,1.125,3.847,3.561,3.847,3.561l-2.815,2.718a33.307,33.307,0,0,0,2.293,2.817c-2.586.193-5.484-2.63-5.484-2.63,1.408,4.31,4.751,4.872,4.751,4.872l-2.029.656a4.71,4.71,0,0,1-1.2,2.645c1.433.209,4.818-1.554,4.818-1.554-.788,1.934-4.56,3.5-4.56,3.5a23.353,23.353,0,0,0,2.491.365c-2.107,1.489-4.425-.1-4.425-.1,1.914,2.886,4,2.174,4,2.174-2.158,3.28-8.679.05-8.679.05,2.958,3.986,9.148,6.509,9.148,6.509-1.783.563-4.327-.875-4.327-.875.367,1.374,2.544,2.187,2.544,2.187-3.472.656-7.038-1.78-7.038-1.78,1.783,3.842,7.332,5.283,7.332,5.283-5.149,1.91-7.558-1.474-7.558-1.474.713,3.34,4.636,6.217,4.636,6.217-3.753.094-8.326-3.912-8.326-3.912,1.339,4.522,7.764,8.035,7.764,8.035-1.877,1.593-5.354-.8-5.354-.8.652,3.323,6.48,7.547,6.48,7.547a6.063,6.063,0,0,1-7.136-1.212c.56,2.725,7.23,5.9,7.23,5.9-1.314,3.467-8.165,1.686-8.165,1.686a10.887,10.887,0,0,0,5.724,3.842c-2.814,1.406-5.907-1.313-5.907-1.313,1.506,4.121,5.994,4.941,5.994,4.941-6.67.723-8.932-2.336-8.932-2.336,1.1,4.2,5.468,5.83,5.468,5.83-5.537,1.78-9.762-3.674-9.762-3.674,3.059,7.082,8.65,8.879,9.1,9.015h-5.92v0a2.284,2.284,0,0,0-2.73-.258,2.313,2.313,0,0,1-.375-1.138,3.259,3.259,0,0,1-1.34.815,5.826,5.826,0,0,0-.086-3.153,5.162,5.162,0,0,1-.889,2.126q-.233-1.623-.466-3.246a3.823,3.823,0,0,0-.6,1.1,2.543,2.543,0,0,0-1.087-.872,6.41,6.41,0,0,1,.27,2.4,1.155,1.155,0,0,1-.207.662c-.4.474-1.159.151-1.669-.2l.454,1.19a.274.274,0,0,1-.156.416l-.269.152h-3.531a5.508,5.508,0,0,0,2.039-2.422s-2.956.845-2.956-.163a9.664,9.664,0,0,0,5.964-5.65c-.432.78-2.12,2.685-8.649,4.2,0,0,4.266-2.886,5.829-7.266,0,0-3.919,3.075-7.231,2.538,0,0,3.7-1.736,4.148-4.83,0,0-5.945,4.46-8.635,2.277,0,0,5.063-.839,6.4-4.029,0,0-5.222,1.679-6.735,1.007,0,0,5.209-.988,6.724-3.767,0,0-5.883,1.921-6.387-1.269,0,0,2.9-.087,5.652-4.912,0,0-4.812,2.058-5.485.547,0,0,3.892-1.963,5.057-5.263,0,0-2.4,1.608-3.225-.174,0,0,5.152-4.035,5.695-5.762,0,0-6.35,3.644-8.367,3.644a12.176,12.176,0,0,0,4.936-5.3s-4.124,2.746-5.454,1.168c0,0,3-.115,5.04-3.785,0,0-6.455,2.287-6.077-.02,0,0,2.046-.753,6.424-5.475,0,0-5.541,2.832-6.55.986a7.671,7.671,0,0,0,3.426-2.6s-3.691-.344-4.483-3.235a5.358,5.358,0,0,0,4.083.3s-4.384-1.354-3.7-3.28c0,0,2.7.09,3.872-1.757,0,0-4.035,1.511-4.876-.671a8.456,8.456,0,0,0,3.868-3.694s-2.859,2.686-3.868.672l2.478-3.539-1.64.207-1.51-3.552.343,3.371s-2.474-.173-3.082-.869c-.078,1.19-.218,3.538.967,3.809,0,0-1.289,2.236-2.448-1.114a7.136,7.136,0,0,0,2.2,5.966s-.859.642-2.613-.979c0,0,.615,2.6,1.617,3.173a8.276,8.276,0,0,1-3.357,1.024s1.472,1,4.512-.226c0,0-2.6,3.258-4.739,3.366,0,0,.3,2.172,2.1,2.315,0,0-2.171.671-4.889-1.356,0,0,.645,3.345,7.37,3.177,0,0-1.116,1.061-4.089,1.2l3.08,1.484a11.991,11.991,0,0,1-5.981-.189s1.135,3.052,5.912,2.88c0,0,.684,2.22-4.751.856,0,0-.51,2.2,3.584,3.691,0,0-.457,1.048-2.973,1.186,0,0,1.2,1.533,4.555,1.172,0,0-4.308,3.254-8.212-3.255,0,0-1.739,3.913,3.9,6.509,0,0-.776,2.746-4.208.824,0,0-.405,3.283,5.312,5.129,0,0-.295,4.329-9.227.15,0,0-1.119,4.41,7.752,8.09,0,0-.839.685-6.324-.755l3.8,3.542a21.922,21.922,0,0,1-10.426-4.3.791.791,0,0,0-.382-.948,1.726,1.726,0,0,0-.845-.179c-.048-.051-.1-.1-.146-.153l2.475-1.833-2.723-.43a3.533,3.533,0,0,0,1.532-2.051,1.229,1.229,0,0,1-1.586-.522.953.953,0,0,1,.813-1.315,12.535,12.535,0,0,1-1.2-1.059,1.867,1.867,0,0,0,.654-1.02c.05-.408-.324-.878-.716-.751.588-.163.679-1.041.294-1.515a2.809,2.809,0,0,0-1.619-.78,1.182,1.182,0,0,0,1.274-1.2.9.9,0,0,0-1.485-.5.861.861,0,0,0-.666-.922q.263-.368.527-.734c-.411.091-.63-.57-.351-.886a1.536,1.536,0,0,1,1.171-.35,5.059,5.059,0,0,1-1.534-.975.807.807,0,0,0,.635-.572c-.595.02-.7-.847-.553-1.423.338-1.36-1.13-1.919-1.02-.669a2,2,0,0,0,.415.911l-.844.517a1.338,1.338,0,0,1,.331,1.209,2.013,2.013,0,0,0-1.761.61,1.487,1.487,0,0,0,1.194,1.014,1.558,1.558,0,0,0-.347,1.69c.2.459.613.819.706,1.309a2.516,2.516,0,0,1-.667,1.718c-.346.529-.607,1.272-.2,1.751a1.266,1.266,0,0,0-.522,1.873c-.467.088-1.078.448-.848.863a.765.765,0,0,0,.325.267l1.725.941a27.681,27.681,0,0,0-3.959.819,1.668,1.668,0,0,0,1.627.819l-.633.689a3.824,3.824,0,0,0-1.244,2.183.9.9,0,0,0,.426.909c-.145.547-1.216.232-1.406.765a.713.713,0,0,0,.05.476,6.593,6.593,0,0,0,1.413,2.294,2.116,2.116,0,0,0-1.85,1.3c-.2.772.815,1.652,1.4,1.105q-.394.681-.761,1.378l.963.676a12.227,12.227,0,0,0-1.572,1.6.558.558,0,0,1,.117.959c.682-.132,1.2.6,1.444,1.249s.488,1.432,1.15,1.643a4.3,4.3,0,0,0-2.871,1.566,4.482,4.482,0,0,0,1.287.559l-.157.131h-1.875a3.383,3.383,0,0,0,1.178-2.889c-6.021,2.816-6.219-.1-6.219-.1,3.853-1.245,3.58-3.458,3.58-3.458-2.313,1.3-2.837-.555-2.837-.555,3.8-1.75,2.632-4.388,2.632-4.388-2.632,4.388-5.535,2.194-5.535,2.194,2.259.244,3.071-.79,3.071-.79-1.7-.093-2-.8-2-.8,2.76-1.006,2.416-2.487,2.416-2.487-3.664.919-3.2-.577-3.2-.577,3.22.116,3.985-1.942,3.985-1.942a8.084,8.084,0,0,1-4.032.128l2.076-1a4.449,4.449,0,0,1-2.756-.81c4.534.113,4.968-2.142,4.968-2.142a3.925,3.925,0,0,1-3.3.914c1.219-.1,1.419-1.561,1.419-1.561-1.443-.072-3.194-2.269-3.194-2.269,2.049.828,3.041.153,3.041.153a5.584,5.584,0,0,1-2.263-.691c.675-.389,1.09-2.139,1.09-2.139-1.182,1.093-1.761.661-1.761.661a4.813,4.813,0,0,0,1.481-4.022c-.781,2.258-1.65.751-1.65.751.8-.183.7-1.765.651-2.568-.409.47-2.077.586-2.077.586l.232-2.272-1.018,2.394-1.106-.139,1.67,2.385c-.68,1.358-2.606-.453-2.606-.453a5.694,5.694,0,0,0,2.606,2.49c-.567,1.471-3.286.453-3.286.453a3.225,3.225,0,0,0,2.61,1.184c.458,1.3-2.5,2.211-2.5,2.211a3.611,3.611,0,0,0,2.753-.2c-.534,1.948-3.023,2.181-3.023,2.181a5.17,5.17,0,0,0,2.31,1.755c-.68,1.245-4.416-.664-4.416-.664,2.952,3.183,4.331,3.69,4.331,3.69.255,1.555-4.1.014-4.1.014a4.455,4.455,0,0,0,3.4,2.551c-.9,1.064-3.677-.787-3.677-.787a8.217,8.217,0,0,0,3.328,3.57c-1.36,0-5.64-2.456-5.64-2.456.366,1.164,3.838,3.884,3.838,3.884-.554,1.2-2.173.117-2.173.117a7.617,7.617,0,0,0,3.408,3.548c-.453,1.018-3.7-.369-3.7-.369,1.856,3.253,3.809,3.311,3.809,3.311-.339,2.15-4.3.855-4.3.855a2.8,2.8,0,0,0,.4.551h-16.83c2-1.336,1.825-2.863,1.825-2.863-2.6,1.458-3.192-.625-3.192-.625,4.281-1.969,2.961-4.937,2.961-4.937-2.961,4.937-6.229,2.469-6.229,2.469,2.543.274,3.456-.889,3.456-.889-1.909-.105-2.256-.9-2.256-.9,3.105-1.133,2.719-2.8,2.719-2.8-4.123,1.034-3.6-.65-3.6-.65,3.623.131,4.485-2.184,4.485-2.184a9.112,9.112,0,0,1-4.537.144l2.336-1.126a5,5,0,0,1-3.1-.912c5.1.127,5.59-2.41,5.59-2.41a4.411,4.411,0,0,1-3.709,1.028c1.371-.108,1.6-1.756,1.6-1.756-1.624-.081-3.594-2.553-3.594-2.553,2.306.931,3.422.172,3.422.172a6.279,6.279,0,0,1-2.545-.777c.759-.438,1.226-2.407,1.226-2.407-1.331,1.23-1.982.743-1.982.743a5.416,5.416,0,0,0,1.667-4.525c-.88,2.541-1.857.845-1.857.845.9-.206.793-1.987.733-2.89-.461.529-2.337.66-2.337.66l.26-2.557-1.145,2.694-1.245-.157,1.88,2.684c-.766,1.528-2.933-.509-2.933-.509a6.409,6.409,0,0,0,2.933,2.8c-.638,1.656-3.7.51-3.7.51a3.636,3.636,0,0,0,2.938,1.333c.515,1.46-2.81,2.487-2.81,2.487a4.062,4.062,0,0,0,3.1-.227c-.6,2.192-3.4,2.454-3.4,2.454a5.823,5.823,0,0,0,2.6,1.975c-.764,1.4-4.968-.748-4.968-.748,3.32,3.582,4.873,4.153,4.873,4.153.287,1.75-4.61.015-4.61.015a5.011,5.011,0,0,0,3.824,2.871c-1.01,1.2-4.138-.885-4.138-.885a9.241,9.241,0,0,0,3.744,4.017c-1.53,0-6.347-2.764-6.347-2.764.413,1.31,4.321,4.371,4.321,4.371-.625,1.352-2.447.132-2.447.132.884,2.5,3.835,3.992,3.835,3.992-.51,1.146-4.159-.415-4.159-.415.193.338.387.636.581.915h-2.058c0-.02-.013-.032-.011-.053a1.252,1.252,0,0,1,.151-.349c.221-.512-.6-1.06-.987-.661l-.087.59-.478-.4a.785.785,0,0,1-1.3-.42l.628-.029a2.443,2.443,0,0,0-1-2.033l.377-.37a1.452,1.452,0,0,1-.465-.915c-.09.209-.18.417-.269.626a1.189,1.189,0,0,0-.922-.383,5.011,5.011,0,0,1,.043,1.493,1.146,1.146,0,0,0-1.192-.444,1.382,1.382,0,0,1,1.033-2.05,3.765,3.765,0,0,1-.736-.951q.369-.187.737-.376a2.206,2.206,0,0,0,.319-1.741,1.087,1.087,0,0,1-1.563.274l.019,1.262-.737.074a2.968,2.968,0,0,1-.042,1.718,1.417,1.417,0,0,0-1.106-.848.745.745,0,0,1-.4-.108.59.59,0,0,1-.154-.4q-.075-.672-.152-1.343a1.726,1.726,0,0,1,1.16.117,1.591,1.591,0,0,0,.588-1.09,1.449,1.449,0,0,1-.67-2.312l-1.984.947a6.33,6.33,0,0,0,.656-2.245c-.2-.171-.508.086-.568.345s-.023.556-.189.764c-.179.223-.506.237-.783.314s-.569.354-.436.608a.647.647,0,0,1,.777.487,2.785,2.785,0,0,1-.478,1.816.648.648,0,0,1-.809.143c-.106-.076-.177-.194-.287-.264-.292-.189-.706.078-.795.415a1.674,1.674,0,0,0,.166,1.014l-.615.216c.136.373.271.746.407,1.119l.829-.355c.015.565.755.738,1.311.845s1.215.668.86,1.109l-.942-.074a1.517,1.517,0,0,1-.187.807,1.678,1.678,0,0,0-1.526-1.157.843.843,0,0,1-.076,1.349l1.152.482a.909.909,0,0,1-1.026.66,1.217,1.217,0,0,1-.923-.885c-.3.119.029.533.134.837.115.33-.116.671-.173,1.015s.327.787.572.538c0-.4.638-.509.912-.214a.954.954,0,0,1,.222.489h-5.413a5.255,5.255,0,0,0,1.307-1.51,18.389,18.389,0,0,1-3.27,1.51h-.22a5.131,5.131,0,0,0,2.028-2.213s-1.756,1.169-2.322.5a2.813,2.813,0,0,0,2.146-1.612s-2.749.974-2.588-.008a9.2,9.2,0,0,0,2.736-2.331s-2.36,1.206-2.789.419a3.265,3.265,0,0,0,1.459-1.109s-1.573-.146-1.909-1.377a2.278,2.278,0,0,0,1.738.127s-1.867-.576-1.578-1.4a2.041,2.041,0,0,0,1.65-.748s-1.719.643-2.076-.286a3.6,3.6,0,0,0,1.646-1.573s-1.217,1.144-1.646.286l1.054-1.507-.7.088-.643-1.512.146,1.435s-1.069-.078-1.311-.384c-.034.5-.1,1.52.41,1.636,0,0-.548.952-1.042-.474a3.04,3.04,0,0,0,.936,2.54s-.365.273-1.112-.417c0,0,.261,1.1.688,1.351a3.539,3.539,0,0,1-1.429.437s.626.426,1.921-.1c0,0-1.106,1.388-2.018,1.433,0,0,.126.925.9.986a2.477,2.477,0,0,1-2.082-.577s.274,1.424,3.138,1.353a2.816,2.816,0,0,1-1.741.512l1.311.632a5.1,5.1,0,0,1-2.546-.081s.483,1.3,2.518,1.226c0,0,.291.946-2.024.365,0,0-.217.936,1.526,1.571,0,0-.194.447-1.265.506a1.263,1.263,0,0,0,.425.3h-1a4.523,4.523,0,0,1-.983-1.189,1.753,1.753,0,0,0-.01,1.189h-3.812a2.125,2.125,0,0,0,.311-.375s-1.572-.146-1.909-1.377a2.28,2.28,0,0,0,1.739.127s-1.867-.576-1.578-1.4a2.039,2.039,0,0,0,1.649-.748s-1.718.643-2.076-.286a3.6,3.6,0,0,0,1.647-1.573s-1.217,1.144-1.647.286l1.055-1.507-.7.088-.643-1.512.145,1.435s-1.068-.078-1.311-.384c-.033.5-.1,1.52.411,1.636,0,0-.549.952-1.042-.474a3.036,3.036,0,0,0,.936,2.54s-.366.273-1.113-.417c0,0,.262,1.105.688,1.351a3.533,3.533,0,0,1-1.429.437s.627.426,1.922-.1c0,0-1.106,1.388-2.018,1.433a1.378,1.378,0,0,0,.442.813h-.924a3.337,3.337,0,0,1-.7-.4,1.123,1.123,0,0,0,.206.4h-.538a.2.2,0,0,0,0-.022,1.713,1.713,0,0,0-.557-.979l-.285-.309a.75.75,0,0,0,.731-.367,12.417,12.417,0,0,0-1.776-.368l.774-.422a.336.336,0,0,0,.145-.12c.1-.186-.171-.347-.38-.386a.569.569,0,0,0-.235-.841c.185-.215.068-.548-.087-.785a1.129,1.129,0,0,1-.3-.771c.042-.219.23-.381.317-.586a.7.7,0,0,0-.156-.759.665.665,0,0,0,.536-.454.9.9,0,0,0-.789-.274.6.6,0,0,1,.148-.542l-.379-.232a.9.9,0,0,0,.187-.408c.048-.561-.61-.31-.458.3.064.259.018.648-.248.639a.36.36,0,0,0,.285.256,2.28,2.28,0,0,1-.688.438.686.686,0,0,1,.525.157c.124.141.027.438-.157.4l.236.329a.387.387,0,0,0-.3.414.4.4,0,0,0-.666.226.53.53,0,0,0,.571.537,1.257,1.257,0,0,0-.725.35c-.173.213-.132.606.131.679-.175-.056-.344.154-.321.337a.837.837,0,0,0,.293.458,5.527,5.527,0,0,1-.537.475.427.427,0,0,1,.365.59.551.551,0,0,1-.711.234,1.581,1.581,0,0,0,.687.919l-1.222.193q.472.35.942.7h-3.149c1.367-.871,1.246-1.891,1.246-1.891-1.675.939-2.054-.4-2.054-.4,2.755-1.268,1.906-3.179,1.906-3.179-1.906,3.179-4.01,1.59-4.01,1.59a2.449,2.449,0,0,0,2.225-.573c-1.229-.067-1.452-.579-1.452-.579,2-.729,1.75-1.8,1.75-1.8-2.655.666-2.32-.418-2.32-.418,2.332.084,2.887-1.406,2.887-1.406a5.862,5.862,0,0,1-2.921.092l1.5-.724a3.22,3.22,0,0,1-2-.587c3.284.082,3.6-1.552,3.6-1.552a2.84,2.84,0,0,1-2.387.662c.883-.07,1.027-1.13,1.027-1.13-1.045-.053-2.314-1.644-2.314-1.644,1.485.6,2.2.111,2.2.111a4.056,4.056,0,0,1-1.639-.5c.489-.283.79-1.55.79-1.55-.856.792-1.276.478-1.276.478a3.483,3.483,0,0,0,1.073-2.913c-.566,1.636-1.195.544-1.195.544.583-.133.509-1.3.471-1.876-.278.351-1.5.44-1.5.44l.168-1.646-.738,1.735-.8-.1,1.21,1.728c-.493.983-1.888-.328-1.888-.328a4.13,4.13,0,0,0,1.888,1.8c-.41,1.066-2.381.328-2.381.328a2.34,2.34,0,0,0,1.892.858c.331.94-1.81,1.6-1.81,1.6a2.617,2.617,0,0,0,1.994-.146c-.386,1.412-2.189,1.58-2.189,1.58a3.747,3.747,0,0,0,1.673,1.272c-.492.9-3.2-.482-3.2-.482,2.138,2.306,3.136,2.674,3.136,2.674.185,1.126-2.967.01-2.967.01a3.226,3.226,0,0,0,2.462,1.848c-.65.77-2.665-.57-2.665-.57a5.954,5.954,0,0,0,2.411,2.586c-.985,0-4.086-1.78-4.086-1.78.266.844,2.782,2.814,2.782,2.814-.4.87-1.575.085-1.575.085a5.513,5.513,0,0,0,2.468,2.57c-.328.738-2.677-.267-2.677-.267.137.241.275.442.412.637h-4.151a5.946,5.946,0,0,0,2.435-2.879c-.261.471-1.283,1.623-5.231,2.54a10.274,10.274,0,0,0,3.525-4.394s-2.371,1.86-4.374,1.534c0,0,2.241-1.049,2.509-2.921,0,0-3.6,2.7-5.222,1.378,0,0,3.062-.508,3.869-2.437,0,0-3.158,1.015-4.073.609,0,0,3.15-.6,4.067-2.279,0,0-3.559,1.162-3.863-.767,0,0,1.752-.053,3.418-2.971,0,0-2.91,1.245-3.317.331a6.833,6.833,0,0,0,3.058-3.183s-1.453.972-1.95-.106c0,0,3.116-2.44,3.444-3.485,0,0-3.84,2.2-5.061,2.2a7.371,7.371,0,0,0,2.986-3.2s-2.494,1.661-3.3.706a4,4,0,0,0,3.049-2.289s-3.905,1.383-3.676-.012c0,0,1.237-.455,3.885-3.312,0,0-3.351,1.713-3.961.6a4.642,4.642,0,0,0,2.072-1.576s-2.233-.208-2.712-1.956a3.245,3.245,0,0,0,2.47.181s-2.651-.819-2.241-1.984a2.9,2.9,0,0,0,2.343-1.063s-2.441.914-2.949-.406a5.108,5.108,0,0,0,2.339-2.234s-1.729,1.625-2.339.407l1.5-2.14-.992.125-.913-2.149.207,2.039s-1.5-.1-1.864-.526c-.047.72-.131,2.14.585,2.3,0,0-.779,1.353-1.48-.673a4.315,4.315,0,0,0,1.329,3.608s-.52.388-1.58-.593c0,0,.372,1.57.977,1.92a5.009,5.009,0,0,1-2.03.619s.89.606,2.729-.137c0,0-1.571,1.971-2.866,2.036,0,0,.179,1.314,1.272,1.4a3.515,3.515,0,0,1-2.957-.82s.39,2.024,4.458,1.922a3.991,3.991,0,0,1-2.473.727l1.862.9a7.259,7.259,0,0,1-3.617-.115s.687,1.846,3.576,1.742c0,0,.414,1.343-2.874.518,0,0-.308,1.329,2.168,2.232,0,0-.277.634-1.8.718,0,0,.727.927,2.755.708,0,0-2.605,1.968-4.967-1.968,0,0-1.051,2.366,2.362,3.936,0,0-.47,1.661-2.545.5,0,0-.245,1.985,3.212,3.1,0,0-.159,2.12-4.159.678v-3.223c-1.479,2.524-4.946,2.874-4.946,2.874l1.394-1.3c-2.011.528-2.319.277-2.319.277,3.253-1.35,2.843-2.967,2.843-2.967-3.276,1.533-3.384-.054-3.384-.054,2.1-.678,1.948-1.881,1.948-1.881-1.259.7-1.543-.3-1.543-.3,2.069-.952,1.431-2.386,1.431-2.386-1.431,2.386-3.011,1.193-3.011,1.193a1.837,1.837,0,0,0,1.671-.43c-.923-.05-1.091-.435-1.091-.435,1.5-.547,1.314-1.353,1.314-1.353-1.993.5-1.742-.314-1.742-.314,1.752.063,2.168-1.056,2.168-1.056a4.4,4.4,0,0,1-2.193.069l1.129-.544a2.42,2.42,0,0,1-1.5-.441c2.466.062,2.7-1.165,2.7-1.165a2.131,2.131,0,0,1-1.793.5c.663-.052.771-.849.771-.849-.785-.039-1.737-1.234-1.737-1.234,1.115.45,1.654.083,1.654.083a3.049,3.049,0,0,1-1.231-.375c.368-.212.592-1.164.592-1.164-.643.594-.957.359-.957.359a2.618,2.618,0,0,0,.806-2.188c-.425,1.229-.9.409-.9.409.442-.1.383-.98.354-1.409-.208.263-1.129.33-1.129.33l.125-1.235-.553,1.3-.6-.076.909,1.3c-.37.738-1.418-.247-1.418-.247a3.1,3.1,0,0,0,1.418,1.355c-.309.8-1.788.246-1.788.246a1.758,1.758,0,0,0,1.42.645c.249.706-1.358,1.2-1.358,1.2a1.964,1.964,0,0,0,1.5-.11c-.291,1.06-1.645,1.187-1.645,1.187a2.822,2.822,0,0,0,1.257.955c-.37.677-2.4-.362-2.4-.362a7.923,7.923,0,0,0,2.356,2.008c.139.846-2.229.007-2.229.007a2.424,2.424,0,0,0,1.849,1.388c-.488.579-2-.428-2-.428a4.467,4.467,0,0,0,1.811,1.942,12.411,12.411,0,0,1-3.069-1.336c.2.634,2.089,2.113,2.089,2.113-.3.654-1.183.064-1.183.064a4.142,4.142,0,0,0,1.854,1.93c-.246.554-2.011-.2-2.011-.2,1.011,1.77,2.073,1.8,2.073,1.8-.185,1.17-2.342.466-2.342.466.555,1.019,2.465,1.381,2.465,1.381-.555.247-2.47-.369-2.47-.369.49,1.17,2.347,1.478,2.347,1.478-.987.8-3.167-.836-3.167-.836.163,1.135,1.521,1.772,1.521,1.772a4.236,4.236,0,0,1-2.652-.931,5.978,5.978,0,0,0,1.855,2.449c-.065.033-.13.063-.2.1a7.446,7.446,0,0,1-2.034-.808l.116-.108-.206.052a1.856,1.856,0,0,1-.539-.507,3.824,3.824,0,0,0,.3.568c-2.993.739-3.473.355-3.473.355,5.5-2.282,4.807-5.016,4.807-5.016-5.538,2.591-5.72-.093-5.72-.093,3.544-1.145,3.293-3.18,3.293-3.18-2.128,1.192-2.609-.511-2.609-.511,3.5-1.609,2.42-4.036,2.42-4.036-2.42,4.036-5.091,2.018-5.091,2.018,2.078.225,2.824-.726,2.824-.726-1.56-.086-1.843-.736-1.843-.736,2.539-.925,2.223-2.288,2.223-2.288-3.371.846-2.947-.531-2.947-.531,2.962.107,3.666-1.786,3.666-1.786a7.43,7.43,0,0,1-3.708.118l1.909-.92a4.1,4.1,0,0,1-2.535-.745c4.17.1,4.57-1.97,4.57-1.97a3.606,3.606,0,0,1-3.032.84c1.121-.088,1.3-1.435,1.3-1.435-1.327-.067-2.937-2.087-2.937-2.087,1.885.761,2.8.14,2.8.14a5.131,5.131,0,0,1-2.081-.635c.621-.358,1-1.967,1-1.967-1.087,1.005-1.62.607-1.62.607a4.425,4.425,0,0,0,1.363-3.7c-.719,2.077-1.519.69-1.519.69.735-.168.649-1.624.6-2.361-.377.431-1.911.538-1.911.538l.213-2.089-.936,2.2-1.017-.128,1.536,2.193c-.625,1.25-2.4-.416-2.4-.416a5.244,5.244,0,0,0,2.4,2.29c-.521,1.353-3.022.416-3.022.416a2.969,2.969,0,0,0,2.4,1.09c.421,1.194-2.3,2.033-2.3,2.033a3.322,3.322,0,0,0,2.532-.185c-.492,1.792-2.781,2.006-2.781,2.006a4.761,4.761,0,0,0,2.125,1.614c-.626,1.145-4.062-.611-4.062-.611,2.715,2.928,3.984,3.395,3.984,3.395.234,1.43-3.768.012-3.768.012a4.1,4.1,0,0,0,3.125,2.347c-.825.978-3.382-.724-3.382-.724a7.553,7.553,0,0,0,3.06,3.284c-1.251,0-5.188-2.26-5.188-2.26.338,1.072,3.532,3.573,3.532,3.573-.51,1.105-2,.108-2,.108a7,7,0,0,0,3.135,3.263c-.416.937-3.4-.339-3.4-.339a10.093,10.093,0,0,0,.608.942,1.308,1.308,0,0,1-.639-.468,1.06,1.06,0,0,1-1.148.913q-.012-.8-.024-1.594l-.831.353a.53.53,0,0,0-.39-.73,2.3,2.3,0,0,0-.3-1.6q-.157.566-.313,1.13a2.172,2.172,0,0,0-1.184-.138,1.293,1.293,0,0,1,0,1.761,3.48,3.48,0,0,1,1.09-.4c-.249.321.087.77.43.986s.776.467.762.872l-2.051-.219a.665.665,0,0,1,.036-.58,2.459,2.459,0,0,0-2.249-.425,1.835,1.835,0,0,0,.974.488c-.133.572.465,1.028.991,1.291s1.147.642,1.11,1.227a1.192,1.192,0,0,1-1.656-.846.832.832,0,0,0-.33,1.48,2.111,2.111,0,0,0-.573.78,1.438,1.438,0,0,1,1.311,1.211l-.948,0c-.06-.207-.118-.415-.177-.623a.4.4,0,0,0-.553.358,1.006,1.006,0,0,0-1.154-.618.576.576,0,0,1,.131.99,1.344,1.344,0,0,0,.713.365l.028.934.989.227-1.089.465a4.186,4.186,0,0,1,.458,1.03,15.485,15.485,0,0,1-2.151-1.868,1.6,1.6,0,0,1-.964.441.838.838,0,0,0-.382-.584.592.592,0,0,0-.268-.792,1.73,1.73,0,0,0-.921-.132l2.054-1.521-2.079-.327a2.7,2.7,0,0,0,1.169-1.566.938.938,0,0,1-1.21-.4.727.727,0,0,1,.62-1,9.6,9.6,0,0,1-.913-.808,1.437,1.437,0,0,0,.5-.779c.038-.312-.248-.67-.547-.573.449-.124.518-.8.225-1.157a2.146,2.146,0,0,0-1.236-.6.9.9,0,0,0,.972-.914.686.686,0,0,0-1.134-.386.655.655,0,0,0-.508-.7l.4-.56c-.314.069-.481-.436-.269-.677a1.173,1.173,0,0,1,.9-.267,3.863,3.863,0,0,1-1.172-.745.614.614,0,0,0,.485-.436c-.454.015-.531-.647-.421-1.086.257-1.038-.863-1.465-.78-.511a1.528,1.528,0,0,0,.317.7l-.645.395a1.016,1.016,0,0,1,.253.923,1.533,1.533,0,0,0-1.343.466,1.13,1.13,0,0,0,.911.773,1.19,1.19,0,0,0-.265,1.291c.149.35.468.625.539,1a1.924,1.924,0,0,1-.509,1.312c-.265.4-.464.97-.149,1.336a.967.967,0,0,0-.4,1.43c-.356.067-.822.342-.647.659a.582.582,0,0,0,.248.2l1.317.719a21.015,21.015,0,0,0-3.022.625,1.273,1.273,0,0,0,1.242.625l-.484.527a2.921,2.921,0,0,0-.949,1.666.685.685,0,0,0,.325.693c-.111.418-.928.178-1.073.585a.547.547,0,0,0,.038.363,5.031,5.031,0,0,0,1.079,1.751,1.617,1.617,0,0,0-1.413.992c-.154.589.623,1.261,1.067.844q-.3.52-.581,1.051l.736.517a9.3,9.3,0,0,0-1.2,1.219.426.426,0,0,1,.089.732.913.913,0,0,1,.9.534h-3.677l.443-.254-.972-.812a2,2,0,0,0,.577-.25,1.937,1.937,0,0,0-1.288-.7c.3-.094.409-.444.516-.736s.342-.62.648-.561a.25.25,0,0,1,.052-.43,5.363,5.363,0,0,0-.7-.716l.432-.3q-.163-.312-.341-.618c.261.246.718-.149.627-.5a.949.949,0,0,0-.83-.582,2.94,2.94,0,0,0,.634-1.029.323.323,0,0,0,.023-.213c-.086-.239-.566-.1-.632-.344a.4.4,0,0,0,.191-.407,1.705,1.705,0,0,0-.557-.979l-.285-.309a.751.751,0,0,0,.731-.368,12.53,12.53,0,0,0-1.776-.367l.774-.422a.337.337,0,0,0,.145-.12c.1-.186-.17-.347-.38-.387a.567.567,0,0,0-.234-.84c.184-.215.067-.548-.088-.785a1.129,1.129,0,0,1-.3-.771c.041-.219.229-.381.316-.587a.7.7,0,0,0-.155-.758.665.665,0,0,0,.535-.454.9.9,0,0,0-.789-.274.6.6,0,0,1,.149-.542l-.379-.232a.9.9,0,0,0,.186-.409c.049-.56-.609-.31-.458.3.064.259.019.648-.248.638a.359.359,0,0,0,.285.257,2.26,2.26,0,0,1-.688.437.7.7,0,0,1,.526.157c.124.142.025.439-.158.4.079.109.158.219.236.329a.386.386,0,0,0-.3.413.4.4,0,0,0-.666.227.531.531,0,0,0,.572.537c-.1.023-.2.054-.292.087a3.078,3.078,0,0,0-1.3-1.061c-.045.218-.089.436-.134.654a3.965,3.965,0,0,0-1.385-.743,2.493,2.493,0,0,1-.458,1.54,1.118,1.118,0,0,0-2.1.71c-.363-.036-.443-.535-.358-.888s.22-.773-.024-1.042c-.175-.193-.479-.214-.672-.39-.339-.31-.111-.929.3-1.128a2.154,2.154,0,0,1,1.355-.019,1.1,1.1,0,0,0-1.109-1.325.581.581,0,0,0-.263-.994c-.3-.033-.564.175-.843.289s-.7.062-.75-.234c-.084-.478.776-.466,1.051-.866a.959.959,0,0,1-.359-.735l2.207-.232a2.64,2.64,0,0,1-.36-1.631c.069-.631.349-1.33-.011-1.853l-.959.549-.141-.751a.684.684,0,0,1-.676-.181.641.641,0,0,0,.039-1.017,3.5,3.5,0,0,0-.424-.2c-.6-.324-.656-1.151-.632-1.834a2.914,2.914,0,0,0-1.657,1.276l-.527-.875c-.312.177-.263.65-.082.96a2.335,2.335,0,0,1,.476.948c.022.357-.457.712-.685.435-.367.159-.268.767.081.963a1.655,1.655,0,0,0,1.172.02l.351,1.479a.482.482,0,0,1,0,.32c-.151.315-.8.1-.882.442q-.216-.7-.433-1.394a.687.687,0,0,0-.6.887,2.287,2.287,0,0,0-1.234-1.149.782.782,0,0,0,.7-.861,1.213,1.213,0,0,1-2.029-1.042.637.637,0,0,0-.666.322,1.341,1.341,0,0,1,.72,1.561,1.727,1.727,0,0,1,.97.176.594.594,0,0,1,.194.853l-.659-.308a1.275,1.275,0,0,0,.3,1.118,1.061,1.061,0,0,0-.872.555,2.992,2.992,0,0,1,1.712.082l-.353.625a1.654,1.654,0,0,1,.865.109.569.569,0,0,1,.289.734c-.217.373-.783.2-1.164,0s-.986-.308-1.131.1q.182-.527.364-1.053l-1.3.3a16.893,16.893,0,0,0-.067-1.729c-.332-.1-.391.442-.377.789a1.468,1.468,0,0,1-.869,1.375l1.261.041a2.554,2.554,0,0,0,.018,1.267,2.249,2.249,0,0,0-1.586.508,2.627,2.627,0,0,1,1.387.687,14.33,14.33,0,0,0-2.144.615,2.484,2.484,0,0,0,.059-1.065c-.12.057-.224.1-.34.148,0-.149-.009-.3,0-.446a5.525,5.525,0,0,1-.308.581c-5.941,2.566-6.161-.393-6.161-.393,4.22-1.364,3.921-3.787,3.921-3.787-2.534,1.419-3.107-.608-3.107-.608,4.166-1.917,2.882-4.805,2.882-4.805-2.882,4.805-6.062,2.4-6.062,2.4,2.475.267,3.363-.865,3.363-.865-1.857-.1-2.2-.876-2.2-.876,3.023-1.1,2.646-2.724,2.646-2.724-4.013,1.007-3.507-.632-3.507-.632,3.526.127,4.364-2.126,4.364-2.126a8.864,8.864,0,0,1-4.415.14l2.273-1.1a4.87,4.87,0,0,1-3.018-.887c4.965.124,5.44-2.346,5.44-2.346a4.292,4.292,0,0,1-3.609,1c1.335-.106,1.553-1.709,1.553-1.709-1.58-.079-3.5-2.485-3.5-2.485,2.244.906,3.331.167,3.331.167a6.121,6.121,0,0,1-2.478-.756c.739-.427,1.193-2.343,1.193-2.343-1.294,1.2-1.929.724-1.929.724a5.27,5.27,0,0,0,1.623-4.4c-.856,2.473-1.807.822-1.807.822.874-.2.772-1.933.713-2.812-.448.514-2.274.642-2.274.642l.252-2.488-1.113,2.622-1.212-.153,1.829,2.612c-.745,1.487-2.855-.5-2.855-.5a6.243,6.243,0,0,0,2.855,2.727c-.62,1.611-3.6.5-3.6.5a3.536,3.536,0,0,0,2.859,1.3c.5,1.421-2.736,2.421-2.736,2.421a3.957,3.957,0,0,0,3.016-.221c-.585,2.134-3.31,2.388-3.31,2.388a5.664,5.664,0,0,0,2.529,1.923c-.745,1.363-4.836-.728-4.836-.728,3.232,3.486,4.743,4.042,4.743,4.042.279,1.7-4.486.015-4.486.015a4.876,4.876,0,0,0,3.721,2.794c-.983,1.165-4.027-.862-4.027-.862a8.988,8.988,0,0,0,3.644,3.91c-1.489,0-6.177-2.69-6.177-2.69.4,1.275,4.2,4.254,4.2,4.254-.607,1.316-2.381.128-2.381.128.86,2.436,3.733,3.886,3.733,3.886-.5,1.115-4.048-.4-4.048-.4,2.033,3.562,4.172,3.626,4.172,3.626-.372,2.355-4.715.937-4.715.937,1.118,2.052,4.964,2.781,4.964,2.781-1.118.5-4.972-.743-4.972-.743.985,2.355,4.723,2.974,4.723,2.974-1.986,1.611-6.375-1.682-6.375-1.682.327,2.285,3.062,3.566,3.062,3.566-2.444.4-5.338-1.873-5.338-1.873a12.543,12.543,0,0,0,4.3,5.364c-4.093-.951-5.606-2.108-6.166-2.789V272.243c-2.679,4.57-8.954,5.2-8.954,5.2l2.522-2.352c-3.641.956-4.2.5-4.2.5,5.891-2.443,5.148-5.371,5.148-5.371-5.931,2.774-6.126-.1-6.126-.1,3.795-1.227,3.526-3.406,3.526-3.406-2.278,1.276-2.794-.547-2.794-.547,3.747-1.724,2.592-4.321,2.592-4.321-2.592,4.321-5.452,2.16-5.452,2.16,2.226.24,3.024-.778,3.024-.778-1.67-.092-1.973-.787-1.973-.787,2.718-.992,2.379-2.451,2.379-2.451-3.609.906-3.154-.568-3.154-.568,3.171.114,3.925-1.912,3.925-1.912a7.973,7.973,0,0,1-3.971.126l2.045-.986a4.379,4.379,0,0,1-2.715-.8c4.465.112,4.893-2.109,4.893-2.109a3.862,3.862,0,0,1-3.246.9c1.2-.1,1.4-1.537,1.4-1.537-1.421-.072-3.146-2.235-3.146-2.235,2.018.815,3,.151,3,.151a5.5,5.5,0,0,1-2.229-.681c.665-.383,1.073-2.107,1.073-2.107-1.164,1.077-1.735.651-1.735.651a4.737,4.737,0,0,0,1.46-3.961c-.77,2.224-1.625.739-1.625.739.786-.18.694-1.739.641-2.529-.4.463-2.046.577-2.046.577l.228-2.238-1,2.359-1.09-.138,1.645,2.35c-.669,1.337-2.567-.446-2.567-.446a5.613,5.613,0,0,0,2.567,2.452c-.558,1.449-3.236.446-3.236.446a3.178,3.178,0,0,0,2.571,1.166c.45,1.279-2.46,2.178-2.46,2.178a3.558,3.558,0,0,0,2.711-.2c-.526,1.919-2.977,2.148-2.977,2.148a5.091,5.091,0,0,0,2.275,1.729c-.669,1.226-4.349-.655-4.349-.655,2.906,3.136,4.265,3.635,4.265,3.635.252,1.532-4.034.014-4.034.014a4.384,4.384,0,0,0,3.346,2.512c-.883,1.049-3.622-.774-3.622-.774a8.091,8.091,0,0,0,3.278,3.516c-1.339,0-5.556-2.42-5.556-2.42.361,1.148,3.782,3.826,3.782,3.826-.546,1.184-2.141.116-2.141.116a7.5,7.5,0,0,0,3.357,3.494c-.446,1-3.641-.363-3.641-.363,1.829,3.2,3.752,3.261,3.752,3.261-.335,2.118-4.241.842-4.241.842,1.006,1.846,4.465,2.5,4.465,2.5-1.005.446-4.472-.669-4.472-.669a2.837,2.837,0,0,0,.195.381,26.133,26.133,0,0,0-2.633-.649l.8-.72-1.431-.4a1.342,1.342,0,0,0,.793-.859l-.594-.22a1.29,1.29,0,0,0,.646-.571,6.151,6.151,0,0,1-1.689-.317l.808-.462-1.758-1.467a3.648,3.648,0,0,0,1.044-.453,3.491,3.491,0,0,0-2.328-1.27c.537-.171.739-.8.932-1.332s.618-1.12,1.172-1.013a.451.451,0,0,1,.094-.777,9.862,9.862,0,0,0-1.274-1.295l.781-.549q-.3-.564-.617-1.117c.472.443,1.3-.27,1.133-.9a1.718,1.718,0,0,0-1.5-1.053,5.347,5.347,0,0,0,1.146-1.86.588.588,0,0,0,.04-.385c-.154-.433-1.022-.178-1.14-.621a.728.728,0,0,0,.345-.737,3.1,3.1,0,0,0-1.008-1.77c-.172-.186-.342-.372-.514-.559a1.352,1.352,0,0,0,1.32-.664,22.52,22.52,0,0,0-3.21-.664l1.4-.763a.615.615,0,0,0,.263-.216c.186-.337-.309-.629-.687-.7a1.028,1.028,0,0,0-.424-1.519c.334-.389.122-.991-.159-1.419a2.049,2.049,0,0,1-.541-1.394c.075-.4.414-.689.573-1.061a1.264,1.264,0,0,0-.282-1.371,1.205,1.205,0,0,0,.969-.821,1.632,1.632,0,0,0-1.428-.5,1.082,1.082,0,0,1,.269-.98q-.342-.21-.685-.419a1.629,1.629,0,0,0,.337-.738c.089-1.014-1.1-.561-.828.541.117.468.034,1.171-.447,1.154a.65.65,0,0,0,.514.464,4.114,4.114,0,0,1-1.244.791,1.248,1.248,0,0,1,.95.283c.225.256.048.793-.285.719l.428.6a.7.7,0,0,0-.541.747.728.728,0,0,0-1.2.41.958.958,0,0,0,1.033.97,2.272,2.272,0,0,0-1.312.633c-.312.384-.238,1.1.238,1.228-.318-.1-.621.278-.58.609a1.516,1.516,0,0,0,.529.827,10.108,10.108,0,0,1-.969.858.774.774,0,0,1,.659,1.067,1,1,0,0,1-1.287.423,2.869,2.869,0,0,0,1.242,1.663l-2.207.348,2.181,1.616a1.828,1.828,0,0,0-.978.139.63.63,0,0,0-.286.842.928.928,0,0,0-.251,1.312c-.474-.15-1.145-.212-1.319.253-.2.54.548.913,1.119,1.005a2.546,2.546,0,0,0-1.407,1.46,1.251,1.251,0,0,1,.481.408,22.953,22.953,0,0,1-8.888,3.156l3.835-3.577c-5.536,1.454-6.384.762-6.384.762,8.956-3.715,7.826-8.166,7.826-8.166-9.016,4.218-9.314-.151-9.314-.151,5.771-1.864,5.362-5.178,5.362-5.178-3.464,1.94-4.248-.832-4.248-.832,5.7-2.621,3.941-6.571,3.941-6.571-3.941,6.571-8.29,3.286-8.29,3.286,3.385.365,4.6-1.183,4.6-1.183-2.54-.14-3-1.2-3-1.2,4.134-1.507,3.619-3.725,3.619-3.725-5.488,1.377-4.8-.864-4.8-.864,4.821.174,5.968-2.908,5.968-2.908a12.112,12.112,0,0,1-6.038.191l3.109-1.5c-3-.142-4.128-1.213-4.128-1.213,6.789.169,7.44-3.208,7.44-3.208-2.744,2.047-4.936,1.369-4.936,1.369,1.825-.144,2.125-2.337,2.125-2.337-2.162-.109-4.784-3.4-4.784-3.4,3.069,1.239,4.555.229,4.555.229a8.373,8.373,0,0,1-3.389-1.035c1.011-.583,1.632-3.2,1.632-3.2-1.77,1.637-2.638.989-2.638.989,2.72-2.289,2.219-6.023,2.219-6.023-1.17,3.382-2.471,1.125-2.471,1.125,1.2-.274,1.055-2.644.975-3.846-.613.7-3.11.878-3.11.878l.346-3.4-1.524,3.586-1.656-.209,2.5,3.572c-1.018,2.034-3.9-.678-3.9-.678a8.534,8.534,0,0,0,3.9,3.728c-.849,2.2-4.922.678-4.922.678,1.188,1.865,3.91,1.774,3.91,1.774.685,1.944-3.74,3.311-3.74,3.311a5.411,5.411,0,0,0,4.123-.3c-.8,2.918-4.527,3.266-4.527,3.266a7.739,7.739,0,0,0,3.459,2.629c-1.018,1.865-6.613-.995-6.613-.995,4.419,4.768,6.486,5.527,6.486,5.527.381,2.329-6.135.02-6.135.02,2.054,3.705,5.088,3.821,5.088,3.821-1.343,1.594-5.507-1.178-5.507-1.178a12.309,12.309,0,0,0,4.984,5.347c-2.037,0-8.447-3.679-8.447-3.679.549,1.744,5.749,5.817,5.749,5.817-.83,1.8-3.255.176-3.255.176,1.175,3.33,5.1,5.312,5.1,5.312-.679,1.525-5.536-.552-5.536-.552,2.781,4.871,5.706,4.959,5.706,4.959-.509,3.22-6.448,1.28-6.448,1.28,1.529,2.806,6.787,3.8,6.787,3.8-1.527.678-6.8-1.017-6.8-1.017,1.348,3.22,6.46,4.067,6.46,4.067-2.716,2.2-8.718-2.3-8.718-2.3.448,3.124,4.187,4.876,4.187,4.876-3.342.543-7.3-2.561-7.3-2.561,1.578,4.421,5.884,7.334,5.884,7.334-6.59-1.53-8.295-3.453-8.731-4.24a9.755,9.755,0,0,0,6.021,5.7c0,1.017-2.984.164-2.984.164,1.429,3.046,3.833,3.062,3.833,3.062v1.634c-1.585,1.635-2.623,4.171-4.861,4.386l.816-5.811a8.443,8.443,0,0,1-4.135.93,16.712,16.712,0,0,1,2.616-3.6,7.06,7.06,0,0,0-3.692-.5,16.852,16.852,0,0,0-.508-5.629,5.867,5.867,0,0,0-.846,6.993l-4.078-.811c1.861.37-2.111,2.714-2.016,2.659-1.365.788-3.377-1.328-3.282,1.5-.462-.242-.917-.458-1.366-.654l-.183-1.842s5.957-1.643,9.147-9.027c0,0-4.225,5.453-9.762,3.673,0,0,4.367-1.633,5.468-5.83,0,0-2.262,3.06-8.932,2.336,0,0,4.488-.82,5.994-4.941,0,0-3.092,2.719-5.908,1.314a10.887,10.887,0,0,0,5.725-3.842s-6.851,1.78-8.164-1.687c0,0,6.669-3.172,7.229-5.9a6.061,6.061,0,0,1-7.135,1.211s5.827-4.224,6.479-7.547c0,0-3.476,2.393-5.354.8,0,0,6.424-3.513,7.764-8.034,0,0-4.573,4-8.326,3.912,0,0,3.923-2.878,4.636-6.218,0,0-2.409,3.384-7.558,1.474,0,0,5.549-1.441,7.332-5.283,0,0-3.566,2.437-7.038,1.781,0,0,2.178-.814,2.543-2.187,0,0-2.543,1.437-4.326.875,0,0,6.189-2.524,9.147-6.509,0,0-6.519,3.229-8.678-.05,0,0,2.083.711,4-2.175,0,0-2.319,1.592-4.425.1a23.387,23.387,0,0,0,2.492-.365s-3.773-1.567-4.561-3.5c0,0,3.385,1.763,4.817,1.555a4.716,4.716,0,0,1-1.2-2.645l-2.029-.656s3.343-.562,4.751-4.873c0,0-2.9,2.823-5.484,2.63a33.309,33.309,0,0,0,2.293-2.817l-2.815-2.717s3.378-2.437,3.847-3.561c0,0-2.533,1.78-1.5-2.717,0,0-1.752,3.161-1.673.269,0,0-2.644,3.666-2.456,1.511l1.155-4.56-1.906,1.187-.939-3.749a4.772,4.772,0,0,1-2.326,4.381s.825,1.991,1.67,1.429c0,0-1.408,3.467-3.754,3.654,0,0,.845,2.343,3.1,2.156,0,0-2.583,6.584-5.045,6.9l2.163,2.759a6.631,6.631,0,0,1-8.2-.449s1.024,8.693,4.5,12.251c0,0-2.9,4.026-8.063.653l-1.53.44c.546-.507,1.17-1.126,1.884-1.9,0,0-4.036,2.063-4.771.718a5.584,5.584,0,0,0,2.5-1.9s-2.689-.251-3.266-2.356a3.905,3.905,0,0,0,2.974.218s-3.192-.986-2.7-2.388a3.489,3.489,0,0,0,2.821-1.28s-2.939,1.1-3.551-.489a6.155,6.155,0,0,0,2.816-2.69s-2.081,1.956-2.816.489l1.8-2.577-1.2.15-1.1-2.586.25,2.454s-1.8-.125-2.244-.633c-.058.867-.159,2.577.7,2.775,0,0-.939,1.628-1.784-.812a5.2,5.2,0,0,0,1.6,4.346s-.626.467-1.9-.714c0,0,.447,1.89,1.177,2.311a6.044,6.044,0,0,1-2.445.747s1.071.728,3.286-.166c0,0-1.892,2.374-3.451,2.452,0,0,.216,1.582,1.532,1.686a4.238,4.238,0,0,1-3.561-.987s.222,1.137,1.925,1.818c-.7.511-6.1,4.3-8.638,2.242,0,0,5.111-.847,6.459-4.068,0,0-5.272,1.7-6.8,1.017,0,0,5.258-1,6.787-3.8,0,0-5.938,1.939-6.447-1.281,0,0,2.924-.088,5.7-4.959,0,0-4.857,2.078-5.536.552,0,0,3.929-1.981,5.1-5.312,0,0-2.425,1.623-3.255-.176,0,0,5.2-4.073,5.749-5.817,0,0-6.409,3.679-8.447,3.679a12.3,12.3,0,0,0,4.984-5.347s-4.164,2.772-5.507,1.178c0,0,3.033-.116,5.088-3.82,0,0-6.517,2.308-6.135-.021,0,0,2.066-.759,6.486-5.526,0,0-5.594,2.859-6.613,1a7.748,7.748,0,0,0,3.459-2.629s-3.726-.348-4.526-3.266a5.411,5.411,0,0,0,4.122.3s-4.425-1.367-3.74-3.31c0,0,2.722.09,3.91-1.774,0,0-4.073,1.525-4.922-.678a8.53,8.53,0,0,0,3.9-3.729s-2.885,2.712-3.9.678l2.5-3.572-1.656.209-1.524-3.585.346,3.4s-2.5-.174-3.11-.877c-.08,1.2-.22,3.572.975,3.845,0,0-1.3,2.257-2.472-1.124a7.208,7.208,0,0,0,2.22,6.022s-.868.648-2.638-.989c0,0,.621,2.62,1.632,3.2a8.363,8.363,0,0,1-3.389,1.034s1.486,1.01,4.555-.229c0,0-2.623,3.29-4.783,3.4,0,0,.3,2.193,2.124,2.337,0,0-2.192.678-4.937-1.368,0,0,.652,3.377,7.44,3.207,0,0-1.126,1.071-4.127,1.213l3.109,1.5a12.118,12.118,0,0,1-6.038-.192s1.147,3.082,5.968,2.908c0,0,.692,2.241-4.8.864,0,0-.515,2.218,3.618,3.725,0,0-.461,1.058-3,1.2,0,0,1.215,1.548,4.6,1.183,0,0-4.348,3.285-8.289-3.285,0,0-1.755,3.95,3.941,6.57,0,0-.784,2.772-4.248.832,0,0-.409,3.314,5.362,5.178,0,0-.3,4.37-9.314.151,0,0-1.13,4.452,7.826,8.167,0,0-.848.692-6.384-.763l3.835,3.577a22.673,22.673,0,0,1-9.524-3.58,11.881,11.881,0,0,0,3.461-4.749c-.389.685-1.564,2.052-5.08,3.441a13.582,13.582,0,0,1-1.634-1.774,16.887,16.887,0,0,0,3.313-5.39s-4.739,3.717-8.741,3.067c0,0,4.478-2.1,5.014-5.839,0,0-7.188,5.392-10.439,2.754,0,0,6.121-1.015,7.735-4.871,0,0-6.312,2.029-8.141,1.218,0,0,6.3-1.2,8.127-4.555,0,0-7.112,2.322-7.721-1.534,0,0,3.5-.1,6.832-5.938,0,0-5.816,2.488-6.629.662,0,0,4.7-2.374,6.112-6.362,0,0-2.9,1.944-3.9-.211,0,0,6.228-4.877,6.885-6.966,0,0-7.677,4.406-10.115,4.406a14.732,14.732,0,0,0,5.967-6.4s-4.986,3.319-6.594,1.411c0,0,3.633-.139,6.093-4.575,0,0-7.8,2.764-7.346-.024,0,0,2.473-.91,7.766-6.618,0,0-6.7,3.424-7.918,1.191a9.263,9.263,0,0,0,4.141-3.148s-4.462-.417-5.42-3.911c0,0,2.7,1.377,4.936.362,0,0-5.3-1.637-4.478-3.964,0,0,3.26.108,4.682-2.124,0,0-4.878,1.826-5.894-.812a10.221,10.221,0,0,0,4.675-4.465s-3.456,3.247-4.675.812l2.995-4.277-1.983.249-1.825-4.293.414,4.074s-2.99-.208-3.724-1.05c-.1,1.439-.264,4.277,1.168,4.6,0,0-1.558,2.7-2.96-1.346,0,0-.6,4.471,2.657,7.212,0,0-1.038.775-3.158-1.184,0,0,.744,3.137,1.954,3.836a10.018,10.018,0,0,1-4.058,1.239s1.78,1.209,5.455-.275c0,0-3.141,3.94-5.729,4.069,0,0,.358,2.626,2.544,2.8,0,0-2.625.812-5.91-1.639,0,0,.779,4.044,8.908,3.841,0,0-1.349,1.282-4.942,1.453l3.722,1.794s-4.094.962-7.229-.229c0,0,1.372,3.69,7.146,3.482,0,0,.828,2.683-5.743,1.034,0,0-.616,2.657,4.333,4.462,0,0-.552,1.267-3.594,1.434,0,0,1.454,1.854,5.507,1.416,0,0-4.066,3.065-8.268-1.646a12.068,12.068,0,0,0,1.158-1.534,16.94,16.94,0,0,1-2.694-.558c-.041-.067-.082-.127-.123-.2,0,0-.024.058-.055.146-2.907-.865-7.148-2.894-8.421-7.54,0,0,5.627,2.868,10.286.754,0,0-11.043-3.41-9.333-8.26,0,0,6.792.225,9.756-4.426,0,0-10.163,3.806-12.281-1.691,0,0,6.777-2.96,9.74-9.3,0,0-7.2,6.765-9.74,1.691l6.241-8.912-4.133.521-3.8-8.946.864,8.489s-.828-.063-1.945-.222V296.349h1200V156.9A8.247,8.247,0,0,1,3758.12,154.939ZM2575.2,198.38a8.085,8.085,0,0,0,4.006,3.8c-4,1.353-8.6,2.223-9.953-.257A21.9,21.9,0,0,0,2575.2,198.38Zm-5.63,14.846a7.793,7.793,0,0,0,.913-.447,9.648,9.648,0,0,0,2.382,3.036C2570.729,215.76,2569.26,215.09,2569.566,213.226Zm4.188,9.316a13.7,13.7,0,0,0,1.526-.474l1,.932A22.62,22.62,0,0,1,2573.754,222.542Zm-.695-11.415c1.116-.8,2.509-1.882,4.181-3.338a13.534,13.534,0,0,0,3.874,1.881S2580.823,213.842,2573.059,211.127ZM3736.11,256.248l.162-1.9a3.792,3.792,0,0,1-2.357-.552l2.843-1.111a1.373,1.373,0,0,1-.534-1.973,3.983,3.983,0,0,1,1.847-1.393c-.709-.086-1.658-.544-1.386-1.2a1.177,1.177,0,0,1,.521-.494l.15-.091a12.538,12.538,0,0,0,3.928,5.216c-.877.605-1.966,1.006-2.653.289A6.558,6.558,0,0,1,3736.11,256.248Zm10.091.052a1.855,1.855,0,0,0-.47.422,2.8,2.8,0,0,0,.084,3.426c-.042.181-.085.361-.122.543a6.791,6.791,0,0,0-1.616.254l.741.6a4.9,4.9,0,0,0-1.066.68,18.337,18.337,0,0,1-4.45-.288,1.521,1.521,0,0,1,1.2-1.452q-.278-.293-.554-.587l1.758-.24a5.319,5.319,0,0,1-2.348-.713l1.5-.932a.756.756,0,1,1-.27-1.455,1.616,1.616,0,0,1,.325-2.421,3.232,3.232,0,0,1,1.511-.534,25.136,25.136,0,0,0,4.549,2.5A1.457,1.457,0,0,0,3746.2,256.3Zm10.954-21.508a1.312,1.312,0,0,0-.526-.378.966.966,0,0,0,.113-.176c.488-.021,1-.06,1.525-.117A8.685,8.685,0,0,1,3757.155,234.792Zm-92.6-42.365c-.173-.41-.146-.073-.1.567A.509.509,0,0,0,3664.552,192.427Zm-23.837,37.563a.341.341,0,0,0,.07.38C3640.813,229.94,3640.831,229.715,3640.715,229.99Zm-491.278-53.152a.667.667,0,0,0,.136.745C3149.629,176.741,3149.664,176.3,3149.437,176.838Zm72.154,39.4a.412.412,0,0,0,.084.462C3221.709,216.182,3221.731,215.908,3221.591,216.241Zm-178.367,65.194a1.335,1.335,0,0,0,.15-.361C3043.328,281.2,3043.273,281.314,3043.224,281.435Zm68.97-83.915a.507.507,0,0,0,.1.566C3112.338,197.447,3112.365,197.111,3112.194,197.52Zm128.9,67.009a1.213,1.213,0,0,0,.133-.32C3241.189,264.321,3241.141,264.421,3241.1,264.529Zm71.1-14.789a.365.365,0,0,0,.074.407C3312.306,249.688,3312.325,249.446,3312.2,249.74Zm79.929,36.416c-.039-.091-.087-.165-.122-.262A.816.816,0,0,0,3392.13,286.156Zm-27.942-16.6c-.082-.2-.071-.042-.05.259A.241.241,0,0,0,3364.188,269.555Zm-23.835,4.548a.363.363,0,0,0,.074.407C3340.457,274.05,3340.477,273.809,3340.353,274.1Zm63.435-16.98c-.083-.2-.072-.042-.052.26A.243.243,0,0,0,3403.788,257.123Z" transform="translate(-2562.238 -148.639)" fill="#598a7e"/>
</svg>
