<svg xmlns="http://www.w3.org/2000/svg" width="1200" height="147.936" viewBox="0 0 1200 147.936">
  <path id="Path_351" data-name="Path 351" d="M1626.132,1479.353c-.039.1-.083.2-.123.3A1.114,1.114,0,0,0,1626.132,1479.353Zm43.78-39.569a.276.276,0,0,0,.056-.309C1669.875,1439.252,1669.889,1439.435,1669.912,1439.784Zm-61.918-4.444c.033-.483.053-.737-.077-.428A.384.384,0,0,0,1607.994,1435.34Zm88.022,10.556a1.223,1.223,0,0,0,.153.368C1696.118,1446.14,1696.062,1446.025,1696.016,1445.9Zm-10.623-35.173a.381.381,0,0,0,.078-.428C1685.341,1409.986,1685.361,1410.24,1685.393,1410.723Zm32.341-17.533a.46.46,0,0,0,.093-.512C1717.671,1392.308,1717.7,1392.612,1717.734,1393.19Zm-142.128,66.977c.021-.318.035-.485-.051-.281A.25.25,0,0,0,1575.606,1460.167Zm-849.677,9.714a.285.285,0,0,0,.057-.317C725.89,1469.335,725.905,1469.523,725.929,1469.881Zm-110.495-50.374c.035-.519.056-.792-.084-.46A.412.412,0,0,0,615.435,1419.507Zm-32.091-17.595c.039-.6.064-.913-.1-.53A.474.474,0,0,0,583.344,1401.912Zm51.3,47.9a.276.276,0,0,0,.056-.309C634.605,1449.281,634.619,1449.464,634.642,1449.813Zm-98.5-59.573v141.239h1200V1390.246c-.907.129-1.579.18-1.579.18l.7-6.883-3.086,7.253-3.354-.422,5.066,7.226c-2.064,4.115-7.906-1.371-7.906-1.371,2.4,5.143,7.906,7.543,7.906,7.543-1.72,4.457-9.969,1.371-9.969,1.371,2.405,3.772,7.919,3.589,7.919,3.589,1.388,3.932-7.575,6.7-7.575,6.7,3.782,1.715,8.349-.611,8.349-.611-1.033,3.767-4.476,5.413-6.836,6.113-.025-.07-.044-.118-.044-.118-.034.056-.067.1-.1.159a13.794,13.794,0,0,1-2.186.453,9.752,9.752,0,0,0,.939,1.243c-3.41,3.821-6.71,1.335-6.71,1.335,3.29.355,4.47-1.148,4.47-1.148-2.469-.136-2.917-1.163-2.917-1.163,4.016-1.463,3.516-3.617,3.516-3.617-5.334,1.337-4.661-.839-4.661-.839,4.687.169,5.8-2.823,5.8-2.823a11.782,11.782,0,0,1-5.869.185l3.022-1.454c-2.917-.139-4.012-1.178-4.012-1.178,6.6.164,7.231-3.115,7.231-3.115-2.667,1.987-4.8,1.329-4.8,1.329,1.775-.14,2.065-2.269,2.065-2.269-2.1-.1-4.65-3.3-4.65-3.3,2.983,1.2,4.427.222,4.427.222a8.142,8.142,0,0,1-3.293-1c.982-.567,1.585-3.111,1.585-3.111-1.721,1.589-2.563.961-2.563.961a6.993,6.993,0,0,0,2.156-5.848c-1.137,3.283-2.4,1.092-2.4,1.092,1.163-.266,1.027-2.567.949-3.734-.6.683-3.023.852-3.023.852l.336-3.3-1.482,3.481-1.609-.2,2.43,3.468c-.99,1.975-3.794-.658-3.794-.658a8.288,8.288,0,0,0,3.794,3.62c-.825,2.139-4.784.658-4.784.658,1.154,1.81,3.8,1.723,3.8,1.723.666,1.887-3.635,3.214-3.635,3.214a5.265,5.265,0,0,0,4.007-.294c-.778,2.833-4.4,3.171-4.4,3.171a7.531,7.531,0,0,0,3.362,2.553c-.99,1.81-6.427-.966-6.427-.966,4.3,4.628,6.3,5.366,6.3,5.366.37,2.261-5.963.02-5.963.02,2,3.6,4.945,3.709,4.945,3.709-1.305,1.548-5.352-1.144-5.352-1.144a11.951,11.951,0,0,0,4.844,5.192c-1.979,0-8.21-3.572-8.21-3.572.534,1.693,5.589,5.648,5.589,5.648-.807,1.747-3.164.171-3.164.171,1.143,3.234,4.961,5.158,4.961,5.158-.66,1.481-5.38-.536-5.38-.536,2.7,4.729,5.545,4.814,5.545,4.814-.494,3.127-6.267,1.244-6.267,1.244,1.486,2.724,6.6,3.693,6.6,3.693-1.484.658-6.608-.987-6.608-.987,1.31,3.126,6.279,3.949,6.279,3.949-2.639,2.139-8.473-2.233-8.473-2.233.434,3.033,4.07,4.734,4.07,4.734-3.249.527-7.1-2.487-7.1-2.487a13.7,13.7,0,0,0,2.69,4.371,10.9,10.9,0,0,1-1.326,1.439c-2.854-1.127-3.808-2.235-4.123-2.791a9.644,9.644,0,0,0,2.809,3.851,18.42,18.42,0,0,1-7.729,2.9l3.112-2.9c-4.493,1.179-5.181.618-5.181.618,7.269-3.013,6.351-6.622,6.351-6.622-7.318,3.421-7.559-.122-7.559-.122,4.683-1.512,4.352-4.2,4.352-4.2-2.813,1.573-3.448-.674-3.448-.674,4.624-2.125,3.2-5.328,3.2-5.328-3.2,5.328-6.729,2.664-6.729,2.664,2.747.3,3.733-.959,3.733-.959-2.062-.113-2.436-.971-2.436-.971,3.354-1.222,2.937-3.021,2.937-3.021-4.454,1.117-3.893-.7-3.893-.7,3.913.142,4.844-2.357,4.844-2.357a9.837,9.837,0,0,1-4.9.155l2.523-1.215a5.411,5.411,0,0,1-3.35-.984c5.51.138,6.04-2.6,6.04-2.6a4.772,4.772,0,0,1-4.007,1.109c1.481-.117,1.724-1.894,1.724-1.894-1.754-.088-3.883-2.756-3.883-2.756,2.491,1.005,3.7.186,3.7.186a6.8,6.8,0,0,1-2.751-.839c.82-.473,1.324-2.6,1.324-2.6-1.437,1.327-2.141.8-2.141.8a5.84,5.84,0,0,0,1.8-4.884c-.95,2.742-2.007.912-2.007.912.971-.222.857-2.144.792-3.118-.5.57-2.524.711-2.524.711l.281-2.758-1.237,2.907-1.344-.169,2.03,2.9c-.826,1.649-3.168-.55-3.168-.55a6.92,6.92,0,0,0,3.168,3.023c-.689,1.787-3.995.55-3.995.55.965,1.512,3.174,1.438,3.174,1.438.555,1.576-3.036,2.684-3.036,2.684a4.391,4.391,0,0,0,3.346-.245c-.65,2.366-3.675,2.649-3.675,2.649a6.286,6.286,0,0,0,2.808,2.131c-.827,1.512-5.367-.807-5.367-.807,3.587,3.866,5.264,4.482,5.264,4.482.31,1.888-4.98.016-4.98.016,1.669,3,4.13,3.1,4.13,3.1-1.09,1.292-4.469-.956-4.469-.956a9.975,9.975,0,0,0,4.045,4.336c-1.654,0-6.857-2.983-6.857-2.983.447,1.414,4.667,4.717,4.667,4.717-.674,1.458-2.642.142-2.642.142.954,2.7,4.143,4.308,4.143,4.308-.552,1.236-4.493-.448-4.493-.448,2.257,3.95,4.63,4.021,4.63,4.021-.413,2.61-5.233,1.038-5.233,1.038,1.241,2.275,5.509,3.084,5.509,3.084-1.24.55-5.518-.824-5.518-.824,1.093,2.611,5.242,3.3,5.242,3.3-2.058,1.668-6.44-1.4-7.011-1.818,1.381-.552,1.562-1.474,1.562-1.474a3.442,3.442,0,0,1-2.891.8c1.069-.084,1.244-1.367,1.244-1.367-1.265-.063-2.8-1.988-2.8-1.988,1.8.725,2.668.134,2.668.134a4.888,4.888,0,0,1-1.985-.6c.592-.341.955-1.874.955-1.874-1.036.957-1.544.579-1.544.579a4.214,4.214,0,0,0,1.3-3.524c-.686,1.979-1.448.658-1.448.658.7-.16.618-1.546.571-2.249-.358.411-1.821.513-1.821.513l.2-1.99-.892,2.1-.97-.122,1.464,2.089c-.6,1.19-2.286-.4-2.286-.4a4.994,4.994,0,0,0,2.286,2.181c-.5,1.289-2.883.4-2.883.4a2.836,2.836,0,0,0,2.29,1.037c.4,1.137-2.19,1.937-2.19,1.937a3.172,3.172,0,0,0,2.413-.177c-.467,1.707-2.649,1.911-2.649,1.911a4.531,4.531,0,0,0,2.025,1.537c-.6,1.091-3.873-.582-3.873-.582.58.625,1.087,1.127,1.53,1.537l-1.242-.356c-4.19,2.735-6.545-.53-6.545-.53,2.825-2.884,3.657-9.933,3.657-9.933a5.387,5.387,0,0,1-6.655.364l1.756-2.237c-2-.256-4.095-5.6-4.095-5.6a2.626,2.626,0,0,0,2.513-1.747c-1.9-.152-3.047-2.964-3.047-2.964.686.456,1.355-1.159,1.355-1.159a3.866,3.866,0,0,1-1.888-3.551l-.762,3.039-1.548-.963.938,3.7c.152,1.748-1.993-1.225-1.993-1.225.063,2.345-1.358-.218-1.358-.218.838,3.646-1.219,2.2-1.219,2.2.381.912,3.123,2.887,3.123,2.887l-2.285,2.2a26.9,26.9,0,0,0,1.862,2.284c-2.1.157-4.451-2.132-4.451-2.132a5.449,5.449,0,0,0,3.857,3.951l-1.648.532a3.815,3.815,0,0,1-.97,2.144c1.162.17,3.91-1.26,3.91-1.26-.64,1.568-3.7,2.839-3.7,2.839a18.753,18.753,0,0,0,2.022.3,3.319,3.319,0,0,1-3.592-.083c1.555,2.34,3.245,1.763,3.245,1.763-1.752,2.659-7.044.041-7.044.041,2.4,3.231,7.424,5.278,7.424,5.278-1.446.455-3.511-.71-3.511-.71.3,1.114,2.065,1.773,2.065,1.773-2.819.532-5.713-1.443-5.713-1.443,1.446,3.115,5.951,4.283,5.951,4.283-4.179,1.549-6.134-1.195-6.134-1.195.579,2.708,3.763,5.041,3.763,5.041-3.047.076-6.758-3.172-6.758-3.172,1.087,3.667,6.3,6.515,6.3,6.515-1.525,1.292-4.346-.649-4.346-.649.53,2.695,5.259,6.119,5.259,6.119a4.921,4.921,0,0,1-5.791-.982c.453,2.209,5.867,4.781,5.867,4.781-1.066,2.811-6.625,1.368-6.625,1.368a8.837,8.837,0,0,0,4.646,3.115c-2.285,1.14-4.794-1.065-4.794-1.065a6.8,6.8,0,0,0,4.865,4.006c-5.414.587-7.25-1.894-7.25-1.894.894,3.4,4.438,4.727,4.438,4.727-4.494,1.444-7.922-2.978-7.922-2.978,2.589,5.987,7.424,7.32,7.424,7.32l-.123,1.229-1.186.094c-.286-1.184-1.648.042-2.613-.515.077.045-3.146-1.856-1.637-2.156l-3.309.658a4.754,4.754,0,0,0-.687-5.67,13.628,13.628,0,0,0-.412,4.564,5.738,5.738,0,0,0-3,.405,13.549,13.549,0,0,1,2.123,2.923,6.868,6.868,0,0,1-3.356-.754c.072.513.145,1.026.216,1.54l-2.964.232c-.172-.215-.348-.425-.536-.617v-1.325a3.786,3.786,0,0,0,3.112-2.482s-2.422.691-2.422-.133a7.918,7.918,0,0,0,4.887-4.625c-.354.638-1.738,2.2-7.087,3.438a13.909,13.909,0,0,0,4.776-5.947s-3.211,2.517-5.924,2.077c0,0,3.035-1.42,3.4-3.953,0,0-4.872,3.65-7.076,1.864,0,0,4.149-.687,5.243-3.3,0,0-4.279,1.374-5.519.825,0,0,4.268-.809,5.509-3.084,0,0-4.821,1.572-5.233-1.039,0,0,2.373-.071,4.63-4.02,0,0-3.942,1.684-4.493.447,0,0,3.189-1.607,4.143-4.307,0,0-1.968,1.316-2.642-.143,0,0,4.221-3.3,4.667-4.717,0,0-5.2,2.983-6.857,2.983a9.977,9.977,0,0,0,4.045-4.335s-3.379,2.248-4.469.955c0,0,2.463-.094,4.13-3.1,0,0-5.289,1.871-4.98-.017,0,0,1.677-.616,5.264-4.481,0,0-4.54,2.318-5.367.807a6.286,6.286,0,0,0,2.807-2.132s-3.024-.282-3.674-2.648a4.4,4.4,0,0,0,3.346.245s-3.592-1.108-3.036-2.684c0,0,2.209.073,3.174-1.439,0,0-3.306,1.237-3.995-.549a6.922,6.922,0,0,0,3.168-3.023s-2.342,2.2-3.168.549l2.03-2.9-1.344.169-1.237-2.907.281,2.759s-2.027-.141-2.525-.711c-.064.974-.178,2.9.793,3.117,0,0-1.057,1.831-2.006-.911a5.836,5.836,0,0,0,1.8,4.883s-.7.525-2.141-.8c0,0,.5,2.125,1.324,2.6a6.787,6.787,0,0,1-2.751.838s1.206.819,3.7-.185c0,0-2.129,2.667-3.883,2.755,0,0,.242,1.778,1.724,1.895a4.768,4.768,0,0,1-4.006-1.11s.529,2.738,6.039,2.6a5.419,5.419,0,0,1-3.35.984l2.523,1.215a9.844,9.844,0,0,1-4.9-.156s.931,2.5,4.844,2.358c0,0,.562,1.817-3.893.7,0,0-.417,1.8,2.937,3.02,0,0-.374.858-2.436.971,0,0,.986,1.256,3.733.96,0,0-3.529,2.663-6.727-2.664,0,0-1.426,3.2,3.2,5.327,0,0-.635,2.248-3.448.675,0,0-.331,2.687,4.352,4.2,0,0-.241,3.543-7.559.123,0,0-.918,3.609,6.351,6.621,0,0-.688.561-5.181-.618l3.113,2.9a18.654,18.654,0,0,1-7.215-2.559,1.03,1.03,0,0,1,.39-.33,2.06,2.06,0,0,0-1.141-1.184c.463-.075,1.072-.377.908-.815-.141-.377-.686-.326-1.071-.2a.752.752,0,0,0-.2-1.064.51.51,0,0,0-.232-.682,1.482,1.482,0,0,0-.794-.114l1.771-1.31-1.792-.282a2.33,2.33,0,0,0,1.008-1.348.81.81,0,0,1-1.044-.343.627.627,0,0,1,.535-.865,8.257,8.257,0,0,1-.787-.7,1.23,1.23,0,0,0,.429-.671c.033-.268-.213-.577-.471-.493.387-.108.448-.685.194-1a1.847,1.847,0,0,0-1.065-.513.779.779,0,0,0,.839-.787.591.591,0,0,0-.978-.332.566.566,0,0,0-.438-.606q.172-.242.347-.483c-.27.06-.414-.375-.232-.582a1.009,1.009,0,0,1,.772-.23,3.342,3.342,0,0,1-1.01-.641.529.529,0,0,0,.417-.376c-.39.013-.458-.557-.363-.936.222-.894-.744-1.261-.672-.439a1.315,1.315,0,0,0,.273.6l-.556.34a.879.879,0,0,1,.218.8,1.324,1.324,0,0,0-1.159.4.976.976,0,0,0,.786.666,1.026,1.026,0,0,0-.228,1.112c.129.3.4.538.464.86a1.654,1.654,0,0,1-.438,1.13c-.228.347-.4.835-.129,1.15a.833.833,0,0,0-.344,1.232c-.306.058-.709.294-.557.567a.491.491,0,0,0,.214.175l1.135.619a18.345,18.345,0,0,0-2.605.538,1.1,1.1,0,0,0,1.071.539c-.139.151-.277.3-.417.453a2.516,2.516,0,0,0-.818,1.435.587.587,0,0,0,.28.6c-.1.36-.8.153-.926.5a.474.474,0,0,0,.033.313,4.348,4.348,0,0,0,.93,1.508,1.4,1.4,0,0,0-1.218.853c-.132.508.537,1.086.921.727q-.26.448-.5.906l.634.444a8.094,8.094,0,0,0-1.035,1.051.366.366,0,0,1,.077.63c.449-.087.793.393.951.821s.32.941.757,1.08a2.838,2.838,0,0,0-1.89,1.03,2.95,2.95,0,0,0,.848.367l-1.427,1.19.657.375a5.052,5.052,0,0,1-1.371.256,1.039,1.039,0,0,0,.523.463l-.481.179a1.084,1.084,0,0,0,.644.7l-1.162.328.651.585a21.176,21.176,0,0,0-2.136.525,2.479,2.479,0,0,0,.158-.308s-2.815.9-3.631.542c0,0,2.808-.532,3.625-2.028,0,0-3.171,1.034-3.442-.683,0,0,1.561-.047,3.045-2.645,0,0-2.592,1.108-2.955.3a6.085,6.085,0,0,0,2.725-2.833s-1.3.865-1.739-.094c0,0,2.777-2.172,3.069-3.1,0,0-3.421,1.962-4.508,1.962a6.562,6.562,0,0,0,2.66-2.851s-2.222,1.478-2.94.628a3.561,3.561,0,0,0,2.717-2.038s-3.479,1.231-3.274-.01c0,0,1.1-.405,3.461-2.948,0,0-2.987,1.525-3.529.531a4.13,4.13,0,0,0,1.846-1.4s-1.989-.186-2.416-1.742a2.891,2.891,0,0,0,2.2.161s-2.362-.728-2-1.765a2.583,2.583,0,0,0,2.087-.946s-2.174.814-2.628-.361a4.556,4.556,0,0,0,2.084-1.989s-1.541,1.446-2.084.362l1.335-1.905-.884.111-.814-1.912.185,1.815s-1.333-.093-1.661-.468c-.043.641-.118,1.905.52,2.05,0,0-.695,1.2-1.319-.6a3.841,3.841,0,0,0,1.185,3.212s-.464.345-1.408-.528c0,0,.331,1.4.871,1.709a4.457,4.457,0,0,1-1.809.551s.793.539,2.431-.122c0,0-1.4,1.754-2.554,1.812,0,0,.159,1.17,1.134,1.246a3.138,3.138,0,0,1-2.635-.729s.347,1.8,3.972,1.71a3.557,3.557,0,0,1-2.2.647l1.66.8a6.467,6.467,0,0,1-3.223-.1s.612,1.643,3.186,1.551c0,0,.369,1.195-2.561.46,0,0-.275,1.183,1.931,1.987,0,0-.245.564-1.6.639a2.7,2.7,0,0,0,2.454.631s-2.321,1.751-4.425-1.752c0,0-.937,2.106,2.1,3.5,0,0-.418,1.479-2.267.444,0,0-.219,1.767,2.862,2.761,0,0-.158,2.331-4.972.081,0,0-.6,2.374,4.178,4.355,0,0-.452.369-3.408-.406l2.047,1.907s-5.093-.514-7.268-4.219v8.906a3.5,3.5,0,0,1-.757.655l-2.656.209a8.644,8.644,0,0,0,1.9-2.952s-2.349,1.84-4.333,1.518c0,0,2.22-1.038,2.485-2.891,0,0-3.562,2.67-5.175,1.364,0,0,3.034-.5,3.835-2.412,0,0-3.129,1.005-4.036.6,0,0,3.122-.592,4.029-2.256,0,0-3.524,1.15-3.828-.759,0,0,1.737-.052,3.387-2.94,0,0-2.883,1.232-3.286.327a6.762,6.762,0,0,0,3.03-3.15s-1.439.962-1.933-.1c0,0,3.087-2.415,3.413-3.45,0,0-3.806,2.182-5.014,2.182a7.3,7.3,0,0,0,2.958-3.171s-2.471,1.644-3.269.7a3.96,3.96,0,0,0,3.021-2.265s-3.869,1.368-3.641-.012c0,0,1.226-.451,3.849-3.277,0,0-3.32,1.7-3.924.59a4.593,4.593,0,0,0,2.052-1.559s-2.211-.207-2.687-1.937a3.213,3.213,0,0,0,2.447.179s-2.627-.81-2.22-1.963a2.872,2.872,0,0,0,2.321-1.052s-2.418.9-2.922-.4a5.069,5.069,0,0,0,2.317-2.211s-1.713,1.608-2.317.4l1.484-2.118-.983.123-.9-2.126.205,2.018s-1.481-.1-1.846-.52c-.047.712-.131,2.118.579,2.28,0,0-.772,1.338-1.466-.667a4.27,4.27,0,0,0,1.317,3.571s-.515.384-1.566-.586c0,0,.369,1.553.969,1.9a4.959,4.959,0,0,1-2.011.614s.882.6,2.7-.136c0,0-1.557,1.951-2.84,2.015,0,0,.177,1.3,1.261,1.386a3.489,3.489,0,0,1-2.93-.812s.386,2,4.416,1.9a3.957,3.957,0,0,1-2.45.719l1.846.889a7.2,7.2,0,0,1-3.584-.114s.681,1.828,3.542,1.724c0,0,.41,1.329-2.847.513,0,0-.305,1.315,2.148,2.209,0,0-.274.627-1.782.71,0,0,.721.918,2.73.7,0,0-2.582,1.948-4.921-1.948,0,0-1.042,2.343,2.339,3.9,0,0-.466,1.644-2.521.494,0,0-.242,1.965,3.183,3.07,0,0-.179,2.4-5,.319a4.711,4.711,0,0,1-.249-.471c.006.12,0,.241,0,.362-.094-.043-.178-.075-.276-.12a2.013,2.013,0,0,0,.048.863,11.68,11.68,0,0,0-1.74-.5,2.142,2.142,0,0,1,1.125-.557,1.826,1.826,0,0,0-1.287-.412,2.064,2.064,0,0,0,.015-1.027l1.023-.033a1.192,1.192,0,0,1-.7-1.115c.011-.281-.037-.724-.306-.64a13.678,13.678,0,0,0-.054,1.4l-1.055-.24q.148.427.3.854c-.117-.329-.608-.242-.917-.079s-.769.3-.945,0a.46.46,0,0,1,.234-.6,1.334,1.334,0,0,1,.7-.089l-.286-.507a2.427,2.427,0,0,1,1.389-.065.859.859,0,0,0-.708-.451,1.03,1.03,0,0,0,.247-.906l-.536.249a.481.481,0,0,1,.157-.691,1.406,1.406,0,0,1,.788-.143,1.086,1.086,0,0,1,.585-1.265.515.515,0,0,0-.541-.262.984.984,0,0,1-1.647.845.635.635,0,0,0,.572.7,1.848,1.848,0,0,0-1,.931.556.556,0,0,0-.484-.719q-.177.565-.352,1.13c-.062-.276-.593-.1-.716-.358a.391.391,0,0,1,0-.259q.141-.6.285-1.2a1.346,1.346,0,0,0,.951-.016c.282-.159.363-.652.065-.781-.185.224-.574-.063-.555-.353a1.887,1.887,0,0,1,.386-.769c.147-.251.187-.634-.066-.778l-.428.71a2.363,2.363,0,0,0-1.344-1.035c.019.554-.024,1.225-.513,1.487a2.943,2.943,0,0,0-.344.166.52.52,0,0,0,.032.825.554.554,0,0,1-.548.147q-.059.3-.115.609l-.779-.446c-.291.425-.064.991-.008,1.5a2.143,2.143,0,0,1-.292,1.323l1.792.188a.773.773,0,0,1-.292.6c.223.325.922.315.853.7-.042.24-.382.282-.608.189s-.442-.261-.685-.234a.471.471,0,0,0-.213.806.9.9,0,0,0-.9,1.075,1.744,1.744,0,0,1,1.1.015c.336.161.522.663.246.915-.156.142-.4.159-.544.316-.2.218-.089.558-.02.844s0,.691-.29.72a.907.907,0,0,0-1.7-.576,2.022,2.022,0,0,1-.372-1.248,3.209,3.209,0,0,0-1.124.6c-.036-.177-.073-.354-.109-.531a2.506,2.506,0,0,0-1.053.86c-.078-.026-.158-.052-.237-.07a.429.429,0,0,0,.463-.435.327.327,0,0,0-.54-.184.312.312,0,0,0-.242-.335l.192-.267c-.149.033-.229-.208-.128-.323a.563.563,0,0,1,.426-.127,1.858,1.858,0,0,1-.558-.354.293.293,0,0,0,.231-.209c-.216.008-.253-.307-.2-.517.123-.494-.411-.7-.371-.243a.728.728,0,0,0,.151.331l-.307.188a.483.483,0,0,1,.12.44.732.732,0,0,0-.641.222.54.54,0,0,0,.434.368.566.566,0,0,0-.126.615c.071.167.223.3.257.476a.918.918,0,0,1-.243.625c-.126.192-.221.462-.071.636a.461.461,0,0,0-.19.682c-.17.032-.392.162-.308.313a.257.257,0,0,0,.118.1l.628.343a10.115,10.115,0,0,0-1.442.3.607.607,0,0,0,.593.3l-.23.251a1.387,1.387,0,0,0-.453.794.323.323,0,0,0,.155.33c-.053.2-.443.085-.513.279a.261.261,0,0,0,.018.173,2.4,2.4,0,0,0,.514.834.772.772,0,0,0-.674.472c-.073.281.3.6.509.4q-.143.249-.276.5l.351.246a4.424,4.424,0,0,0-.573.581.2.2,0,0,1,.042.349c.248-.048.438.217.526.454a1.671,1.671,0,0,0,.214.441l-377.294,25.214-417.652-26.109a1.719,1.719,0,0,0-.009-.564c-.4.189-.771.341-1.12.476l-4.434-.344a.991.991,0,0,1-.052-.223c3.474-1.121,3.227-3.113,3.227-3.113-2.085,1.167-2.556-.5-2.556-.5,3.428-1.576,2.372-3.951,2.372-3.951-2.372,3.951-4.99,1.976-4.99,1.976,2.037.219,2.768-.712,2.768-.712-1.528-.084-1.807-.72-1.807-.72,2.488-.906,2.178-2.24,2.178-2.24-3.3.828-2.887-.519-2.887-.519,2.9.1,3.593-1.749,3.593-1.749a7.3,7.3,0,0,1-3.635.116l1.872-.9a4.014,4.014,0,0,1-2.484-.73c4.086.1,4.478-1.928,4.478-1.928a3.537,3.537,0,0,1-2.971.822c1.1-.086,1.278-1.405,1.278-1.405-1.3-.065-2.88-2.043-2.88-2.043,1.848.745,2.742.138,2.742.138a5.047,5.047,0,0,1-2.039-.622c.609-.351.982-1.926.982-1.926-1.066.984-1.588.6-1.588.6a4.334,4.334,0,0,0,1.335-3.622c-.7,2.034-1.487.676-1.487.676.72-.164.636-1.589.588-2.312-.369.423-1.872.528-1.872.528l.207-2.046-.917,2.156-1-.126,1.505,2.148c-.613,1.223-2.349-.408-2.349-.408a5.129,5.129,0,0,0,2.349,2.242c-.51,1.325-2.962.408-2.962.408a2.909,2.909,0,0,0,2.353,1.066c.412,1.169-2.251,1.991-2.251,1.991a3.259,3.259,0,0,0,2.48-.182c-.481,1.754-2.724,1.964-2.724,1.964a4.654,4.654,0,0,0,2.082,1.58c-.614,1.121-3.98-.6-3.98-.6,2.66,2.867,3.9,3.323,3.9,3.323.229,1.4-3.693.012-3.693.012a4.014,4.014,0,0,0,3.063,2.3c-.809.958-3.314-.709-3.314-.709a7.394,7.394,0,0,0,3,3.215c-1.226,0-5.084-2.212-5.084-2.212.33,1.049,3.46,3.5,3.46,3.5-.5,1.081-1.959.1-1.959.1a6.857,6.857,0,0,0,3.072,3.195c-.408.917-3.332-.333-3.332-.333a9.6,9.6,0,0,0,.7,1.063l-.994-.077a1.993,1.993,0,0,1,1.044-1.779,3.106,3.106,0,0,0-1.717-1.781c.7-.112,1.613-.566,1.365-1.226-.213-.566-1.032-.49-1.611-.308a1.13,1.13,0,0,0-.306-1.6.766.766,0,0,0-.349-1.026,2.235,2.235,0,0,0-1.194-.171l2.664-1.97-2.7-.425a3.493,3.493,0,0,0,1.516-2.028,1.218,1.218,0,0,1-1.571-.516.943.943,0,0,1,.806-1.3,12.563,12.563,0,0,1-1.185-1.047,1.844,1.844,0,0,0,.647-1.009c.05-.4-.32-.868-.709-.742.583-.162.672-1.03.292-1.5a2.791,2.791,0,0,0-1.6-.771,1.17,1.17,0,0,0,1.261-1.183.89.89,0,0,0-1.47-.5.853.853,0,0,0-.66-.912l.523-.725c-.407.09-.623-.564-.348-.876a1.521,1.521,0,0,1,1.16-.346,5.009,5.009,0,0,1-1.519-.965.8.8,0,0,0,.629-.565c-.589.02-.689-.837-.547-1.407.334-1.344-1.119-1.9-1.01-.661a1.972,1.972,0,0,0,.41.9l-.836.511a1.319,1.319,0,0,1,.327,1.2,1.992,1.992,0,0,0-1.742.6,1.468,1.468,0,0,0,1.182,1,1.538,1.538,0,0,0-.343,1.672c.192.454.607.81.7,1.294a2.49,2.49,0,0,1-.66,1.7c-.343.523-.6,1.257-.194,1.731a1.253,1.253,0,0,0-.517,1.852c-.461.087-1.066.443-.839.853a.751.751,0,0,0,.321.264l1.709.93a27.408,27.408,0,0,0-3.92.81,1.653,1.653,0,0,0,1.612.81l-.628.682a3.772,3.772,0,0,0-1.23,2.158.886.886,0,0,0,.421.9c-.144.541-1.2.23-1.392.758a.712.712,0,0,0,.049.47,6.511,6.511,0,0,0,1.4,2.268,2.1,2.1,0,0,0-1.832,1.284c-.2.764.808,1.634,1.384,1.093-.134.231-.259.467-.387.7l-2.779-.216a4.412,4.412,0,0,0,.579-.975s-1.4.449-2.966.79l-2.272-.176c1.667-.513,4.234-1.563,5.226-3.383,0,0-5.906,1.927-6.412-1.272,0,0,2.909-.087,5.675-4.926,0,0-4.83,2.064-5.505.549,0,0,3.907-1.969,5.076-5.277,0,0-2.412,1.612-3.237-.175,0,0,5.171-4.046,5.717-5.779,0,0-6.374,3.655-8.4,3.655a12.221,12.221,0,0,0,4.955-5.312s-4.14,2.754-5.475,1.171c0,0,3.017-.115,5.06-3.795,0,0-6.48,2.293-6.1-.02,0,0,2.055-.755,6.449-5.491,0,0-5.563,2.841-6.575.989a7.7,7.7,0,0,0,3.439-2.612s-3.706-.346-4.5-3.244a5.382,5.382,0,0,0,4.1.3s-4.4-1.358-3.72-3.288c0,0,2.707.089,3.889-1.763,0,0-4.051,1.516-4.895-.673a8.481,8.481,0,0,0,3.882-3.7s-2.87,2.694-3.882.674l2.486-3.549-1.647.208-1.515-3.562.344,3.38s-2.483-.173-3.093-.872c-.079,1.194-.219,3.549.97,3.82,0,0-1.294,2.243-2.458-1.117a7.157,7.157,0,0,0,2.207,5.983s-.863.643-2.623-.982c0,0,.618,2.6,1.623,3.182a8.323,8.323,0,0,1-3.37,1.028s1.478,1,4.53-.228c0,0-2.609,3.268-4.757,3.376,0,0,.3,2.178,2.111,2.321,0,0-2.179.674-4.908-1.359,0,0,.647,3.354,7.4,3.186,0,0-1.12,1.064-4.1,1.205l3.092,1.488a12.048,12.048,0,0,1-6-.19s1.14,3.061,5.935,2.889c0,0,.688,2.226-4.77.858,0,0-.511,2.2,3.6,3.7,0,0-.458,1.051-2.985,1.19,0,0,1.208,1.537,4.573,1.175,0,0-4.325,3.263-8.244-3.264,0,0-1.746,3.924,3.919,6.527,0,0-.779,2.754-4.224.827,0,0-.406,3.291,5.332,5.143,0,0-.3,4.341-9.262.15,0,0-.654,2.592,3.033,5.462l-10.18-.789a12.767,12.767,0,0,1-1.048-1.47,14.861,14.861,0,0,0,1.4-2.522s-3.391,4.372-7.835,2.945c0,0,3.5-1.31,4.388-4.674,0,0-1.816,2.453-7.169,1.873a6.727,6.727,0,0,0,4.811-3.962s-2.482,2.18-4.742,1.053a8.737,8.737,0,0,0,4.594-3.08s-5.5,1.427-6.552-1.352c0,0,5.353-2.544,5.8-4.728a4.867,4.867,0,0,1-5.727.971s4.678-3.386,5.2-6.05c0,0-2.791,1.918-4.3.641,0,0,5.156-2.817,6.231-6.442,0,0-3.671,3.212-6.683,3.136,0,0,3.149-2.306,3.721-4.985,0,0-1.933,2.714-6.066,1.182,0,0,4.454-1.155,5.885-4.235,0,0-2.862,1.953-5.648,1.427,0,0,1.748-.652,2.041-1.753,0,0-2.041,1.152-3.472.7,0,0,4.968-2.023,7.342-5.218,0,0-5.233,2.589-6.966-.041,0,0,1.673.571,3.209-1.743a3.283,3.283,0,0,1-3.551.082,18.772,18.772,0,0,0,2-.292s-3.028-1.257-3.661-2.807c0,0,2.717,1.414,3.867,1.246a3.778,3.778,0,0,1-.96-2.12l-1.629-.526a5.386,5.386,0,0,0,3.813-3.907s-2.325,2.263-4.4,2.109a26.609,26.609,0,0,0,1.841-2.259l-2.259-2.179s2.712-1.953,3.088-2.855c0,0-2.034,1.428-1.205-2.178,0,0-1.405,2.535-1.342.216,0,0-2.122,2.939-1.972,1.211l.927-3.656-1.529.952-.753-3.006a3.826,3.826,0,0,1-1.868,3.512s.663,1.6,1.34,1.146c0,0-1.13,2.78-3.013,2.93a2.6,2.6,0,0,0,2.485,1.728s-2.073,5.28-4.049,5.532l1.736,2.213a5.326,5.326,0,0,1-6.579-.36s.823,6.97,3.615,9.822c0,0-2.328,3.228-6.471.523l-1.754.5a2.087,2.087,0,0,0,.376-.89c-1.265-.064-2.8-1.988-2.8-1.988,1.8.725,2.668.134,2.668.134a4.888,4.888,0,0,1-1.984-.6c.592-.341.955-1.874.955-1.874-1.036.957-1.544.579-1.544.579a4.217,4.217,0,0,0,1.3-3.524c-.686,1.979-1.447.658-1.447.658.7-.16.618-1.546.571-2.249-.359.411-1.822.513-1.822.513l.2-1.99-.893,2.1-.969-.122,1.464,2.089c-.6,1.19-2.286-.4-2.286-.4a5,5,0,0,0,2.286,2.181c-.5,1.289-2.883.4-2.883.4a2.834,2.834,0,0,0,2.29,1.038c.4,1.137-2.19,1.937-2.19,1.937a3.175,3.175,0,0,0,2.414-.177c-.468,1.707-2.651,1.91-2.651,1.91a4.536,4.536,0,0,0,2.026,1.538c-.6,1.091-3.873-.582-3.873-.582,2.589,2.789,3.8,3.233,3.8,3.233.142.868-1.352.635-2.457.352a4.111,4.111,0,0,0,.494-1.422s-5.235,3.923-7.6,2c0,0,4.458-.738,5.634-3.544,0,0-4.6,1.476-5.93.886,0,0,4.585-.869,5.92-3.314,0,0-5.18,1.69-5.624-1.116,0,0,2.552-.076,4.977-4.32,0,0-4.236,1.81-4.829.481,0,0,3.426-1.727,4.452-4.629,0,0-2.115,1.414-2.84-.153,0,0,4.536-3.549,5.015-5.069,0,0-5.59,3.206-7.367,3.206a10.723,10.723,0,0,0,4.346-4.659s-3.632,2.415-4.8,1.027c0,0,2.646-.1,4.437-3.329,0,0-5.684,2.011-5.35-.018,0,0,1.8-.662,5.656-4.815,0,0-4.879,2.491-5.768.867a6.751,6.751,0,0,0,3.017-2.291s-3.25-.3-3.948-2.846a4.723,4.723,0,0,0,3.6.264s-3.86-1.191-3.262-2.885c0,0,2.374.079,3.41-1.545,0,0-3.552,1.329-4.293-.591a7.435,7.435,0,0,0,3.4-3.249s-2.515,2.363-3.4.591l2.181-3.112-1.444.182-1.329-3.124.3,2.964s-2.178-.152-2.713-.764c-.07,1.047-.193,3.112.851,3.35,0,0-1.135,1.967-2.156-.979a6.271,6.271,0,0,0,1.936,5.247s-.757.564-2.3-.861c0,0,.542,2.282,1.423,2.791a7.3,7.3,0,0,1-2.956.9s1.3.88,3.974-.2c0,0-2.288,2.867-4.173,2.961,0,0,.261,1.911,1.853,2.036a5.126,5.126,0,0,1-4.305-1.192s.568,2.942,6.489,2.794c0,0-.983.933-3.6,1.058l2.712,1.305a10.576,10.576,0,0,1-5.266-.167s1,2.685,5.206,2.534c0,0,.6,1.952-4.183.753,0,0-.448,1.932,3.155,3.246,0,0-.4.921-2.618,1.043,0,0,1.059,1.349,4.011,1.031,0,0-3.793,2.862-7.23-2.863,0,0-1.531,3.442,3.437,5.725,0,0-.684,2.415-3.706.725,0,0-.356,2.887,4.676,4.512,0,0-.259,3.807-8.123.131a3.493,3.493,0,0,0,.43,2.238c-.835.785-2.5,1.843-5.821,2.826q-.344-.336-.666-.706a15.717,15.717,0,0,0,4.306-6.063s-3.977,3.117-7.338,2.572c0,0,3.76-1.759,4.21-4.9,0,0-6.034,4.521-8.763,2.309,0,0,5.138-.851,6.493-4.085,0,0-5.3,1.7-6.835,1.021,0,0,5.286-1,6.823-3.819,0,0-5.97,1.947-6.481-1.286,0,0,2.94-.088,5.735-4.98,0,0-4.883,2.086-5.564.555,0,0,3.95-1.991,5.131-5.335,0,0-2.437,1.63-3.273-.177,0,0,5.229-4.09,5.781-5.842,0,0-6.444,3.7-8.491,3.7a12.364,12.364,0,0,0,5.01-5.37s-4.186,2.784-5.537,1.184c0,0,3.05-.117,5.116-3.837,0,0-6.551,2.318-6.167-.02,0,0,2.077-.763,6.519-5.551,0,0-5.623,2.872-6.647,1a7.785,7.785,0,0,0,3.477-2.64s-3.747-.35-4.55-3.28a5.443,5.443,0,0,0,4.144.3s-4.448-1.372-3.76-3.324c0,0,2.737.091,3.93-1.782,0,0-4.094,1.532-4.948-.68a8.577,8.577,0,0,0,3.925-3.745s-2.9,2.723-3.925.681l2.514-3.587-1.665.21-1.532-3.6.347,3.417s-2.51-.175-3.126-.881c-.081,1.207-.222,3.587.98,3.862,0,0-1.307,2.266-2.484-1.13,0,0-.5,3.75,2.231,6.049,0,0-.872.65-2.652-.994,0,0,.625,2.632,1.64,3.217a8.4,8.4,0,0,1-3.406,1.039s1.494,1.014,4.579-.23c0,0-2.637,3.3-4.81,3.413,0,0,.3,2.2,2.136,2.346,0,0-2.2.681-4.963-1.374,0,0,.655,3.391,7.479,3.221,0,0-1.132,1.075-4.149,1.219l3.125,1.5a12.188,12.188,0,0,1-6.069-.192s1.152,3.095,6,2.92c0,0,.695,2.251-4.822.868,0,0-.518,2.227,3.636,3.741,0,0-.464,1.062-3.017,1.2,0,0,1.221,1.554,4.622,1.188,0,0-4.371,3.3-8.333-3.3,0,0-1.765,3.967,3.962,6.6,0,0-.788,2.784-4.27.836,0,0-.411,3.328,5.39,5.2,0,0-.3,4.388-9.363.152,0,0-1.136,4.47,7.867,8.2,0,0-.852.694-6.417-.766l3.856,3.592a22.461,22.461,0,0,1-4.41-1.035c-.043-.114-.085-.228-.129-.343q-.333-.868-.7-1.723c-.17-.391-.752-1.206-.737-1.613a15.586,15.586,0,0,1-.4,2.917c-.257-.115-.518-.237-.778-.366l-.423-2.175a3.053,3.053,0,0,1-1.217.59,1.092,1.092,0,0,1-1.164-.511c-.194-.41.129-1.007.581-.957a2.841,2.841,0,0,1-1-.318,1.8,1.8,0,0,1,.777-.722c-.539.132-.952-.5-1.031-1.052s-.05-1.18-.451-1.563q-.547,1.01-1.094,2.02l-.75.044a12.852,12.852,0,0,1-.76-1.138v.2l-1.187-1.453a1.2,1.2,0,0,0,.278,1.353,6.687,6.687,0,0,1,.909,1.053v.7a.752.752,0,0,1-.575.106l-2.468-.255a4.2,4.2,0,0,1,2.9,4.551,3.923,3.923,0,0,0-1.714-.987q.3.487.612.974-1.6-.225-3.176-.595c.306.678,1.11.937,1.741,1.334s1.135,1.319.6,1.837l.594.536-.629.677c.649-.005,1.445.081,1.7.677.386.9-.93,1.844-.623,2.776a2.742,2.742,0,0,1-.027-2.347.968.968,0,0,0-1.362,1.027q-.174-.735-.349-1.471l-3.517-.169,2.205,1.09a1.613,1.613,0,0,1,.718.545.556.556,0,0,1-.172.786l1.343.733-1.221,1.338c.268-.117.523.357.278.516a2.137,2.137,0,0,1,1.748,2.658l-1.172-.972a.8.8,0,0,1-1.188.637,1.978,1.978,0,0,0,.093-1.176,1.239,1.239,0,0,0-1.237.544,1.379,1.379,0,0,0-.854-1.368,4.387,4.387,0,0,0,.042-1.018c-7.015,3.924-8.6-1.684-8.6-1.684,11.535-5.3,7.981-13.292,7.981-13.292-3.752,6.249-7.686,8.09-10.8,8.288a1.568,1.568,0,0,0,.5-.86c.05-.405-.32-.868-.71-.743a.718.718,0,0,0,.492-.579,6.9,6.9,0,0,0,3.043-1.853,12.634,12.634,0,0,1-3.622-.665.854.854,0,0,0-1.431-.855.852.852,0,0,0-.661-.912c.043-.06.087-.12.129-.18,7.828-3.042,6.835-7.348,6.835-7.348-11.114,2.786-9.713-1.748-9.713-1.748,9.765.352,12.086-5.882,12.086-5.882-5.3,2.013-12.227.387-12.227.387l6.3-3.031c-6.077-.289-8.357-2.455-8.357-2.455,13.749.343,15.067-6.489,15.067-6.489-5.558,4.141-10,2.769-10,2.769,3.7-.292,4.3-4.728,4.3-4.728-4.376-.219-9.688-6.874-9.688-6.874,6.215,2.506,9.225.463,9.225.463a16.944,16.944,0,0,1-6.862-2.093c2.045-1.18,3.3-6.48,3.3-6.48-3.586,3.31-5.342,2-5.342,2,5.509-4.632,4.5-12.185,4.5-12.185-2.371,6.841-5.008,2.274-5.008,2.274,2.423-.552,2.139-5.348,1.976-7.779A6.588,6.588,0,0,1,536.142,1390.24Zm1194.309,36.5c-1.1,2.01-4.833,1.3-8.079.208a6.561,6.561,0,0,0,3.251-3.078A17.783,17.783,0,0,0,1730.451,1426.744Zm-2.932,11.267a7.823,7.823,0,0,0,1.933-2.462,6.316,6.316,0,0,0,.742.363C1730.442,1437.423,1729.249,1437.966,1727.52,1438.011Zm-2.775,5.826.811-.756a11.2,11.2,0,0,0,1.238.385A18.267,18.267,0,0,1,1724.745,1443.837Zm-3.924-10.809a11,11,0,0,0,3.144-1.524c1.357,1.18,2.487,2.059,3.393,2.706C1721.057,1436.411,1720.821,1433.028,1720.821,1433.028Zm-1165.6,35.163c-.557.581-1.441.256-2.153-.235a10.151,10.151,0,0,0,3.188-4.229l.122.074a.953.953,0,0,1,.422.4c.221.534-.55.906-1.124.975a3.236,3.236,0,0,1,1.5,1.129,1.114,1.114,0,0,1-.433,1.6l2.308.9a3.08,3.08,0,0,1-1.914.446q.066.771.131,1.542A5.329,5.329,0,0,1,555.222,1468.191Zm-6.768,2.487a20.487,20.487,0,0,0,3.693-2.024,2.617,2.617,0,0,1,1.226.433,1.309,1.309,0,0,1,.264,1.962.613.613,0,1,1-.219,1.181l1.218.755a4.319,4.319,0,0,1-1.906.579l1.427.194-.451.476a1.234,1.234,0,0,1,.971,1.177,14.82,14.82,0,0,1-3.612.233,4.041,4.041,0,0,0-.866-.551l.6-.49a5.533,5.533,0,0,0-1.311-.205c-.031-.148-.065-.294-.1-.441a2.266,2.266,0,0,0,.069-2.777,1.516,1.516,0,0,0-.381-.343A1.185,1.185,0,0,0,548.454,1470.678Zm-9.17-17.824c.43.046.842.077,1.238.095a.8.8,0,0,0,.092.142,1.071,1.071,0,0,0-.427.307A7.087,7.087,0,0,1,539.284,1452.854Zm1012.208,7.16c.024-.353.038-.539-.057-.313A.281.281,0,0,0,1551.492,1460.014Zm-861.506-15.279c.04-.591.065-.9-.1-.524A.469.469,0,0,0,689.986,1444.735Z" transform="translate(-536.142 -1383.543)" fill="#fdeddf"/>
</svg>
