<svg xmlns="http://www.w3.org/2000/svg" width="100%" height="auto" viewBox="0 0 1200 182.451">
  <path id="Path_342" data-name="Path 342" d="M2697.936,1050.805c-.051-.123-.1-.237-.152-.365A1.349,1.349,0,0,0,2697.936,1050.805Zm-54.164-49.547a.339.339,0,0,0,.069.38C2643.869,1001.208,2643.887,1000.983,2643.772,1001.258Zm76.454-5.628c-.161-.382-.136-.068-.1.527A.471.471,0,0,0,2720.226,995.63Zm-108.737,14a1.535,1.535,0,0,0,.189-.454C2611.62,1009.335,2611.551,1009.478,2611.489,1009.63Zm13.182-44.36a.467.467,0,0,0,.1.527C2624.806,965.2,2624.83,964.889,2624.671,965.27ZM2584.8,943.542a.567.567,0,0,0,.115.632C2584.966,943.46,2585,943.085,2584.8,943.542Zm175.3,82.888c-.106-.251-.089-.045-.063.347A.31.31,0,0,0,2760.1,1026.43Zm768.227,11.937a.35.35,0,0,0,.07.391C3528.427,1038.316,3528.445,1038.084,3528.327,1038.367Zm136.316-62.3c-.173-.41-.146-.074-.1.566A.508.508,0,0,0,3664.643,976.064Zm39.556-21.787c-.2-.472-.168-.084-.119.654A.587.587,0,0,0,3704.2,954.277Zm-63.4,59.349a.342.342,0,0,0,.07.381C3640.9,1013.577,3640.92,1013.351,3640.8,1013.626Zm117.415-75.05c-.2,3-.551,8.912,2.435,9.594,0,0-3.249,5.633-6.17-2.8,0,0-1.249,9.315,5.538,15.027,0,0-2.164,1.616-6.582-2.467,0,0,1.551,6.537,4.072,7.992a20.874,20.874,0,0,1-8.455,2.581s3.708,2.52,11.366-.571c0,0-6.545,8.207-11.937,8.478,0,0,.746,5.471,5.3,5.831,0,0-5.469,1.692-12.317-3.414,0,0,1.623,8.425,18.564,8,0,0-2.81,2.672-10.3,3.027l7.757,3.739s-8.532,2-15.065-.477c0,0,2.859,7.688,14.891,7.254,0,0,1.725,5.592-11.968,2.156,0,0-1.224,5.311,8.42,9.062l.16.222a1.049,1.049,0,0,0-.813,1.124,1.1,1.1,0,0,0-1.811.616,1.071,1.071,0,0,0,.047.44,15.568,15.568,0,0,1-4.464.82,8.5,8.5,0,0,0,3.749,2.284.887.887,0,0,0,.607.715c-.479-.155-.935.417-.874.916a1.935,1.935,0,0,0,.618,1.061c-3.84-.244-8.687-2.515-13.31-10.222,0,0-4.38,9.855,9.833,16.393,0,0-1.955,6.917-10.6,2.077a5.477,5.477,0,0,0,.051,1.256,1.7,1.7,0,0,0-1.051,1.687,1.526,1.526,0,0,0-1.524-.671,2.45,2.45,0,0,0,.114,1.451.983.983,0,0,1-1.463-.786l-1.445,1.2a2.638,2.638,0,0,1,2.153-3.279c-.3-.2.013-.78.343-.636l-1.5-1.65,1.654-.9a.688.688,0,0,1-.212-.97,1.986,1.986,0,0,1,.885-.671l2.716-1.345-4.333.208q-.216.908-.431,1.815a1.192,1.192,0,0,0-1.678-1.266,3.386,3.386,0,0,1-.033,2.894c.378-1.149-1.244-2.311-.768-3.424.314-.735,1.3-.841,2.095-.835q-.387-.418-.775-.835.366-.332.733-.661c-.658-.639-.036-1.776.74-2.265s1.768-.81,2.145-1.645q-1.939.454-3.914.733.378-.6.754-1.2a4.845,4.845,0,0,0-2.112,1.216,5.185,5.185,0,0,1,3.572-5.612l-3.042.314a.917.917,0,0,1-.708-.13v-.861a8.263,8.263,0,0,1,1.121-1.3,1.476,1.476,0,0,0,.342-1.669l-1.463,1.792v-.246a15.778,15.778,0,0,1-.935,1.4l-.923-.055q-.675-1.245-1.349-2.491c-.495.472-.458,1.251-.556,1.928s-.606,1.461-1.271,1.3a2.223,2.223,0,0,1,.958.891,3.484,3.484,0,0,1-1.233.392c.557-.062.955.675.716,1.181a1.346,1.346,0,0,1-1.435.63,3.752,3.752,0,0,1-1.5-.728l-.522,2.682c-.321.159-.641.31-.958.451a19.2,19.2,0,0,1-.489-3.6c.019.5-.7,1.507-.907,1.989q-.456,1.055-.868,2.126c-.054.141-.106.282-.158.423a27.7,27.7,0,0,1-5.434,1.276l4.75-4.43c-6.857,1.8-7.907.944-7.907.944,11.093-4.6,9.693-10.114,9.693-10.114-11.168,5.225-11.536-.187-11.536-.187,7.148-2.309,6.641-6.413,6.641-6.413-4.291,2.4-5.261-1.031-5.261-1.031,7.055-3.245,4.881-8.137,4.881-8.137-4.881,8.137-10.268,4.069-10.268,4.069,4.192.452,5.7-1.465,5.7-1.465-3.146-.173-3.717-1.484-3.717-1.484,5.118-1.866,4.481-4.614,4.481-4.614-6.8,1.706-5.941-1.07-5.941-1.07,5.973.215,7.393-3.6,7.393-3.6-3.244,1.232-7.479.237-7.479.237l3.851-1.856c-3.717-.176-5.112-1.5-5.112-1.5,8.409.21,9.215-3.972,9.215-3.972-3.4,2.535-6.114,1.7-6.114,1.7,2.261-.179,2.631-2.9,2.631-2.9-2.677-.134-5.925-4.208-5.925-4.208,3.8,1.534,5.642.284,5.642.284a10.379,10.379,0,0,1-4.2-1.281c1.252-.723,2.022-3.968,2.022-3.968-2.193,2.027-3.268,1.225-3.268,1.225,3.37-2.835,2.749-7.46,2.749-7.46-1.45,4.189-3.061,1.393-3.061,1.393,1.481-.338,1.307-3.274,1.208-4.762-.76.87-3.852,1.086-3.852,1.086l.428-4.214-1.887,4.441-2.051-.259,3.1,4.424c-1.261,2.519-4.835-.839-4.835-.839a10.568,10.568,0,0,0,4.835,4.617c-1.051,2.729-6.1.84-6.1.84,1.471,2.309,4.843,2.2,4.843,2.2.849,2.407-4.633,4.1-4.633,4.1,2.313,1.05,5.106-.374,5.106-.374-.99,3.614-5.606,4.045-5.606,4.045a9.594,9.594,0,0,0,4.284,3.256c-1.261,2.309-8.19-1.233-8.19-1.233,5.474,5.9,8.033,6.846,8.033,6.846.473,2.884-7.6.025-7.6.025,2.545,4.588,6.3,4.731,6.3,4.731-1.665,1.974-6.822-1.459-6.822-1.459a15.232,15.232,0,0,0,6.173,6.622c-2.523,0-10.463-4.556-10.463-4.556.68,2.16,7.122,7.2,7.122,7.2-1.029,2.229-4.032.218-4.032.218,1.455,4.125,6.322,6.58,6.322,6.58-.841,1.889-6.857-.684-6.857-.684,3.444,6.033,7.067,6.141,7.067,6.141-.631,3.989-7.987,1.587-7.987,1.587,1.894,3.475,8.407,4.71,8.407,4.71-1.891.84-8.421-1.259-8.421-1.259,1.67,3.989,8,5.038,8,5.038-3.363,2.728-10.8-2.848-10.8-2.848.554,3.869,5.186,6.039,5.186,6.039-4.14.672-9.041-3.173-9.041-3.173a19.4,19.4,0,0,0,5.306,7.478q-.4.456-.82.871c-4.092-1.213-6.143-2.518-7.172-3.486a4.307,4.307,0,0,0,.531-2.76c-9.689,4.533-10.009-.162-10.009-.162,6.2-2,5.762-5.564,5.762-5.564-3.723,2.085-4.565-.894-4.565-.894,6.122-2.816,4.235-7.061,4.235-7.061-4.235,7.061-8.909,3.531-8.909,3.531,3.637.392,4.942-1.271,4.942-1.271-2.729-.15-3.225-1.287-3.225-1.287,4.441-1.62,3.888-4,3.888-4-5.9,1.48-5.154-.928-5.154-.928,5.182.187,6.414-3.125,6.414-3.125a13.024,13.024,0,0,1-6.489.206l3.342-1.61c-3.226-.153-4.436-1.3-4.436-1.3,7.3.182,7.995-3.446,7.995-3.446-2.949,2.2-5.3,1.47-5.3,1.47,1.961-.155,2.282-2.511,2.282-2.511-2.322-.117-5.141-3.652-5.141-3.652,3.3,1.332,4.9.246,4.9.246a8.983,8.983,0,0,1-3.642-1.111c1.086-.627,1.754-3.442,1.754-3.442-1.9,1.758-2.835,1.062-2.835,1.062,2.923-2.46,2.385-6.472,2.385-6.472-1.258,3.634-2.656,1.209-2.656,1.209,1.285-.294,1.134-2.841,1.048-4.133-.659.756-3.343.943-3.343.943l.372-3.656-1.638,3.853-1.779-.224,2.687,3.838c-1.094,2.185-4.194-.729-4.194-.729a9.164,9.164,0,0,0,4.194,4.007c-.912,2.367-5.289.728-5.289.728,1.276,2,4.2,1.907,4.2,1.907.736,2.088-4.019,3.557-4.019,3.557,2.006.911,4.43-.325,4.43-.325-.86,3.136-4.865,3.51-4.865,3.51a8.323,8.323,0,0,0,3.718,2.825c-1.1,2-7.107-1.07-7.107-1.07,4.75,5.123,6.97,5.94,6.97,5.94.41,2.5-6.593.021-6.593.021,2.208,3.981,5.468,4.106,5.468,4.106-1.443,1.712-5.917-1.266-5.917-1.266a13.212,13.212,0,0,0,5.355,5.745c-2.189,0-9.078-3.953-9.078-3.953.59,1.874,6.179,6.251,6.179,6.251-.893,1.933-3.5.189-3.5.189,1.264,3.579,5.486,5.709,5.486,5.709-.73,1.639-5.949-.594-5.949-.594,2.988,5.235,6.131,5.329,6.131,5.329-.547,3.46-6.929,1.376-6.929,1.376,1.643,3.015,7.293,4.087,7.293,4.087-1.641.729-7.306-1.092-7.306-1.092,1.449,3.46,6.942,4.37,6.942,4.37-2.918,2.368-9.368-2.471-9.368-2.471a5.058,5.058,0,0,0,.607,1.753c-1.362.35-3.2.637-3.027-.433,0,0,1.491-.548,4.68-3.987,0,0-4.037,2.062-4.772.717a5.584,5.584,0,0,0,2.5-1.9s-2.689-.251-3.266-2.356a3.907,3.907,0,0,0,2.975.218s-3.194-.987-2.7-2.389a3.489,3.489,0,0,0,2.821-1.28s-2.939,1.1-3.551-.489a6.156,6.156,0,0,0,2.816-2.69s-2.081,1.957-2.816.489l1.8-2.577-1.2.151-1.1-2.587.25,2.455s-1.8-.126-2.244-.633c-.058.867-.16,2.577.7,2.774,0,0-.939,1.629-1.784-.811a5.2,5.2,0,0,0,1.6,4.345s-.626.467-1.9-.713c0,0,.448,1.89,1.177,2.311a6.026,6.026,0,0,1-2.444.746s1.072.729,3.286-.165c0,0-1.893,2.373-3.452,2.451a2.582,2.582,0,0,0,.463,1.1l-2.16-.621c-5.1,3.336-7.974-.645-7.974-.645,3.441-3.518,4.454-12.114,4.454-12.114a6.558,6.558,0,0,1-8.107.444l2.139-2.729c-2.434-.311-4.989-6.823-4.989-6.823,2.227.186,3.062-2.131,3.062-2.131-2.32-.185-3.711-3.613-3.711-3.613.835.556,1.651-1.414,1.651-1.414a4.718,4.718,0,0,1-2.3-4.331l-.928,3.706-1.884-1.173,1.141,4.509c.186,2.131-2.428-1.494-2.428-1.494.077,2.86-1.655-.266-1.655-.266,1.021,4.447-1.485,2.687-1.485,2.687.465,1.111,3.805,3.52,3.805,3.52l-2.783,2.687a32.576,32.576,0,0,0,2.267,2.786c-2.557.191-5.423-2.6-5.423-2.6,1.392,4.262,4.7,4.818,4.7,4.818l-2.008.648a4.657,4.657,0,0,1-1.181,2.616c1.416.206,4.763-1.537,4.763-1.537-.779,1.912-4.51,3.462-4.51,3.462a22.931,22.931,0,0,0,2.465.36c-2.084,1.473-4.376-.1-4.376-.1,1.892,2.853,3.953,2.15,3.953,2.15-2.135,3.243-8.582.049-8.582.049,2.925,3.941,9.046,6.437,9.046,6.437-1.763.555-4.278-.866-4.278-.866.361,1.358,2.515,2.163,2.515,2.163-3.434.648-6.96-1.761-6.96-1.761,1.763,3.8,7.251,5.224,7.251,5.224-5.092,1.889-7.475-1.457-7.475-1.457.705,3.3,4.585,6.147,4.585,6.147-3.711.093-8.234-3.867-8.234-3.867,1.324,4.471,7.677,7.944,7.677,7.944-1.855,1.575-5.293-.791-5.293-.791.644,3.286,6.407,7.463,6.407,7.463a6,6,0,0,1-7.056-1.2c.553,2.694,7.149,5.83,7.149,5.83-1.3,3.429-8.074,1.668-8.074,1.668a10.769,10.769,0,0,0,5.661,3.8c-2.784,1.39-5.842-1.3-5.842-1.3,1.489,4.075,5.928,4.886,5.928,4.886-6.6.715-8.833-2.31-8.833-2.31,1.089,4.15,5.406,5.765,5.406,5.765-5.474,1.76-9.653-3.632-9.653-3.632a18.376,18.376,0,0,0,1.72,3.11,15.574,15.574,0,0,1-1.291,1.813l-12.542.974c4.542-3.541,3.737-6.737,3.737-6.737-11.048,5.169-11.412-.185-11.412-.185,7.071-2.284,6.569-6.343,6.569-6.343-4.244,2.376-5.2-1.02-5.2-1.02,6.979-3.21,4.828-8.05,4.828-8.05-4.828,8.05-10.157,4.026-10.157,4.026,4.147.447,5.635-1.45,5.635-1.45-3.113-.171-3.677-1.467-3.677-1.467,5.064-1.846,4.433-4.564,4.433-4.564-6.724,1.687-5.877-1.059-5.877-1.059,5.908.213,7.312-3.562,7.312-3.562-3.207,1.219-7.4.234-7.4.234l3.809-1.835c-3.677-.175-5.057-1.487-5.057-1.487,8.319.208,9.115-3.929,9.115-3.929-3.361,2.507-6.047,1.676-6.047,1.676,2.236-.176,2.6-2.863,2.6-2.863-2.647-.133-5.86-4.163-5.86-4.163,3.759,1.518,5.58.281,5.58.281a10.251,10.251,0,0,1-4.151-1.268c1.237-.714,2-3.924,2-3.924-2.169,2.005-3.232,1.212-3.232,1.212,3.333-2.8,2.719-7.379,2.719-7.379-1.434,4.143-3.029,1.377-3.029,1.377,1.466-.335,1.294-3.239,1.2-4.711-.752.862-3.811,1.075-3.811,1.075l.424-4.168-1.867,4.392-2.029-.255,3.064,4.376c-1.248,2.491-4.783-.831-4.783-.831a10.452,10.452,0,0,0,4.783,4.568c-1.04,2.7-6.031.831-6.031.831,1.456,2.284,4.791,2.173,4.791,2.173.84,2.381-4.582,4.056-4.582,4.056,2.287,1.038,5.05-.371,5.05-.371-.979,3.575-5.545,4-5.545,4a9.487,9.487,0,0,0,4.238,3.22c-1.248,2.284-8.1-1.219-8.1-1.219,5.414,5.841,7.946,6.771,7.946,6.771.468,2.853-7.517.025-7.517.025,2.517,4.539,6.235,4.681,6.235,4.681-1.646,1.952-6.747-1.444-6.747-1.444a15.061,15.061,0,0,0,6.1,6.551c-2.495,0-10.349-4.507-10.349-4.507.672,2.137,7.044,7.127,7.044,7.127-1.017,2.2-3.988.215-3.988.215,1.44,4.081,6.254,6.509,6.254,6.509-.833,1.868-6.783-.677-6.783-.677,3.407,5.968,6.99,6.075,6.99,6.075-.624,3.945-7.9,1.569-7.9,1.569,1.223,2.245,4.385,3.54,6.439,4.172l-2.8.217c-1.926-.421-3.654-.974-3.654-.974a5.456,5.456,0,0,0,.712,1.2l-3.423.266c-.159-.289-.312-.579-.477-.864.71.666,1.952-.407,1.7-1.349a2.581,2.581,0,0,0-2.257-1.583,8.039,8.039,0,0,0,1.724-2.8.884.884,0,0,0,.061-.581c-.232-.65-1.538-.267-1.716-.934a1.093,1.093,0,0,0,.52-1.107,4.659,4.659,0,0,0-1.516-2.662l-.774-.841a2.035,2.035,0,0,0,1.985-1,33.8,33.8,0,0,0-4.828-1l2.1-1.147a.923.923,0,0,0,.4-.326c.279-.506-.466-.945-1.035-1.051a1.545,1.545,0,0,0-.637-2.285c.5-.584.183-1.49-.239-2.134a3.075,3.075,0,0,1-.813-2.1c.113-.6.623-1.037.86-1.6a1.9,1.9,0,0,0-.423-2.062,1.811,1.811,0,0,0,1.457-1.236,2.458,2.458,0,0,0-2.147-.744,1.625,1.625,0,0,1,.4-1.474l-1.03-.63a2.437,2.437,0,0,0,.506-1.111c.134-1.524-1.657-.843-1.245.815.175.7.052,1.761-.673,1.736a.979.979,0,0,0,.774.7,6.175,6.175,0,0,1-1.871,1.189,1.879,1.879,0,0,1,1.429.427c.338.385.072,1.192-.429,1.081l.643.894a1.05,1.05,0,0,0-.813,1.125,1.1,1.1,0,0,0-1.811.616,1.443,1.443,0,0,0,1.554,1.46,3.423,3.423,0,0,0-1.974.951c-.469.578-.359,1.649.359,1.848-.478-.155-.935.417-.873.915a2.277,2.277,0,0,0,.8,1.244,15.24,15.24,0,0,1-1.459,1.291,1.163,1.163,0,0,1,.992,1.6,1.5,1.5,0,0,1-1.935.637,4.316,4.316,0,0,0,1.868,2.5l-3.321.524,3.282,2.429a2.753,2.753,0,0,0-1.471.211.945.945,0,0,0-.43,1.265,1.4,1.4,0,0,0-.378,1.974c-.713-.225-1.722-.319-1.984.38-.3.813.824,1.374,1.682,1.512a3.826,3.826,0,0,0-2.116,2.2,2.458,2.458,0,0,1,1.287,2.194l-1.225.095a11.655,11.655,0,0,0,.865-1.311s-3.6,1.541-4.1.41c0,0,2.913-1.47,3.785-3.94,0,0-1.8,1.2-2.415-.13,0,0,3.857-3.021,4.264-4.314,0,0-4.753,2.728-6.263,2.728a9.126,9.126,0,0,0,3.7-3.965s-3.088,2.056-4.084.874a4.943,4.943,0,0,0,3.773-2.833s-4.832,1.712-4.549-.015c0,0,1.532-.563,4.809-4.1,0,0-4.148,2.121-4.9.738a5.742,5.742,0,0,0,2.565-1.949s-2.764-.258-3.357-2.422a4.014,4.014,0,0,0,3.057.224s-3.282-1.013-2.774-2.455a3.587,3.587,0,0,0,2.9-1.315s-3.02,1.131-3.65-.5a6.327,6.327,0,0,0,2.9-2.765s-2.14,2.011-2.9.5l1.855-2.649-1.228.155-1.13-2.659.256,2.523s-1.852-.129-2.307-.65c-.059.891-.163,2.649.724,2.851,0,0-.965,1.674-1.833-.833a5.346,5.346,0,0,0,1.645,4.466s-.643.48-1.956-.734c0,0,.461,1.943,1.211,2.376a6.216,6.216,0,0,1-2.513.767s1.1.749,3.378-.17c0,0-1.945,2.439-3.548,2.52,0,0,.222,1.626,1.575,1.733a4.358,4.358,0,0,1-3.66-1.015s.482,2.5,5.517,2.378a4.943,4.943,0,0,1-3.061.9l2.306,1.111a8.979,8.979,0,0,1-4.477-.142s.85,2.285,4.425,2.156c0,0,.513,1.662-3.557.641,0,0-.381,1.645,2.684,2.763,0,0-.342.784-2.226.888,0,0,.9,1.148,3.41.877,0,0-3.225,2.436-6.147-2.436,0,0-1.3,2.929,2.922,4.872,0,0-.581,2.056-3.15.617,0,0-.3,2.457,3.976,3.84a1.231,1.231,0,0,1-.063.275l-5.465.424c-.429-.167-.88-.354-1.379-.587a2.118,2.118,0,0,0-.011.695L3159.4,1097.916,2818.2,1071.095a2.016,2.016,0,0,0,.264-.544c.108-.292.342-.619.648-.56a.25.25,0,0,1,.052-.43,5.433,5.433,0,0,0-.7-.717l.432-.3q-.163-.312-.341-.618c.262.245.718-.149.627-.5a.95.95,0,0,0-.83-.582,2.939,2.939,0,0,0,.634-1.029.325.325,0,0,0,.023-.213c-.086-.24-.566-.1-.632-.344a.4.4,0,0,0,.192-.407,1.712,1.712,0,0,0-.558-.979l-.285-.31a.748.748,0,0,0,.731-.367,12.517,12.517,0,0,0-1.776-.367l.774-.422a.337.337,0,0,0,.145-.12c.1-.186-.17-.348-.38-.387a.567.567,0,0,0-.234-.84c.184-.215.067-.548-.088-.785a1.131,1.131,0,0,1-.3-.771c.041-.22.229-.381.316-.587a.7.7,0,0,0-.155-.758.665.665,0,0,0,.535-.455.9.9,0,0,0-.789-.273.6.6,0,0,1,.149-.543l-.379-.231a.9.9,0,0,0,.186-.409c.049-.56-.61-.31-.458.3.064.258.019.647-.248.638a.361.361,0,0,0,.285.257,2.3,2.3,0,0,1-.688.437.693.693,0,0,1,.525.157c.125.142.026.438-.158.4.08.109.158.219.237.329a.385.385,0,0,0-.3.413.4.4,0,0,0-.666.227.531.531,0,0,0,.571.537c-.1.023-.195.054-.291.086a3.089,3.089,0,0,0-1.3-1.06c-.045.218-.089.436-.134.654a3.97,3.97,0,0,0-1.386-.743,2.491,2.491,0,0,1-.458,1.539,1.118,1.118,0,0,0-2.1.71c-.362-.035-.443-.535-.358-.888s.221-.772-.024-1.041c-.175-.193-.479-.214-.671-.39-.34-.31-.111-.929.3-1.128a2.143,2.143,0,0,1,1.354-.019,1.1,1.1,0,0,0-1.109-1.325.582.582,0,0,0-.262-1c-.3-.032-.565.176-.844.29s-.7.062-.75-.234c-.084-.478.777-.466,1.051-.866a.959.959,0,0,1-.359-.735l2.207-.232a2.648,2.648,0,0,1-.36-1.631c.069-.631.349-1.33-.01-1.853l-.959.549-.142-.751a.681.681,0,0,1-.675-.182.641.641,0,0,0,.039-1.016,3.572,3.572,0,0,0-.424-.205c-.6-.324-.657-1.151-.633-1.834a2.912,2.912,0,0,0-1.657,1.276l-.527-.875c-.312.177-.263.65-.082.959a2.34,2.34,0,0,1,.476.949c.022.357-.457.712-.685.435-.367.159-.268.767.081.963a1.656,1.656,0,0,0,1.172.02c.117.493.235.986.351,1.479a.481.481,0,0,1,0,.32c-.151.315-.8.1-.882.441q-.216-.7-.433-1.393a.686.686,0,0,0-.6.887,2.284,2.284,0,0,0-1.234-1.149.782.782,0,0,0,.7-.861,1.213,1.213,0,0,1-2.029-1.042.633.633,0,0,0-.666.322,1.341,1.341,0,0,1,.72,1.561,1.728,1.728,0,0,1,.97.176.594.594,0,0,1,.194.853l-.659-.308a1.269,1.269,0,0,0,.3,1.118,1.06,1.06,0,0,0-.872.555,2.982,2.982,0,0,1,1.712.082l-.353.624a1.664,1.664,0,0,1,.865.109.57.57,0,0,1,.289.735c-.217.373-.783.2-1.164,0s-.986-.308-1.131.1q.182-.527.364-1.053l-1.3.3a17.163,17.163,0,0,0-.067-1.729c-.332-.1-.391.442-.377.789a1.47,1.47,0,0,1-.869,1.375l1.261.041a2.542,2.542,0,0,0,.018,1.267,2.247,2.247,0,0,0-1.586.508,2.626,2.626,0,0,1,1.387.687,14.173,14.173,0,0,0-2.145.615,2.477,2.477,0,0,0,.06-1.065c-.12.056-.224.1-.341.148,0-.149-.009-.3,0-.446a5.872,5.872,0,0,1-.308.581c-5.942,2.566-6.162-.393-6.162-.393,4.22-1.364,3.921-3.787,3.921-3.787-2.534,1.419-3.107-.609-3.107-.609,4.166-1.916,2.883-4.8,2.883-4.8-2.883,4.8-6.063,2.4-6.063,2.4,2.475.267,3.363-.865,3.363-.865-1.858-.1-2.2-.876-2.2-.876,3.023-1.1,2.646-2.724,2.646-2.724-4.013,1.007-3.508-.632-3.508-.632,3.527.127,4.365-2.126,4.365-2.126a8.868,8.868,0,0,1-4.416.14l2.274-1.1a4.866,4.866,0,0,1-3.018-.888c4.965.124,5.441-2.345,5.441-2.345a4.3,4.3,0,0,1-3.61,1c1.335-.106,1.553-1.709,1.553-1.709-1.58-.08-3.5-2.485-3.5-2.485,2.244.906,3.331.167,3.331.167a6.121,6.121,0,0,1-2.478-.756c.738-.427,1.193-2.343,1.193-2.343-1.295,1.2-1.929.723-1.929.723a5.271,5.271,0,0,0,1.623-4.4c-.856,2.473-1.807.822-1.807.822.874-.2.771-1.933.713-2.812-.449.514-2.275.642-2.275.642l.253-2.489-1.114,2.622-1.212-.152,1.83,2.612c-.745,1.487-2.855-.5-2.855-.5a6.242,6.242,0,0,0,2.855,2.727c-.621,1.611-3.6.5-3.6.5a3.538,3.538,0,0,0,2.86,1.3c.5,1.421-2.736,2.421-2.736,2.421a3.961,3.961,0,0,0,3.015-.221c-.585,2.134-3.31,2.388-3.31,2.388a5.665,5.665,0,0,0,2.529,1.923c-.744,1.363-4.836-.728-4.836-.728,3.232,3.486,4.743,4.042,4.743,4.042.28,1.7-4.486.015-4.486.015a4.876,4.876,0,0,0,3.721,2.794c-.982,1.165-4.027-.862-4.027-.862a9,9,0,0,0,3.644,3.91c-1.489,0-6.178-2.69-6.178-2.69.4,1.275,4.2,4.254,4.2,4.254-.607,1.315-2.381.128-2.381.128.86,2.436,3.733,3.885,3.733,3.885-.5,1.116-4.048-.4-4.048-.4,2.033,3.562,4.172,3.626,4.172,3.626-.372,2.355-4.715.936-4.715.936,1.118,2.053,4.964,2.782,4.964,2.782-1.118.5-4.973-.744-4.973-.744.986,2.355,4.724,2.975,4.724,2.975-1.986,1.611-6.375-1.682-6.375-1.682.327,2.285,3.062,3.566,3.062,3.566-2.444.4-5.339-1.873-5.339-1.873a10.673,10.673,0,0,0,2.342,3.641l-3.272-.257a4.359,4.359,0,0,1-.933-.809V1055.88c-2.679,4.57-8.954,5.2-8.954,5.2l2.522-2.352c-3.642.956-4.2.5-4.2.5,5.891-2.444,5.148-5.371,5.148-5.371-5.931,2.774-6.127-.1-6.127-.1,3.8-1.226,3.527-3.4,3.527-3.4-2.278,1.276-2.794-.547-2.794-.547,3.747-1.724,2.592-4.322,2.592-4.322-2.592,4.322-5.453,2.161-5.453,2.161,2.226.24,3.025-.778,3.025-.778-1.671-.092-1.974-.788-1.974-.788,2.718-.991,2.38-2.45,2.38-2.45-3.61.906-3.155-.568-3.155-.568,3.172.114,3.926-1.912,3.926-1.912a7.976,7.976,0,0,1-3.972.126l2.045-.986a4.381,4.381,0,0,1-2.714-.8c4.465.112,4.893-2.109,4.893-2.109a3.863,3.863,0,0,1-3.247.9c1.2-.095,1.4-1.537,1.4-1.537-1.422-.072-3.147-2.235-3.147-2.235,2.019.815,3,.15,3,.15a5.5,5.5,0,0,1-2.229-.68c.665-.384,1.074-2.107,1.074-2.107-1.165,1.076-1.735.651-1.735.651a4.738,4.738,0,0,0,1.459-3.961c-.769,2.224-1.625.739-1.625.739.786-.18.694-1.739.641-2.529-.4.462-2.046.577-2.046.577l.228-2.238-1,2.358-1.09-.137,1.645,2.349c-.669,1.338-2.567-.446-2.567-.446a5.618,5.618,0,0,0,2.567,2.453c-.558,1.449-3.237.445-3.237.445a3.179,3.179,0,0,0,2.572,1.167c.451,1.279-2.46,2.177-2.46,2.177a3.555,3.555,0,0,0,2.711-.2c-.526,1.919-2.977,2.148-2.977,2.148a5.092,5.092,0,0,0,2.275,1.729c-.669,1.226-4.349-.655-4.349-.655,2.906,3.136,4.265,3.635,4.265,3.635.252,1.532-4.034.014-4.034.014a4.384,4.384,0,0,0,3.346,2.512c-.883,1.048-3.622-.775-3.622-.775a8.091,8.091,0,0,0,3.278,3.517c-1.34,0-5.556-2.42-5.556-2.42.361,1.147,3.782,3.826,3.782,3.826-.546,1.183-2.142.116-2.142.116a7.5,7.5,0,0,0,3.358,3.494c-.447,1-3.641-.363-3.641-.363,1.828,3.2,3.752,3.261,3.752,3.261-.335,2.118-4.241.842-4.241.842,1.006,1.846,4.465,2.5,4.465,2.5-1,.446-4.472-.669-4.472-.669a2.835,2.835,0,0,0,.194.381,25.906,25.906,0,0,0-2.632-.649l.8-.72-1.432-.405a1.342,1.342,0,0,0,.793-.859l-.594-.22a1.287,1.287,0,0,0,.646-.571,6.155,6.155,0,0,1-1.689-.317l.809-.462-1.759-1.467a3.622,3.622,0,0,0,1.044-.454,3.494,3.494,0,0,0-2.328-1.269c.537-.171.739-.8.932-1.332s.618-1.12,1.172-1.013a.452.452,0,0,1,.094-.777,9.946,9.946,0,0,0-1.274-1.3l.781-.548q-.3-.564-.617-1.117c.472.443,1.3-.27,1.134-.9a1.72,1.72,0,0,0-1.5-1.053,5.348,5.348,0,0,0,1.146-1.86.581.581,0,0,0,.04-.386c-.153-.432-1.022-.177-1.14-.62a.727.727,0,0,0,.345-.737,3.1,3.1,0,0,0-1.008-1.77l-.514-.559a1.352,1.352,0,0,0,1.32-.664,22.509,22.509,0,0,0-3.211-.664l1.4-.763a.622.622,0,0,0,.263-.216c.186-.337-.309-.629-.687-.7a1.027,1.027,0,0,0-.424-1.518c.334-.389.122-.991-.159-1.42a2.04,2.04,0,0,1-.541-1.393c.075-.4.414-.689.572-1.061a1.261,1.261,0,0,0-.281-1.371,1.2,1.2,0,0,0,.969-.821,1.633,1.633,0,0,0-1.428-.495,1.081,1.081,0,0,1,.269-.98l-.685-.419a1.623,1.623,0,0,0,.336-.739c.089-1.013-1.1-.56-.827.542.116.467.034,1.171-.448,1.154a.653.653,0,0,0,.515.464,4.1,4.1,0,0,1-1.245.79,1.248,1.248,0,0,1,.951.284c.225.256.047.792-.286.719l.428.594a.7.7,0,0,0-.54.748.729.729,0,0,0-1.205.41.959.959,0,0,0,1.034.97,2.283,2.283,0,0,0-1.313.632c-.312.385-.238,1.1.239,1.229-.318-.1-.622.277-.581.609a1.519,1.519,0,0,0,.53.827,10.118,10.118,0,0,1-.97.858.773.773,0,0,1,.659,1.067,1,1,0,0,1-1.286.423,2.873,2.873,0,0,0,1.242,1.663l-2.208.348,2.182,1.615a1.842,1.842,0,0,0-.979.14.63.63,0,0,0-.285.842.927.927,0,0,0-.251,1.312c-.474-.15-1.146-.212-1.319.253-.2.54.547.913,1.118,1.005a2.541,2.541,0,0,0-1.406,1.46,1.257,1.257,0,0,1,.481.408,22.946,22.946,0,0,1-8.889,3.155l3.835-3.576c-5.537,1.454-6.384.762-6.384.762,8.956-3.715,7.826-8.166,7.826-8.166-9.017,4.218-9.314-.151-9.314-.151,5.771-1.865,5.362-5.178,5.362-5.178-3.465,1.94-4.248-.832-4.248-.832,5.7-2.621,3.94-6.571,3.94-6.571-3.94,6.571-8.29,3.286-8.29,3.286,3.385.365,4.6-1.183,4.6-1.183-2.541-.14-3-1.2-3-1.2,4.134-1.507,3.619-3.725,3.619-3.725-5.488,1.377-4.8-.865-4.8-.865,4.822.174,5.968-2.907,5.968-2.907a12.112,12.112,0,0,1-6.038.191l3.109-1.5c-3-.143-4.128-1.213-4.128-1.213,6.79.169,7.441-3.208,7.441-3.208-2.745,2.047-4.936,1.369-4.936,1.369,1.825-.145,2.124-2.337,2.124-2.337-2.162-.109-4.784-3.4-4.784-3.4,3.069,1.239,4.555.229,4.555.229a8.374,8.374,0,0,1-3.389-1.035c1.011-.583,1.632-3.2,1.632-3.2-1.77,1.636-2.638.989-2.638.989a7.2,7.2,0,0,0,2.219-6.023c-1.17,3.382-2.471,1.124-2.471,1.124,1.2-.273,1.055-2.643.975-3.845-.613.7-3.11.877-3.11.877l.346-3.4-1.524,3.585-1.656-.208,2.5,3.572c-1.019,2.033-3.9-.678-3.9-.678a8.53,8.53,0,0,0,3.9,3.728c-.849,2.2-4.923.678-4.923.678,1.189,1.864,3.911,1.774,3.911,1.774.685,1.944-3.741,3.31-3.741,3.31a5.408,5.408,0,0,0,4.123-.3c-.8,2.918-4.526,3.266-4.526,3.266a7.739,7.739,0,0,0,3.458,2.629c-1.018,1.864-6.613-.995-6.613-.995,4.42,4.767,6.487,5.527,6.487,5.527.381,2.329-6.136.02-6.136.02,2.055,3.7,5.088,3.821,5.088,3.821-1.343,1.593-5.507-1.178-5.507-1.178a12.307,12.307,0,0,0,4.984,5.347c-2.037,0-8.447-3.68-8.447-3.68.548,1.745,5.749,5.818,5.749,5.818-.83,1.8-3.255.175-3.255.175,1.175,3.331,5.1,5.313,5.1,5.313-.679,1.525-5.536-.552-5.536-.552,2.781,4.871,5.706,4.958,5.706,4.958-.509,3.22-6.448,1.281-6.448,1.281,1.529,2.806,6.788,3.8,6.788,3.8-1.528.678-6.8-1.017-6.8-1.017,1.348,3.22,6.46,4.067,6.46,4.067-2.716,2.2-8.718-2.3-8.718-2.3.447,3.124,4.187,4.876,4.187,4.876-3.342.543-7.3-2.562-7.3-2.562,1.578,4.422,5.885,7.335,5.885,7.335-6.591-1.53-8.3-3.454-8.731-4.24a9.754,9.754,0,0,0,6.021,5.7c0,1.017-2.985.164-2.985.164,1.429,3.046,3.834,3.061,3.834,3.061v1.635c-.23.237-.447.5-.66.761l-3.652-.287q.132-.95.266-1.9a8.451,8.451,0,0,1-4.135.93,16.712,16.712,0,0,1,2.616-3.605,7.06,7.06,0,0,0-3.692-.5,16.852,16.852,0,0,0-.508-5.629,5.869,5.869,0,0,0-.847,6.993l-4.077-.812c1.86.371-2.112,2.714-2.017,2.66-1.188.686-2.865-.825-3.218.634l-1.462-.115-.151-1.517s5.958-1.643,9.147-9.027c0,0-4.224,5.453-9.762,3.673,0,0,4.367-1.633,5.469-5.83,0,0-2.263,3.059-8.934,2.336,0,0,4.489-.82,6-4.941,0,0-3.093,2.719-5.908,1.313a10.881,10.881,0,0,0,5.725-3.841s-6.851,1.78-8.165-1.687c0,0,6.67-3.172,7.23-5.9a6.063,6.063,0,0,1-7.136,1.211s5.827-4.224,6.48-7.547c0,0-3.477,2.393-5.354.8,0,0,6.424-3.513,7.764-8.034,0,0-4.573,4-8.327,3.911,0,0,3.924-2.877,4.637-6.217,0,0-2.409,3.384-7.559,1.474,0,0,5.55-1.441,7.333-5.283,0,0-3.566,2.436-7.039,1.78,0,0,2.178-.813,2.544-2.187,0,0-2.544,1.438-4.327.876,0,0,6.19-2.524,9.148-6.51,0,0-6.52,3.23-8.679-.05,0,0,2.084.712,4-2.174,0,0-2.318,1.592-4.425.1a23.4,23.4,0,0,0,2.492-.365s-3.773-1.567-4.561-3.5c0,0,3.385,1.763,4.817,1.555a4.716,4.716,0,0,1-1.2-2.645l-2.029-.656s3.343-.562,4.751-4.873c0,0-2.9,2.823-5.484,2.63a33.309,33.309,0,0,0,2.293-2.817l-2.815-2.718s3.378-2.436,3.848-3.56c0,0-2.534,1.78-1.5-2.718,0,0-1.752,3.162-1.673.269,0,0-2.644,3.667-2.456,1.512l1.155-4.561-1.906,1.187-.939-3.748a4.771,4.771,0,0,1-2.326,4.38s.825,1.992,1.669,1.43c0,0-1.407,3.467-3.753,3.654,0,0,.845,2.343,3.1,2.155,0,0-2.584,6.585-5.046,6.9l2.163,2.76a6.632,6.632,0,0,1-8.2-.449s1.024,8.693,4.5,12.251c0,0-2.9,4.026-8.064.652l-1.53.44c.546-.506,1.17-1.125,1.885-1.9,0,0-4.037,2.063-4.771.718a5.592,5.592,0,0,0,2.495-1.9s-2.689-.251-3.266-2.356a3.906,3.906,0,0,0,2.975.218s-3.193-.986-2.7-2.388a3.489,3.489,0,0,0,2.821-1.28s-2.939,1.1-3.551-.489a6.156,6.156,0,0,0,2.816-2.69s-2.082,1.956-2.816.489l1.8-2.577-1.195.15-1.1-2.586.25,2.454s-1.8-.125-2.244-.633c-.058.867-.159,2.577.7,2.774,0,0-.939,1.629-1.783-.811a5.2,5.2,0,0,0,1.6,4.346s-.626.467-1.9-.714c0,0,.448,1.89,1.177,2.311a6.026,6.026,0,0,1-2.445.746s1.072.729,3.286-.165c0,0-1.891,2.374-3.45,2.452,0,0,.215,1.582,1.532,1.686a4.237,4.237,0,0,1-3.561-.988s.221,1.138,1.924,1.819c-.7.511-6.1,4.3-8.639,2.242,0,0,5.112-.848,6.46-4.068,0,0-5.272,1.7-6.8,1.017,0,0,5.259-1,6.788-3.8,0,0-5.939,1.94-6.448-1.28,0,0,2.925-.088,5.706-4.959,0,0-4.857,2.078-5.536.552,0,0,3.929-1.982,5.105-5.312,0,0-2.426,1.623-3.256-.176,0,0,5.2-4.073,5.75-5.817,0,0-6.411,3.679-8.448,3.679a12.3,12.3,0,0,0,4.984-5.347s-4.164,2.772-5.507,1.178c0,0,3.033-.116,5.088-3.82,0,0-6.517,2.308-6.135-.021,0,0,2.066-.759,6.486-5.527,0,0-5.595,2.86-6.613.995a7.741,7.741,0,0,0,3.459-2.628s-3.727-.349-4.527-3.266a5.413,5.413,0,0,0,4.123.3s-4.426-1.367-3.74-3.31c0,0,2.721.09,3.91-1.775,0,0-4.074,1.526-4.922-.677a8.534,8.534,0,0,0,3.9-3.729s-2.886,2.712-3.9.678l2.5-3.572-1.657.209-1.524-3.586.347,3.4s-2.5-.174-3.111-.878c-.08,1.2-.22,3.572.976,3.846,0,0-1.3,2.257-2.473-1.125a7.21,7.21,0,0,0,2.22,6.023s-.868.648-2.638-.989c0,0,.621,2.62,1.632,3.2a8.363,8.363,0,0,1-3.389,1.034s1.486,1.01,4.555-.229c0,0-2.623,3.29-4.784,3.4,0,0,.3,2.193,2.125,2.337,0,0-2.192.678-4.937-1.368,0,0,.651,3.376,7.441,3.207,0,0-1.127,1.071-4.128,1.213l3.109,1.5a12.118,12.118,0,0,1-6.038-.192s1.147,3.082,5.969,2.908c0,0,.691,2.241-4.8.864,0,0-.515,2.218,3.618,3.725,0,0-.461,1.058-3,1.2,0,0,1.214,1.548,4.6,1.183,0,0-4.349,3.285-8.29-3.286,0,0-1.756,3.95,3.941,6.571,0,0-.784,2.772-4.249.832,0,0-.408,3.314,5.363,5.178,0,0-.3,4.37-9.315.151,0,0-1.13,4.451,7.827,8.167,0,0-.848.691-6.385-.763l3.835,3.577a22.694,22.694,0,0,1-9.524-3.58,11.889,11.889,0,0,0,3.461-4.75c-.389.686-1.564,2.053-5.08,3.442a13.446,13.446,0,0,1-1.634-1.774,16.922,16.922,0,0,0,3.313-5.39s-4.739,3.717-8.742,3.067c0,0,4.479-2.1,5.015-5.839,0,0-7.189,5.392-10.44,2.753,0,0,6.121-1.014,7.735-4.87,0,0-6.313,2.029-8.142,1.217,0,0,6.3-1.194,8.128-4.554,0,0-7.112,2.322-7.721-1.534,0,0,3.5-.1,6.832-5.938,0,0-5.816,2.488-6.629.661,0,0,4.7-2.373,6.112-6.361,0,0-2.9,1.944-3.9-.211,0,0,6.229-4.877,6.886-6.966,0,0-7.677,4.406-10.116,4.406a14.73,14.73,0,0,0,5.968-6.4s-4.986,3.319-6.595,1.411c0,0,3.633-.139,6.094-4.575,0,0-7.8,2.764-7.347-.024,0,0,2.474-.91,7.767-6.619,0,0-6.7,3.424-7.919,1.192a9.276,9.276,0,0,0,4.142-3.148s-4.463-.417-5.421-3.911c0,0,2.7,1.377,4.937.362,0,0-5.3-1.637-4.479-3.964,0,0,3.26.108,4.683-2.125,0,0-4.878,1.827-5.9-.811a10.216,10.216,0,0,0,4.675-4.465s-3.455,3.247-4.675.812l3-4.278-1.983.25-1.825-4.293.414,4.074s-2.99-.208-3.724-1.05c-.1,1.438-.264,4.277,1.168,4.6,0,0-1.558,2.7-2.96-1.346,0,0-.6,4.471,2.657,7.212,0,0-1.039.775-3.159-1.184,0,0,.744,3.137,1.955,3.836a10.009,10.009,0,0,1-4.058,1.238s1.779,1.21,5.455-.274c0,0-3.141,3.939-5.729,4.069,0,0,.358,2.626,2.544,2.8,0,0-2.625.812-5.911-1.639,0,0,.779,4.044,8.909,3.841,0,0-1.349,1.282-4.943,1.453l3.723,1.794s-4.094.962-7.23-.229c0,0,1.373,3.69,7.147,3.481,0,0,.828,2.684-5.744,1.035,0,0-.616,2.657,4.333,4.461,0,0-.552,1.267-3.594,1.435,0,0,1.454,1.853,5.507,1.416,0,0-4.065,3.065-8.268-1.647a11.9,11.9,0,0,0,1.158-1.533,16.939,16.939,0,0,1-2.694-.558c-.041-.067-.082-.128-.123-.2,0,0-.024.058-.055.145-2.907-.864-7.149-2.893-8.421-7.54,0,0,5.627,2.869,10.286.754,0,0-11.044-3.409-9.333-8.259,0,0,6.792.225,9.756-4.426,0,0-10.164,3.8-12.282-1.692,0,0,6.777-2.96,9.741-9.3,0,0-7.2,6.766-9.741,1.692l6.242-8.912-4.134.521-3.8-8.946.864,8.489s-.827-.064-1.945-.223v174.185h1200V940.536A8.116,8.116,0,0,1,3758.219,938.576ZM2575.2,982.017a8.085,8.085,0,0,0,4.006,3.8c-4,1.352-8.6,2.223-9.954-.257A21.913,21.913,0,0,0,2575.2,982.017Zm-5.631,14.846a8.059,8.059,0,0,0,.914-.447,9.642,9.642,0,0,0,2.382,3.035C2570.73,999.4,2569.26,998.727,2569.566,996.863Zm4.189,9.316a13.7,13.7,0,0,0,1.526-.474l1,.932A22.627,22.627,0,0,1,2573.755,1006.179Zm-.7-11.415c1.117-.8,2.51-1.882,4.182-3.338a13.534,13.534,0,0,0,3.874,1.881S2580.824,997.479,2573.059,994.764Zm1163.148,45.121.162-1.9a3.8,3.8,0,0,1-2.358-.552l2.843-1.111a1.374,1.374,0,0,1-.533-1.974,3.979,3.979,0,0,1,1.846-1.392c-.708-.086-1.657-.544-1.385-1.2a1.171,1.171,0,0,1,.521-.494l.15-.092a12.536,12.536,0,0,0,3.928,5.217c-.877.6-1.967,1.006-2.653.289A6.572,6.572,0,0,1,3736.207,1039.885Zm10.091.052a1.825,1.825,0,0,0-.469.422,2.8,2.8,0,0,0,.084,3.425c-.042.181-.085.362-.123.544a6.741,6.741,0,0,0-1.616.254q.372.3.741.6a4.9,4.9,0,0,0-1.066.68,18.338,18.338,0,0,1-4.45-.288,1.521,1.521,0,0,1,1.2-1.452q-.278-.292-.554-.587l1.758-.24a5.321,5.321,0,0,1-2.348-.713l1.5-.932a.756.756,0,1,1-.27-1.455,1.616,1.616,0,0,1,.325-2.421,3.224,3.224,0,0,1,1.511-.534,25.152,25.152,0,0,0,4.55,2.5A1.463,1.463,0,0,0,3746.3,1039.937Zm10.955-21.508a1.3,1.3,0,0,0-.526-.378,1.1,1.1,0,0,0,.114-.176c.487-.022.995-.06,1.524-.117A8.659,8.659,0,0,1,3757.253,1018.429Zm-967.434,7.773c-.117-.279-.1-.05-.07.386A.346.346,0,0,0,2789.819,1026.2Zm782.982-19.1c-.2-.467-.166-.083-.117.646A.577.577,0,0,0,3572.8,1007.1Z" transform="translate(-2562.238 -932.276)" fill="#2a6548"/>
</svg>
