<svg xmlns="http://www.w3.org/2000/svg" width="36.145" height="29.346" viewBox="0 0 36.145 29.346">
  <path id="twitter-brands-orange" d="M32.431,55.507c.021.318.021.642.021.96,0,9.792-7.455,21.08-21.08,21.08A20.9,20.9,0,0,1,0,74.221a14.905,14.905,0,0,0,1.786.092,14.865,14.865,0,0,0,9.2-3.163,7.423,7.423,0,0,1-6.925-5.139,9.109,9.109,0,0,0,1.4.113,7.761,7.761,0,0,0,1.948-.254A7.4,7.4,0,0,1,1.468,58.6v-.092a7.416,7.416,0,0,0,3.346.939A7.422,7.422,0,0,1,2.52,49.534,21.058,21.058,0,0,0,17.8,57.3a8.471,8.471,0,0,1-.184-1.694,7.416,7.416,0,0,1,12.82-5.069,14.517,14.517,0,0,0,4.7-1.786,7.394,7.394,0,0,1-3.254,4.08,14.929,14.929,0,0,0,4.264-1.144,16.03,16.03,0,0,1-3.713,3.819Z" transform="translate(0 -48.2)" fill="#fdeddf"/>
</svg>